<?xml version="1.0" encoding="UTF-8" ?>
<svg version="1.1" width="192" height="192" xmlns="http://www.w3.org/2000/svg" shape-rendering="crispEdges">
<rect x="86" y="63" width="8" height="2" fill="#5E5455" />
<rect x="83" y="64" width="3" height="1" fill="#5E5455" />
<rect x="94" y="64" width="2" height="3" fill="#5E5455" />
<rect x="78" y="65" width="6" height="1" fill="#161C2E" />
<rect x="84" y="65" width="4" height="2" fill="#5E5455" />
<rect x="88" y="65" width="4" height="1" fill="#977B6B" />
<rect x="92" y="65" width="2" height="1" fill="#5E5455" />
<rect x="96" y="65" width="1" height="4" fill="#5E5455" />
<rect x="77" y="66" width="4" height="1" fill="#161C2E" />
<rect x="81" y="66" width="3" height="1" fill="#5E5455" />
<rect x="88" y="66" width="1" height="2" fill="#5E5455" />
<rect x="89" y="66" width="5" height="1" fill="#977B6B" />
<rect x="97" y="66" width="1" height="4" fill="#5E5455" />
<rect x="75" y="67" width="4" height="1" fill="#161C2E" />
<rect x="79" y="67" width="3" height="1" fill="#5E5455" />
<rect x="82" y="67" width="5" height="9" fill="#977B6B" />
<rect x="87" y="67" width="1" height="1" fill="#5E5455" />
<rect x="89" y="67" width="1" height="1" fill="#5E5455" />
<rect x="90" y="67" width="5" height="2" fill="#977B6B" />
<rect x="95" y="67" width="1" height="1" fill="#5E5455" />
<rect x="98" y="67" width="2" height="3" fill="#5E5455" />
<rect x="74" y="68" width="4" height="1" fill="#161C2E" />
<rect x="78" y="68" width="4" height="8" fill="#977B6B" />
<rect x="87" y="68" width="3" height="8" fill="#977B6B" />
<rect x="95" y="68" width="1" height="5" fill="#977B6B" />
<rect x="100" y="68" width="2" height="3" fill="#5E5455" />
<rect x="74" y="69" width="3" height="1" fill="#161C2E" />
<rect x="77" y="69" width="1" height="6" fill="#977B6B" />
<rect x="90" y="69" width="2" height="2" fill="#5E5455" />
<rect x="92" y="69" width="3" height="1" fill="#977B6B" />
<rect x="96" y="69" width="1" height="4" fill="#977B6B" />
<rect x="102" y="69" width="6" height="2" fill="#5E5455" />
<rect x="73" y="70" width="3" height="1" fill="#161C2E" />
<rect x="76" y="70" width="1" height="5" fill="#977B6B" />
<rect x="92" y="70" width="1" height="2" fill="#5E5455" />
<rect x="93" y="70" width="2" height="3" fill="#977B6B" />
<rect x="97" y="70" width="3" height="4" fill="#977B6B" />
<rect x="108" y="70" width="2" height="3" fill="#5E5455" />
<rect x="73" y="71" width="2" height="1" fill="#161C2E" />
<rect x="75" y="71" width="1" height="3" fill="#977B6B" />
<rect x="90" y="71" width="1" height="5" fill="#977B6B" />
<rect x="91" y="71" width="1" height="1" fill="#5E5455" />
<rect x="100" y="71" width="6" height="4" fill="#977B6B" />
<rect x="106" y="71" width="2" height="1" fill="#5E5455" />
<rect x="110" y="71" width="1" height="4" fill="#5E5455" />
<rect x="72" y="72" width="2" height="6" fill="#161C2E" />
<rect x="74" y="72" width="1" height="4" fill="#5E5455" />
<rect x="91" y="72" width="2" height="4" fill="#977B6B" />
<rect x="106" y="72" width="2" height="5" fill="#977B6B" />
<rect x="111" y="72" width="1" height="5" fill="#5E5455" />
<rect x="93" y="73" width="4" height="1" fill="#5E5455" />
<rect x="108" y="73" width="1" height="4" fill="#977B6B" />
<rect x="109" y="73" width="1" height="1" fill="#5E5455" />
<rect x="112" y="73" width="1" height="1" fill="#5E5455" />
<rect x="75" y="74" width="1" height="3" fill="#5E5455" />
<rect x="93" y="74" width="1" height="7" fill="#977B6B" />
<rect x="94" y="74" width="3" height="1" fill="#5E5455" />
<rect x="97" y="74" width="1" height="7" fill="#977B6B" />
<rect x="98" y="74" width="2" height="2" fill="#5E5455" />
<rect x="109" y="74" width="1" height="4" fill="#977B6B" />
<rect x="112" y="74" width="1" height="5" fill="#161C2E" />
<rect x="76" y="75" width="2" height="2" fill="#5E5455" />
<rect x="94" y="75" width="3" height="5" fill="#977B6B" />
<rect x="100" y="75" width="1" height="2" fill="#5E5455" />
<rect x="101" y="75" width="5" height="1" fill="#977B6B" />
<rect x="110" y="75" width="1" height="4" fill="#977B6B" />
<rect x="113" y="75" width="1" height="7" fill="#161C2E" />
<rect x="74" y="76" width="1" height="3" fill="#161C2E" />
<rect x="78" y="76" width="14" height="1" fill="#5E5455" />
<rect x="92" y="76" width="1" height="18" fill="#977B6B" />
<rect x="98" y="76" width="1" height="6" fill="#977B6B" />
<rect x="99" y="76" width="1" height="1" fill="#5E5455" />
<rect x="101" y="76" width="1" height="4" fill="#977B6B" />
<rect x="102" y="76" width="1" height="3" fill="#5E5455" />
<rect x="103" y="76" width="3" height="1" fill="#977B6B" />
<rect x="75" y="77" width="2" height="3" fill="#161C2E" />
<rect x="77" y="77" width="14" height="1" fill="#5E5455" />
<rect x="91" y="77" width="1" height="16" fill="#977B6B" />
<rect x="99" y="77" width="2" height="3" fill="#977B6B" />
<rect x="103" y="77" width="1" height="3" fill="#5E5455" />
<rect x="104" y="77" width="2" height="1" fill="#977B6B" />
<rect x="106" y="77" width="3" height="3" fill="#ADA081" />
<rect x="111" y="77" width="1" height="15" fill="#977B6B" />
<rect x="114" y="77" width="1" height="8" fill="#161C2E" />
<rect x="73" y="78" width="1" height="1" fill="#161C2E" />
<rect x="77" y="78" width="3" height="5" fill="#161C2E" />
<rect x="80" y="78" width="10" height="1" fill="#5E5455" />
<rect x="90" y="78" width="1" height="15" fill="#977B6B" />
<rect x="104" y="78" width="1" height="2" fill="#5E5455" />
<rect x="105" y="78" width="1" height="4" fill="#977B6B" />
<rect x="109" y="78" width="1" height="4" fill="#ADA081" />
<rect x="80" y="79" width="8" height="1" fill="#5E5455" />
<rect x="88" y="79" width="2" height="13" fill="#977B6B" />
<rect x="102" y="79" width="1" height="2" fill="#977B6B" />
<rect x="110" y="79" width="1" height="3" fill="#ADA081" />
<rect x="112" y="79" width="1" height="13" fill="#977B6B" />
<rect x="115" y="79" width="1" height="7" fill="#161C2E" />
<rect x="76" y="80" width="1" height="1" fill="#161C2E" />
<rect x="80" y="80" width="7" height="2" fill="#5E5455" />
<rect x="87" y="80" width="1" height="10" fill="#977B6B" />
<rect x="94" y="80" width="3" height="4" fill="#ADA081" />
<rect x="99" y="80" width="3" height="3" fill="#ADA081" />
<rect x="103" y="80" width="2" height="2" fill="#977B6B" />
<rect x="106" y="80" width="1" height="3" fill="#977B6B" />
<rect x="107" y="80" width="2" height="1" fill="#ADA081" />
<rect x="93" y="81" width="1" height="2" fill="#ADA081" />
<rect x="97" y="81" width="1" height="4" fill="#ADA081" />
<rect x="102" y="81" width="1" height="3" fill="#ADA081" />
<rect x="107" y="81" width="1" height="6" fill="#977B6B" />
<rect x="108" y="81" width="1" height="1" fill="#ADA081" />
<rect x="80" y="82" width="6" height="8" fill="#5E5455" />
<rect x="86" y="82" width="1" height="5" fill="#977B6B" />
<rect x="98" y="82" width="1" height="3" fill="#ADA081" />
<rect x="103" y="82" width="1" height="2" fill="#ADA081" />
<rect x="104" y="82" width="1" height="12" fill="#977B6B" />
<rect x="105" y="82" width="1" height="4" fill="#5E5455" />
<rect x="108" y="82" width="3" height="10" fill="#977B6B" />
<rect x="113" y="82" width="1" height="10" fill="#977B6B" />
<rect x="77" y="83" width="2" height="2" fill="#161C2E" />
<rect x="79" y="83" width="1" height="14" fill="#5E5455" />
<rect x="93" y="83" width="1" height="2" fill="#977B6B" />
<rect x="99" y="83" width="1" height="12" fill="#977B6B" />
<rect x="100" y="83" width="2" height="1" fill="#ADA081" />
<rect x="106" y="83" width="1" height="3" fill="#5E5455" />
<rect x="116" y="83" width="1" height="4" fill="#161C2E" />
<rect x="76" y="84" width="1" height="5" fill="#161C2E" />
<rect x="94" y="84" width="1" height="1" fill="#977B6B" />
<rect x="95" y="84" width="2" height="1" fill="#ADA081" />
<rect x="100" y="84" width="4" height="10" fill="#977B6B" />
<rect x="77" y="85" width="1" height="2" fill="#161C2E" />
<rect x="78" y="85" width="1" height="11" fill="#5E5455" />
<rect x="93" y="85" width="2" height="2" fill="#ADA081" />
<rect x="95" y="85" width="4" height="1" fill="#977B6B" />
<rect x="114" y="85" width="1" height="7" fill="#977B6B" />
<rect x="117" y="85" width="1" height="4" fill="#161C2E" />
<rect x="75" y="86" width="1" height="5" fill="#161C2E" />
<rect x="95" y="86" width="1" height="2" fill="#ADA081" />
<rect x="96" y="86" width="3" height="9" fill="#977B6B" />
<rect x="105" y="86" width="2" height="1" fill="#977B6B" />
<rect x="115" y="86" width="1" height="6" fill="#977B6B" />
<rect x="118" y="86" width="1" height="23" fill="#161C2E" />
<rect x="77" y="87" width="1" height="2" fill="#977B6B" />
<rect x="86" y="87" width="1" height="3" fill="#5E5455" />
<rect x="93" y="87" width="1" height="7" fill="#977B6B" />
<rect x="94" y="87" width="1" height="1" fill="#ADA081" />
<rect x="105" y="87" width="1" height="7" fill="#977B6B" />
<rect x="106" y="87" width="2" height="4" fill="#5E5455" />
<rect x="116" y="87" width="1" height="6" fill="#977B6B" />
<rect x="74" y="88" width="1" height="16" fill="#161C2E" />
<rect x="94" y="88" width="2" height="6" fill="#977B6B" />
<rect x="119" y="88" width="1" height="10" fill="#161C2E" />
<rect x="73" y="89" width="1" height="6" fill="#161C2E" />
<rect x="76" y="89" width="1" height="8" fill="#977B6B" />
<rect x="77" y="89" width="1" height="6" fill="#5E5455" />
<rect x="117" y="89" width="1" height="6" fill="#977B6B" />
<rect x="80" y="90" width="4" height="7" fill="#5E5455" />
<rect x="84" y="90" width="3" height="2" fill="#977B6B" />
<rect x="87" y="90" width="1" height="1" fill="#5E5455" />
<rect x="75" y="91" width="1" height="4" fill="#977B6B" />
<rect x="87" y="91" width="1" height="4" fill="#977B6B" />
<rect x="106" y="91" width="2" height="2" fill="#977B6B" />
<rect x="120" y="91" width="1" height="5" fill="#161C2E" />
<rect x="84" y="92" width="1" height="6" fill="#5E5455" />
<rect x="85" y="92" width="2" height="1" fill="#977B6B" />
<rect x="88" y="92" width="1" height="21" fill="#5E5455" />
<rect x="89" y="92" width="1" height="1" fill="#977B6B" />
<rect x="108" y="92" width="2" height="1" fill="#977B6B" />
<rect x="110" y="92" width="3" height="2" fill="#5E5455" />
<rect x="113" y="92" width="3" height="2" fill="#161C2E" />
<rect x="85" y="93" width="1" height="5" fill="#5E5455" />
<rect x="86" y="93" width="1" height="1" fill="#977B6B" />
<rect x="89" y="93" width="3" height="19" fill="#5E5455" />
<rect x="106" y="93" width="4" height="2" fill="#5E5455" />
<rect x="116" y="93" width="1" height="6" fill="#161C2E" />
<rect x="86" y="94" width="1" height="5" fill="#5E5455" />
<rect x="92" y="94" width="4" height="3" fill="#5E5455" />
<rect x="100" y="94" width="2" height="1" fill="#977B6B" />
<rect x="102" y="94" width="4" height="2" fill="#5E5455" />
<rect x="110" y="94" width="2" height="1" fill="#5E5455" />
<rect x="112" y="94" width="3" height="3" fill="#C8A876" />
<rect x="115" y="94" width="1" height="1" fill="#161C2E" />
<rect x="75" y="95" width="1" height="6" fill="#161C2E" />
<rect x="77" y="95" width="1" height="3" fill="#977B6B" />
<rect x="87" y="95" width="1" height="5" fill="#5E5455" />
<rect x="96" y="95" width="1" height="1" fill="#5E5455" />
<rect x="97" y="95" width="3" height="3" fill="#161C2E" />
<rect x="100" y="95" width="2" height="1" fill="#5E5455" />
<rect x="106" y="95" width="2" height="1" fill="#5E5455" />
<rect x="108" y="95" width="4" height="4" fill="#C8A876" />
<rect x="115" y="95" width="1" height="2" fill="#C8A876" />
<rect x="117" y="95" width="1" height="13" fill="#161C2E" />
<rect x="78" y="96" width="1" height="2" fill="#977B6B" />
<rect x="96" y="96" width="1" height="3" fill="#161C2E" />
<rect x="100" y="96" width="2" height="1" fill="#161C2E" />
<rect x="102" y="96" width="2" height="1" fill="#5E5455" />
<rect x="104" y="96" width="4" height="4" fill="#C8A876" />
<rect x="76" y="97" width="1" height="3" fill="#161C2E" />
<rect x="79" y="97" width="2" height="2" fill="#977B6B" />
<rect x="81" y="97" width="3" height="1" fill="#5E5455" />
<rect x="92" y="97" width="3" height="1" fill="#5E5455" />
<rect x="95" y="97" width="1" height="4" fill="#161C2E" />
<rect x="100" y="97" width="4" height="4" fill="#C8A876" />
<rect x="112" y="97" width="1" height="1" fill="#C8A876" />
<rect x="113" y="97" width="2" height="2" fill="#161C2E" />
<rect x="115" y="97" width="1" height="10" fill="#EFE1AB" />
<rect x="77" y="98" width="2" height="3" fill="#161C2E" />
<rect x="81" y="98" width="1" height="1" fill="#977B6B" />
<rect x="82" y="98" width="4" height="3" fill="#161C2E" />
<rect x="92" y="98" width="2" height="1" fill="#5E5455" />
<rect x="94" y="98" width="1" height="13" fill="#161C2E" />
<rect x="97" y="98" width="1" height="1" fill="#161C2E" />
<rect x="98" y="98" width="2" height="2" fill="#C8A876" />
<rect x="112" y="98" width="1" height="10" fill="#EFE1AB" />
<rect x="73" y="99" width="1" height="4" fill="#161C2E" />
<rect x="79" y="99" width="3" height="2" fill="#161C2E" />
<rect x="86" y="99" width="1" height="9" fill="#161C2E" />
<rect x="92" y="99" width="1" height="12" fill="#5E5455" />
<rect x="93" y="99" width="1" height="14" fill="#161C2E" />
<rect x="96" y="99" width="2" height="10" fill="#C8A876" />
<rect x="108" y="99" width="2" height="3" fill="#161C2E" />
<rect x="110" y="99" width="2" height="10" fill="#EFE1AB" />
<rect x="113" y="99" width="2" height="9" fill="#EFE1AB" />
<rect x="116" y="99" width="1" height="6" fill="#EFE1AB" />
<rect x="65" y="100" width="4" height="2" fill="#654848" />
<rect x="71" y="100" width="2" height="2" fill="#161C2E" />
<rect x="76" y="100" width="1" height="4" fill="#474144" />
<rect x="87" y="100" width="1" height="5" fill="#161C2E" />
<rect x="98" y="100" width="2" height="2" fill="#161C2E" />
<rect x="104" y="100" width="1" height="1" fill="#C8A876" />
<rect x="105" y="100" width="2" height="2" fill="#161C2E" />
<rect x="107" y="100" width="1" height="1" fill="#C8A876" />
<rect x="60" y="101" width="1" height="3" fill="#69777F" />
<rect x="61" y="101" width="2" height="2" fill="#161C2E" />
<rect x="64" y="101" width="1" height="3" fill="#654848" />
<rect x="69" y="101" width="1" height="4" fill="#654848" />
<rect x="70" y="101" width="1" height="1" fill="#161C2E" />
<rect x="75" y="101" width="1" height="1" fill="#474144" />
<rect x="77" y="101" width="7" height="3" fill="#474144" />
<rect x="84" y="101" width="2" height="3" fill="#161C2E" />
<rect x="95" y="101" width="1" height="7" fill="#C8A876" />
<rect x="100" y="101" width="5" height="8" fill="#EFE1AB" />
<rect x="107" y="101" width="1" height="2" fill="#161C2E" />
<rect x="59" y="102" width="1" height="13" fill="#69777F" />
<rect x="65" y="102" width="1" height="1" fill="#654848" />
<rect x="66" y="102" width="2" height="2" fill="#DAB570" />
<rect x="68" y="102" width="1" height="1" fill="#654848" />
<rect x="70" y="102" width="3" height="1" fill="#69777F" />
<rect x="75" y="102" width="1" height="7" fill="#161C2E" />
<rect x="98" y="102" width="1" height="1" fill="#C8A876" />
<rect x="99" y="102" width="1" height="6" fill="#EFE1AB" />
<rect x="105" y="102" width="1" height="8" fill="#EFE1AB" />
<rect x="106" y="102" width="1" height="1" fill="#161C2E" />
<rect x="108" y="102" width="1" height="1" fill="#161C2E" />
<rect x="109" y="102" width="1" height="7" fill="#EFE1AB" />
<rect x="61" y="103" width="1" height="4" fill="#A0B3B6" />
<rect x="62" y="103" width="2" height="2" fill="#161C2E" />
<rect x="65" y="103" width="1" height="2" fill="#DAB570" />
<rect x="68" y="103" width="1" height="2" fill="#B48150" />
<rect x="70" y="103" width="1" height="2" fill="#654848" />
<rect x="71" y="103" width="2" height="2" fill="#69777F" />
<rect x="73" y="103" width="1" height="5" fill="#A0B3B6" />
<rect x="98" y="103" width="1" height="4" fill="#EFE1AB" />
<rect x="106" y="103" width="3" height="6" fill="#EFE1AB" />
<rect x="58" y="104" width="1" height="8" fill="#69777F" />
<rect x="60" y="104" width="1" height="8" fill="#DAF3EE" />
<rect x="64" y="104" width="1" height="3" fill="#161C2E" />
<rect x="66" y="104" width="1" height="1" fill="#DAB570" />
<rect x="67" y="104" width="1" height="2" fill="#B48150" />
<rect x="74" y="104" width="1" height="3" fill="#A0B3B6" />
<rect x="76" y="104" width="1" height="5" fill="#161C2E" />
<rect x="77" y="104" width="4" height="1" fill="#474144" />
<rect x="81" y="104" width="1" height="6" fill="#161C2E" />
<rect x="82" y="104" width="3" height="3" fill="#474144" />
<rect x="85" y="104" width="1" height="10" fill="#161C2E" />
<rect x="62" y="105" width="1" height="6" fill="#A0B3B6" />
<rect x="63" y="105" width="1" height="1" fill="#161C2E" />
<rect x="65" y="105" width="1" height="2" fill="#161C2E" />
<rect x="66" y="105" width="1" height="1" fill="#B48150" />
<rect x="68" y="105" width="2" height="2" fill="#161C2E" />
<rect x="70" y="105" width="2" height="1" fill="#69777F" />
<rect x="72" y="105" width="1" height="4" fill="#A0B3B6" />
<rect x="77" y="105" width="3" height="1" fill="#474144" />
<rect x="80" y="105" width="1" height="4" fill="#161C2E" />
<rect x="87" y="105" width="1" height="8" fill="#5E5455" />
<rect x="116" y="105" width="1" height="12" fill="#161C2E" />
<rect x="63" y="106" width="1" height="7" fill="#A0B3B6" />
<rect x="66" y="106" width="2" height="2" fill="#161C2E" />
<rect x="70" y="106" width="1" height="1" fill="#69777F" />
<rect x="71" y="106" width="1" height="4" fill="#A0B3B6" />
<rect x="77" y="106" width="2" height="1" fill="#474144" />
<rect x="79" y="106" width="1" height="9" fill="#161C2E" />
<rect x="61" y="107" width="1" height="7" fill="#DAF3EE" />
<rect x="64" y="107" width="2" height="2" fill="#A0B3B6" />
<rect x="68" y="107" width="1" height="1" fill="#161C2E" />
<rect x="69" y="107" width="1" height="1" fill="#69777F" />
<rect x="70" y="107" width="1" height="4" fill="#A0B3B6" />
<rect x="74" y="107" width="1" height="5" fill="#161C2E" />
<rect x="77" y="107" width="2" height="3" fill="#161C2E" />
<rect x="82" y="107" width="1" height="3" fill="#161C2E" />
<rect x="83" y="107" width="2" height="1" fill="#474144" />
<rect x="98" y="107" width="1" height="2" fill="#C8A876" />
<rect x="115" y="107" width="1" height="9" fill="#161C2E" />
<rect x="119" y="107" width="1" height="3" fill="#161C2E" />
<rect x="66" y="108" width="4" height="1" fill="#A0B3B6" />
<rect x="73" y="108" width="1" height="4" fill="#161C2E" />
<rect x="83" y="108" width="2" height="2" fill="#161C2E" />
<rect x="86" y="108" width="1" height="4" fill="#5E5455" />
<rect x="95" y="108" width="1" height="3" fill="#161C2E" />
<rect x="99" y="108" width="1" height="1" fill="#C8A876" />
<rect x="112" y="108" width="3" height="2" fill="#161C2E" />
<rect x="117" y="108" width="1" height="7" fill="#C8A876" />
<rect x="120" y="108" width="1" height="3" fill="#161C2E" />
<rect x="64" y="109" width="1" height="6" fill="#A0B3B6" />
<rect x="65" y="109" width="4" height="2" fill="#69777F" />
<rect x="69" y="109" width="1" height="8" fill="#A0B3B6" />
<rect x="72" y="109" width="1" height="3" fill="#161C2E" />
<rect x="75" y="109" width="2" height="2" fill="#C8A876" />
<rect x="80" y="109" width="1" height="3" fill="#485884" />
<rect x="96" y="109" width="4" height="3" fill="#161C2E" />
<rect x="100" y="109" width="2" height="1" fill="#C8A876" />
<rect x="102" y="109" width="3" height="1" fill="#EFE1AB" />
<rect x="106" y="109" width="1" height="1" fill="#EFE1AB" />
<rect x="107" y="109" width="5" height="2" fill="#161C2E" />
<rect x="118" y="109" width="1" height="7" fill="#C8A876" />
<rect x="121" y="109" width="1" height="8" fill="#161C2E" />
<rect x="71" y="110" width="1" height="7" fill="#161C2E" />
<rect x="77" y="110" width="1" height="2" fill="#C8A876" />
<rect x="78" y="110" width="1" height="5" fill="#161C2E" />
<rect x="81" y="110" width="3" height="4" fill="#485884" />
<rect x="84" y="110" width="1" height="3" fill="#161C2E" />
<rect x="100" y="110" width="7" height="2" fill="#161C2E" />
<rect x="112" y="110" width="1" height="1" fill="#161C2E" />
<rect x="113" y="110" width="2" height="3" fill="#485884" />
<rect x="119" y="110" width="1" height="6" fill="#C8A876" />
<rect x="122" y="110" width="1" height="6" fill="#161C2E" />
<rect x="62" y="111" width="1" height="4" fill="#DAF3EE" />
<rect x="65" y="111" width="1" height="4" fill="#A0B3B6" />
<rect x="66" y="111" width="3" height="1" fill="#69777F" />
<rect x="70" y="111" width="1" height="4" fill="#161C2E" />
<rect x="75" y="111" width="1" height="2" fill="#161C2E" />
<rect x="76" y="111" width="1" height="1" fill="#C8A876" />
<rect x="92" y="111" width="1" height="3" fill="#161C2E" />
<rect x="94" y="111" width="2" height="3" fill="#485884" />
<rect x="107" y="111" width="3" height="1" fill="#161C2E" />
<rect x="110" y="111" width="3" height="2" fill="#485884" />
<rect x="120" y="111" width="1" height="4" fill="#C8A876" />
<rect x="60" y="112" width="1" height="5" fill="#69777F" />
<rect x="66" y="112" width="1" height="4" fill="#A0B3B6" />
<rect x="67" y="112" width="2" height="1" fill="#69777F" />
<rect x="72" y="112" width="3" height="3" fill="#C8A876" />
<rect x="76" y="112" width="2" height="3" fill="#161C2E" />
<rect x="80" y="112" width="1" height="4" fill="#161C2E" />
<rect x="86" y="112" width="1" height="3" fill="#161C2E" />
<rect x="89" y="112" width="2" height="1" fill="#5E5455" />
<rect x="91" y="112" width="1" height="3" fill="#161C2E" />
<rect x="96" y="112" width="14" height="1" fill="#485884" />
<rect x="63" y="113" width="1" height="2" fill="#DAF3EE" />
<rect x="67" y="113" width="2" height="3" fill="#A0B3B6" />
<rect x="75" y="113" width="1" height="2" fill="#C8A876" />
<rect x="84" y="113" width="1" height="3" fill="#485884" />
<rect x="87" y="113" width="4" height="2" fill="#161C2E" />
<rect x="93" y="113" width="1" height="8" fill="#485884" />
<rect x="96" y="113" width="6" height="1" fill="#485884" />
<rect x="102" y="113" width="10" height="2" fill="#4697AC" />
<rect x="112" y="113" width="2" height="2" fill="#485884" />
<rect x="114" y="113" width="1" height="5" fill="#161C2E" />
<rect x="61" y="114" width="1" height="3" fill="#69777F" />
<rect x="81" y="114" width="2" height="2" fill="#161C2E" />
<rect x="83" y="114" width="1" height="1" fill="#485884" />
<rect x="85" y="114" width="1" height="5" fill="#485884" />
<rect x="92" y="114" width="1" height="7" fill="#485884" />
<rect x="94" y="114" width="1" height="7" fill="#485884" />
<rect x="95" y="114" width="7" height="2" fill="#4697AC" />
<rect x="62" y="115" width="3" height="2" fill="#69777F" />
<rect x="65" y="115" width="1" height="3" fill="#DAF3EE" />
<rect x="70" y="115" width="1" height="2" fill="#A0B3B6" />
<rect x="72" y="115" width="1" height="5" fill="#161C2E" />
<rect x="73" y="115" width="2" height="1" fill="#C8A876" />
<rect x="75" y="115" width="2" height="1" fill="#161C2E" />
<rect x="77" y="115" width="3" height="4" fill="#866353" />
<rect x="83" y="115" width="1" height="7" fill="#161C2E" />
<rect x="86" y="115" width="6" height="4" fill="#485884" />
<rect x="102" y="115" width="9" height="1" fill="#4697AC" />
<rect x="111" y="115" width="2" height="2" fill="#485884" />
<rect x="113" y="115" width="1" height="4" fill="#161C2E" />
<rect x="117" y="115" width="1" height="3" fill="#161C2E" />
<rect x="120" y="115" width="1" height="3" fill="#161C2E" />
<rect x="66" y="116" width="2" height="2" fill="#DAF3EE" />
<rect x="68" y="116" width="1" height="1" fill="#A0B3B6" />
<rect x="73" y="116" width="3" height="3" fill="#161C2E" />
<rect x="76" y="116" width="1" height="2" fill="#866353" />
<rect x="80" y="116" width="2" height="4" fill="#866353" />
<rect x="82" y="116" width="1" height="1" fill="#161C2E" />
<rect x="84" y="116" width="1" height="5" fill="#161C2E" />
<rect x="95" y="116" width="1" height="5" fill="#485884" />
<rect x="96" y="116" width="13" height="1" fill="#4697AC" />
<rect x="109" y="116" width="2" height="2" fill="#485884" />
<rect x="118" y="116" width="2" height="2" fill="#161C2E" />
<rect x="63" y="117" width="2" height="3" fill="#69777F" />
<rect x="68" y="117" width="4" height="2" fill="#DAF3EE" />
<rect x="82" y="117" width="1" height="2" fill="#866353" />
<rect x="96" y="117" width="13" height="2" fill="#485884" />
<rect x="111" y="117" width="1" height="1" fill="#485884" />
<rect x="112" y="117" width="1" height="3" fill="#161C2E" />
<rect x="65" y="118" width="2" height="3" fill="#69777F" />
<rect x="67" y="118" width="1" height="1" fill="#DAF3EE" />
<rect x="76" y="118" width="1" height="3" fill="#161C2E" />
<rect x="109" y="118" width="1" height="1" fill="#485884" />
<rect x="110" y="118" width="2" height="2" fill="#161C2E" />
<rect x="67" y="119" width="5" height="2" fill="#69777F" />
<rect x="73" y="119" width="1" height="2" fill="#161C2E" />
<rect x="75" y="119" width="1" height="1" fill="#161C2E" />
<rect x="77" y="119" width="2" height="3" fill="#161C2E" />
<rect x="79" y="119" width="1" height="1" fill="#866353" />
<rect x="82" y="119" width="1" height="4" fill="#161C2E" />
<rect x="85" y="119" width="2" height="3" fill="#161C2E" />
<rect x="87" y="119" width="5" height="1" fill="#485884" />
<rect x="96" y="119" width="12" height="1" fill="#485884" />
<rect x="108" y="119" width="2" height="2" fill="#161C2E" />
<rect x="72" y="120" width="1" height="1" fill="#69777F" />
<rect x="79" y="120" width="3" height="3" fill="#161C2E" />
<rect x="87" y="120" width="3" height="3" fill="#161C2E" />
<rect x="90" y="120" width="2" height="1" fill="#485884" />
<rect x="96" y="120" width="7" height="1" fill="#485884" />
<rect x="103" y="120" width="5" height="2" fill="#161C2E" />
<rect x="110" y="120" width="1" height="1" fill="#161C2E" />
<rect x="111" y="120" width="1" height="13" fill="#161C2E" opacity="0.270588" />
<rect x="84" y="121" width="1" height="12" fill="#161C2E" opacity="0.270588" />
<rect x="90" y="121" width="13" height="2" fill="#161C2E" />
<rect x="108" y="121" width="1" height="1" fill="#161C2E" />
<rect x="109" y="121" width="2" height="12" fill="#161C2E" opacity="0.270588" />
<rect x="112" y="121" width="2" height="11" fill="#161C2E" opacity="0.270588" />
<rect x="83" y="122" width="1" height="11" fill="#161C2E" opacity="0.270588" />
<rect x="85" y="122" width="2" height="11" fill="#161C2E" opacity="0.270588" />
<rect x="103" y="122" width="4" height="1" fill="#161C2E" />
<rect x="107" y="122" width="2" height="12" fill="#161C2E" opacity="0.270588" />
<rect x="114" y="122" width="1" height="9" fill="#161C2E" opacity="0.270588" />
<rect x="79" y="123" width="4" height="7" fill="#161C2E" opacity="0.270588" />
<rect x="87" y="123" width="3" height="2" fill="#161C2E" opacity="0.270588" />
<rect x="90" y="123" width="2" height="5" fill="#161C2E" />
<rect x="92" y="123" width="10" height="1" fill="#161C2E" opacity="0.270588" />
<rect x="102" y="123" width="2" height="4" fill="#161C2E" />
<rect x="104" y="123" width="3" height="1" fill="#161C2E" opacity="0.270588" />
<rect x="115" y="123" width="1" height="7" fill="#161C2E" opacity="0.270588" />
<rect x="78" y="124" width="1" height="5" fill="#161C2E" opacity="0.270588" />
<rect x="92" y="124" width="1" height="4" fill="#161C2E" />
<rect x="93" y="124" width="8" height="2" fill="#161C2E" opacity="0.270588" />
<rect x="101" y="124" width="1" height="3" fill="#161C2E" />
<rect x="104" y="124" width="1" height="3" fill="#161C2E" />
<rect x="105" y="124" width="2" height="1" fill="#161C2E" opacity="0.270588" />
<rect x="116" y="124" width="1" height="5" fill="#161C2E" opacity="0.270588" />
<rect x="87" y="125" width="2" height="1" fill="#161C2E" opacity="0.270588" />
<rect x="89" y="125" width="1" height="3" fill="#161C2E" />
<rect x="105" y="125" width="1" height="2" fill="#161C2E" />
<rect x="106" y="125" width="1" height="1" fill="#161C2E" opacity="0.270588" />
<rect x="87" y="126" width="1" height="1" fill="#161C2E" opacity="0.270588" />
<rect x="88" y="126" width="1" height="2" fill="#161C2E" />
<rect x="93" y="126" width="1" height="2" fill="#161C2E" />
<rect x="94" y="126" width="7" height="9" fill="#161C2E" opacity="0.270588" />
<rect x="106" y="126" width="1" height="1" fill="#161C2E" />
<rect x="87" y="127" width="1" height="1" fill="#161C2E" />
<rect x="101" y="127" width="6" height="7" fill="#161C2E" opacity="0.270588" />
<rect x="87" y="128" width="7" height="6" fill="#161C2E" opacity="0.270588" />
<rect x="80" y="130" width="3" height="1" fill="#161C2E" opacity="0.270588" />
<rect x="81" y="131" width="2" height="1" fill="#161C2E" opacity="0.270588" />
<rect x="86" y="133" width="1" height="1" fill="#161C2E" opacity="0.270588" />
<rect x="91" y="134" width="3" height="1" fill="#161C2E" opacity="0.270588" />
<rect x="101" y="134" width="3" height="1" fill="#161C2E" opacity="0.270588" />
</svg>