<?xml version="1.0" encoding="UTF-8" ?>
<svg version="1.1" width="192" height="192" xmlns="http://www.w3.org/2000/svg" shape-rendering="crispEdges">
<rect x="85" y="62" width="7" height="2" fill="#5E5455" />
<rect x="81" y="63" width="4" height="3" fill="#5E5455" />
<rect x="92" y="63" width="1" height="3" fill="#5E5455" />
<rect x="78" y="64" width="2" height="1" fill="#161C2E" />
<rect x="80" y="64" width="1" height="2" fill="#5E5455" />
<rect x="85" y="64" width="3" height="1" fill="#5E5455" />
<rect x="88" y="64" width="3" height="5" fill="#977B6B" />
<rect x="91" y="64" width="1" height="1" fill="#5E5455" />
<rect x="93" y="64" width="1" height="4" fill="#5E5455" />
<rect x="77" y="65" width="2" height="1" fill="#161C2E" />
<rect x="79" y="65" width="1" height="2" fill="#5E5455" />
<rect x="85" y="65" width="1" height="3" fill="#5E5455" />
<rect x="86" y="65" width="2" height="1" fill="#977B6B" />
<rect x="91" y="65" width="1" height="8" fill="#977B6B" />
<rect x="94" y="65" width="1" height="4" fill="#5E5455" />
<rect x="76" y="66" width="2" height="1" fill="#161C2E" />
<rect x="78" y="66" width="1" height="1" fill="#5E5455" />
<rect x="80" y="66" width="3" height="11" fill="#977B6B" />
<rect x="83" y="66" width="2" height="1" fill="#5E5455" />
<rect x="86" y="66" width="1" height="2" fill="#5E5455" />
<rect x="87" y="66" width="1" height="1" fill="#977B6B" />
<rect x="92" y="66" width="1" height="7" fill="#977B6B" />
<rect x="95" y="66" width="1" height="4" fill="#5E5455" />
<rect x="75" y="67" width="2" height="1" fill="#161C2E" />
<rect x="77" y="67" width="3" height="11" fill="#977B6B" />
<rect x="83" y="67" width="2" height="9" fill="#977B6B" />
<rect x="87" y="67" width="1" height="1" fill="#5E5455" />
<rect x="96" y="67" width="2" height="3" fill="#5E5455" />
<rect x="74" y="68" width="2" height="2" fill="#161C2E" />
<rect x="76" y="68" width="1" height="9" fill="#977B6B" />
<rect x="85" y="68" width="3" height="8" fill="#977B6B" />
<rect x="93" y="68" width="1" height="5" fill="#977B6B" />
<rect x="98" y="68" width="2" height="3" fill="#5E5455" />
<rect x="73" y="69" width="1" height="4" fill="#161C2E" />
<rect x="88" y="69" width="2" height="2" fill="#5E5455" />
<rect x="90" y="69" width="1" height="1" fill="#977B6B" />
<rect x="94" y="69" width="1" height="4" fill="#977B6B" />
<rect x="100" y="69" width="6" height="2" fill="#5E5455" />
<rect x="72" y="70" width="1" height="11" fill="#161C2E" />
<rect x="74" y="70" width="1" height="1" fill="#161C2E" />
<rect x="75" y="70" width="1" height="6" fill="#977B6B" />
<rect x="90" y="70" width="1" height="2" fill="#5E5455" />
<rect x="95" y="70" width="3" height="4" fill="#977B6B" />
<rect x="106" y="70" width="2" height="3" fill="#5E5455" />
<rect x="74" y="71" width="1" height="1" fill="#5E5455" />
<rect x="88" y="71" width="1" height="5" fill="#977B6B" />
<rect x="89" y="71" width="1" height="1" fill="#5E5455" />
<rect x="98" y="71" width="6" height="4" fill="#977B6B" />
<rect x="104" y="71" width="2" height="1" fill="#5E5455" />
<rect x="108" y="71" width="1" height="4" fill="#5E5455" />
<rect x="71" y="72" width="1" height="8" fill="#161C2E" />
<rect x="74" y="72" width="1" height="3" fill="#977B6B" />
<rect x="89" y="72" width="2" height="4" fill="#977B6B" />
<rect x="104" y="72" width="2" height="5" fill="#977B6B" />
<rect x="109" y="72" width="1" height="5" fill="#5E5455" />
<rect x="73" y="73" width="1" height="5" fill="#5E5455" />
<rect x="91" y="73" width="4" height="1" fill="#5E5455" />
<rect x="106" y="73" width="1" height="4" fill="#977B6B" />
<rect x="107" y="73" width="1" height="1" fill="#5E5455" />
<rect x="110" y="73" width="1" height="1" fill="#5E5455" />
<rect x="91" y="74" width="1" height="7" fill="#977B6B" />
<rect x="92" y="74" width="3" height="1" fill="#5E5455" />
<rect x="95" y="74" width="1" height="7" fill="#977B6B" />
<rect x="96" y="74" width="2" height="2" fill="#5E5455" />
<rect x="107" y="74" width="1" height="4" fill="#977B6B" />
<rect x="110" y="74" width="1" height="5" fill="#161C2E" />
<rect x="74" y="75" width="1" height="4" fill="#5E5455" />
<rect x="92" y="75" width="3" height="5" fill="#977B6B" />
<rect x="98" y="75" width="1" height="2" fill="#5E5455" />
<rect x="99" y="75" width="5" height="1" fill="#977B6B" />
<rect x="108" y="75" width="1" height="4" fill="#977B6B" />
<rect x="111" y="75" width="1" height="7" fill="#161C2E" />
<rect x="75" y="76" width="1" height="4" fill="#5E5455" />
<rect x="83" y="76" width="1" height="1" fill="#977B6B" />
<rect x="84" y="76" width="6" height="1" fill="#5E5455" />
<rect x="90" y="76" width="1" height="18" fill="#977B6B" />
<rect x="96" y="76" width="1" height="6" fill="#977B6B" />
<rect x="97" y="76" width="1" height="1" fill="#5E5455" />
<rect x="99" y="76" width="1" height="4" fill="#977B6B" />
<rect x="100" y="76" width="1" height="3" fill="#5E5455" />
<rect x="101" y="76" width="3" height="1" fill="#977B6B" />
<rect x="76" y="77" width="1" height="3" fill="#5E5455" />
<rect x="80" y="77" width="9" height="1" fill="#5E5455" />
<rect x="89" y="77" width="1" height="16" fill="#977B6B" />
<rect x="97" y="77" width="2" height="3" fill="#977B6B" />
<rect x="101" y="77" width="1" height="3" fill="#5E5455" />
<rect x="102" y="77" width="2" height="1" fill="#977B6B" />
<rect x="104" y="77" width="3" height="3" fill="#ADA081" />
<rect x="109" y="77" width="1" height="16" fill="#977B6B" />
<rect x="112" y="77" width="1" height="8" fill="#161C2E" />
<rect x="73" y="78" width="1" height="4" fill="#161C2E" />
<rect x="77" y="78" width="11" height="1" fill="#5E5455" />
<rect x="88" y="78" width="1" height="15" fill="#977B6B" />
<rect x="102" y="78" width="1" height="2" fill="#5E5455" />
<rect x="103" y="78" width="1" height="4" fill="#977B6B" />
<rect x="107" y="78" width="1" height="4" fill="#ADA081" />
<rect x="74" y="79" width="1" height="3" fill="#161C2E" />
<rect x="77" y="79" width="9" height="1" fill="#5E5455" />
<rect x="86" y="79" width="2" height="13" fill="#977B6B" />
<rect x="100" y="79" width="1" height="2" fill="#977B6B" />
<rect x="108" y="79" width="1" height="3" fill="#ADA081" />
<rect x="110" y="79" width="1" height="13" fill="#977B6B" />
<rect x="113" y="79" width="1" height="7" fill="#161C2E" />
<rect x="75" y="80" width="3" height="3" fill="#161C2E" />
<rect x="78" y="80" width="7" height="2" fill="#5E5455" />
<rect x="85" y="80" width="1" height="10" fill="#977B6B" />
<rect x="92" y="80" width="3" height="4" fill="#ADA081" />
<rect x="97" y="80" width="3" height="3" fill="#ADA081" />
<rect x="101" y="80" width="2" height="2" fill="#977B6B" />
<rect x="104" y="80" width="1" height="3" fill="#977B6B" />
<rect x="105" y="80" width="2" height="1" fill="#ADA081" />
<rect x="91" y="81" width="1" height="2" fill="#ADA081" />
<rect x="95" y="81" width="1" height="4" fill="#ADA081" />
<rect x="100" y="81" width="1" height="3" fill="#ADA081" />
<rect x="105" y="81" width="1" height="6" fill="#977B6B" />
<rect x="106" y="81" width="1" height="1" fill="#ADA081" />
<rect x="78" y="82" width="6" height="8" fill="#5E5455" />
<rect x="84" y="82" width="1" height="5" fill="#977B6B" />
<rect x="96" y="82" width="1" height="3" fill="#ADA081" />
<rect x="101" y="82" width="1" height="2" fill="#ADA081" />
<rect x="102" y="82" width="1" height="12" fill="#977B6B" />
<rect x="103" y="82" width="1" height="4" fill="#5E5455" />
<rect x="106" y="82" width="3" height="11" fill="#977B6B" />
<rect x="111" y="82" width="1" height="10" fill="#977B6B" />
<rect x="75" y="83" width="2" height="2" fill="#161C2E" />
<rect x="77" y="83" width="1" height="14" fill="#5E5455" />
<rect x="91" y="83" width="1" height="2" fill="#977B6B" />
<rect x="97" y="83" width="1" height="12" fill="#977B6B" />
<rect x="98" y="83" width="2" height="1" fill="#ADA081" />
<rect x="104" y="83" width="1" height="3" fill="#5E5455" />
<rect x="114" y="83" width="1" height="4" fill="#161C2E" />
<rect x="74" y="84" width="1" height="5" fill="#161C2E" />
<rect x="92" y="84" width="1" height="1" fill="#977B6B" />
<rect x="93" y="84" width="2" height="1" fill="#ADA081" />
<rect x="98" y="84" width="4" height="11" fill="#977B6B" />
<rect x="75" y="85" width="1" height="2" fill="#161C2E" />
<rect x="76" y="85" width="1" height="11" fill="#5E5455" />
<rect x="91" y="85" width="2" height="2" fill="#ADA081" />
<rect x="93" y="85" width="4" height="1" fill="#977B6B" />
<rect x="112" y="85" width="1" height="7" fill="#977B6B" />
<rect x="115" y="85" width="1" height="4" fill="#161C2E" />
<rect x="73" y="86" width="1" height="5" fill="#161C2E" />
<rect x="93" y="86" width="1" height="2" fill="#ADA081" />
<rect x="94" y="86" width="3" height="9" fill="#977B6B" />
<rect x="103" y="86" width="2" height="1" fill="#977B6B" />
<rect x="113" y="86" width="1" height="6" fill="#977B6B" />
<rect x="116" y="86" width="1" height="6" fill="#161C2E" />
<rect x="75" y="87" width="1" height="2" fill="#977B6B" />
<rect x="84" y="87" width="1" height="3" fill="#5E5455" />
<rect x="91" y="87" width="1" height="7" fill="#977B6B" />
<rect x="92" y="87" width="1" height="1" fill="#ADA081" />
<rect x="103" y="87" width="1" height="7" fill="#977B6B" />
<rect x="104" y="87" width="2" height="4" fill="#5E5455" />
<rect x="114" y="87" width="1" height="6" fill="#977B6B" />
<rect x="72" y="88" width="1" height="13" fill="#161C2E" />
<rect x="92" y="88" width="2" height="6" fill="#977B6B" />
<rect x="117" y="88" width="1" height="9" fill="#161C2E" />
<rect x="71" y="89" width="1" height="6" fill="#161C2E" />
<rect x="74" y="89" width="1" height="8" fill="#977B6B" />
<rect x="75" y="89" width="1" height="6" fill="#5E5455" />
<rect x="115" y="89" width="1" height="5" fill="#977B6B" />
<rect x="78" y="90" width="4" height="7" fill="#5E5455" />
<rect x="82" y="90" width="3" height="2" fill="#977B6B" />
<rect x="85" y="90" width="1" height="1" fill="#5E5455" />
<rect x="73" y="91" width="1" height="4" fill="#977B6B" />
<rect x="85" y="91" width="1" height="4" fill="#977B6B" />
<rect x="104" y="91" width="2" height="3" fill="#977B6B" />
<rect x="118" y="91" width="1" height="5" fill="#161C2E" />
<rect x="82" y="92" width="1" height="6" fill="#5E5455" />
<rect x="83" y="92" width="2" height="1" fill="#977B6B" />
<rect x="86" y="92" width="1" height="18" fill="#5E5455" />
<rect x="87" y="92" width="1" height="1" fill="#977B6B" />
<rect x="110" y="92" width="1" height="2" fill="#5E5455" />
<rect x="111" y="92" width="3" height="2" fill="#161C2E" />
<rect x="116" y="92" width="1" height="3" fill="#977B6B" />
<rect x="83" y="93" width="1" height="5" fill="#5E5455" />
<rect x="84" y="93" width="1" height="1" fill="#977B6B" />
<rect x="87" y="93" width="3" height="18" fill="#5E5455" />
<rect x="106" y="93" width="1" height="1" fill="#977B6B" />
<rect x="107" y="93" width="3" height="2" fill="#5E5455" />
<rect x="114" y="93" width="1" height="6" fill="#161C2E" />
<rect x="84" y="94" width="1" height="5" fill="#5E5455" />
<rect x="90" y="94" width="4" height="2" fill="#5E5455" />
<rect x="102" y="94" width="5" height="2" fill="#5E5455" />
<rect x="110" y="94" width="2" height="3" fill="#C8A876" />
<rect x="112" y="94" width="2" height="1" fill="#161C2E" />
<rect x="115" y="94" width="1" height="8" fill="#161C2E" />
<rect x="73" y="95" width="1" height="5" fill="#161C2E" />
<rect x="75" y="95" width="1" height="3" fill="#977B6B" />
<rect x="85" y="95" width="1" height="5" fill="#5E5455" />
<rect x="94" y="95" width="4" height="2" fill="#161C2E" />
<rect x="98" y="95" width="4" height="1" fill="#5E5455" />
<rect x="107" y="95" width="3" height="4" fill="#C8A876" />
<rect x="112" y="95" width="2" height="2" fill="#C8A876" />
<rect x="116" y="95" width="1" height="3" fill="#161C2E" />
<rect x="76" y="96" width="1" height="2" fill="#977B6B" />
<rect x="90" y="96" width="3" height="1" fill="#5E5455" />
<rect x="93" y="96" width="1" height="4" fill="#161C2E" />
<rect x="98" y="96" width="2" height="1" fill="#161C2E" />
<rect x="100" y="96" width="4" height="1" fill="#5E5455" />
<rect x="104" y="96" width="3" height="3" fill="#C8A876" />
<rect x="74" y="97" width="1" height="3" fill="#161C2E" />
<rect x="77" y="97" width="2" height="2" fill="#977B6B" />
<rect x="79" y="97" width="3" height="1" fill="#5E5455" />
<rect x="90" y="97" width="2" height="2" fill="#5E5455" />
<rect x="92" y="97" width="1" height="10" fill="#161C2E" />
<rect x="94" y="97" width="2" height="1" fill="#161C2E" />
<rect x="96" y="97" width="8" height="3" fill="#C8A876" />
<rect x="110" y="97" width="1" height="1" fill="#C8A876" />
<rect x="111" y="97" width="2" height="2" fill="#161C2E" />
<rect x="113" y="97" width="1" height="10" fill="#EFE1AB" />
<rect x="122" y="97" width="5" height="2" fill="#654848" />
<rect x="71" y="98" width="1" height="9" fill="#161C2E" />
<rect x="75" y="98" width="2" height="3" fill="#161C2E" />
<rect x="79" y="98" width="1" height="1" fill="#977B6B" />
<rect x="80" y="98" width="4" height="3" fill="#161C2E" />
<rect x="94" y="98" width="1" height="1" fill="#161C2E" />
<rect x="95" y="98" width="1" height="11" fill="#C8A876" />
<rect x="110" y="98" width="1" height="11" fill="#EFE1AB" />
<rect x="120" y="98" width="2" height="2" fill="#654848" />
<rect x="127" y="98" width="1" height="3" fill="#654848" />
<rect x="70" y="99" width="1" height="7" fill="#161C2E" />
<rect x="77" y="99" width="3" height="2" fill="#161C2E" />
<rect x="84" y="99" width="1" height="13" fill="#161C2E" />
<rect x="90" y="99" width="1" height="13" fill="#5E5455" />
<rect x="91" y="99" width="1" height="6" fill="#161C2E" />
<rect x="94" y="99" width="1" height="7" fill="#C8A876" />
<rect x="104" y="99" width="2" height="1" fill="#C8A876" />
<rect x="106" y="99" width="2" height="3" fill="#161C2E" />
<rect x="108" y="99" width="2" height="10" fill="#EFE1AB" />
<rect x="111" y="99" width="2" height="9" fill="#EFE1AB" />
<rect x="114" y="99" width="1" height="7" fill="#EFE1AB" />
<rect x="116" y="99" width="1" height="18" fill="#161C2E" />
<rect x="119" y="99" width="1" height="3" fill="#654848" />
<rect x="122" y="99" width="1" height="1" fill="#654848" />
<rect x="123" y="99" width="2" height="8" fill="#B48150" />
<rect x="125" y="99" width="2" height="1" fill="#654848" />
<rect x="128" y="99" width="1" height="2" fill="#654848" />
<rect x="69" y="100" width="1" height="4" fill="#161C2E" />
<rect x="73" y="100" width="2" height="6" fill="#474144" />
<rect x="85" y="100" width="1" height="12" fill="#161C2E" />
<rect x="93" y="100" width="1" height="4" fill="#C8A876" />
<rect x="96" y="100" width="2" height="2" fill="#161C2E" />
<rect x="98" y="100" width="5" height="1" fill="#C8A876" />
<rect x="103" y="100" width="2" height="2" fill="#161C2E" />
<rect x="105" y="100" width="1" height="1" fill="#C8A876" />
<rect x="118" y="100" width="1" height="2" fill="#654848" />
<rect x="120" y="100" width="1" height="1" fill="#654848" />
<rect x="121" y="100" width="2" height="4" fill="#B48150" />
<rect x="125" y="100" width="1" height="9" fill="#B48150" />
<rect x="126" y="100" width="1" height="1" fill="#654848" />
<rect x="129" y="100" width="3" height="1" fill="#161C2E" />
<rect x="132" y="100" width="1" height="3" fill="#654848" />
<rect x="72" y="101" width="1" height="3" fill="#474144" />
<rect x="75" y="101" width="7" height="3" fill="#474144" />
<rect x="82" y="101" width="2" height="3" fill="#161C2E" />
<rect x="98" y="101" width="5" height="7" fill="#EFE1AB" />
<rect x="105" y="101" width="1" height="2" fill="#161C2E" />
<rect x="117" y="101" width="1" height="1" fill="#654848" />
<rect x="120" y="101" width="1" height="2" fill="#B48150" />
<rect x="126" y="101" width="2" height="1" fill="#B48150" />
<rect x="128" y="101" width="3" height="1" fill="#161C2E" />
<rect x="131" y="101" width="1" height="1" fill="#654848" />
<rect x="133" y="101" width="1" height="6" fill="#654848" />
<rect x="96" y="102" width="1" height="7" fill="#C8A876" />
<rect x="97" y="102" width="1" height="5" fill="#EFE1AB" />
<rect x="103" y="102" width="1" height="8" fill="#EFE1AB" />
<rect x="104" y="102" width="1" height="1" fill="#161C2E" />
<rect x="106" y="102" width="1" height="1" fill="#161C2E" />
<rect x="107" y="102" width="1" height="7" fill="#EFE1AB" />
<rect x="115" y="102" width="1" height="2" fill="#EFE1AB" />
<rect x="117" y="102" width="2" height="1" fill="#161C2E" />
<rect x="119" y="102" width="1" height="2" fill="#B48150" />
<rect x="126" y="102" width="1" height="8" fill="#B48150" />
<rect x="127" y="102" width="3" height="1" fill="#161C2E" />
<rect x="130" y="102" width="2" height="2" fill="#DAB570" />
<rect x="134" y="102" width="1" height="4" fill="#654848" />
<rect x="104" y="103" width="3" height="6" fill="#EFE1AB" />
<rect x="117" y="103" width="1" height="2" fill="#161C2E" />
<rect x="118" y="103" width="1" height="2" fill="#B48150" />
<rect x="120" y="103" width="1" height="7" fill="#866353" />
<rect x="127" y="103" width="2" height="2" fill="#161C2E" />
<rect x="129" y="103" width="1" height="3" fill="#B48150" />
<rect x="132" y="103" width="1" height="2" fill="#DAB570" />
<rect x="72" y="104" width="1" height="4" fill="#161C2E" />
<rect x="75" y="104" width="4" height="1" fill="#474144" />
<rect x="79" y="104" width="1" height="7" fill="#161C2E" />
<rect x="80" y="104" width="3" height="3" fill="#474144" />
<rect x="83" y="104" width="1" height="7" fill="#161C2E" />
<rect x="93" y="104" width="1" height="9" fill="#161C2E" />
<rect x="115" y="104" width="1" height="13" fill="#161C2E" />
<rect x="119" y="104" width="1" height="5" fill="#866353" />
<rect x="121" y="104" width="1" height="7" fill="#866353" />
<rect x="122" y="104" width="1" height="2" fill="#B48150" />
<rect x="130" y="104" width="1" height="2" fill="#B48150" />
<rect x="131" y="104" width="1" height="1" fill="#DAB570" />
<rect x="75" y="105" width="3" height="2" fill="#474144" />
<rect x="78" y="105" width="1" height="5" fill="#161C2E" />
<rect x="91" y="105" width="1" height="6" fill="#5E5455" />
<rect x="117" y="105" width="1" height="3" fill="#B48150" />
<rect x="118" y="105" width="1" height="4" fill="#866353" />
<rect x="127" y="105" width="1" height="5" fill="#B48150" />
<rect x="128" y="105" width="1" height="1" fill="#161C2E" />
<rect x="131" y="105" width="1" height="1" fill="#B48150" />
<rect x="132" y="105" width="1" height="2" fill="#654848" />
<rect x="135" y="105" width="1" height="3" fill="#161C2E" />
<rect x="73" y="106" width="1" height="7" fill="#161C2E" />
<rect x="74" y="106" width="1" height="1" fill="#474144" />
<rect x="94" y="106" width="1" height="6" fill="#161C2E" />
<rect x="114" y="106" width="1" height="3" fill="#161C2E" />
<rect x="122" y="106" width="1" height="6" fill="#866353" />
<rect x="128" y="106" width="1" height="5" fill="#B48150" />
<rect x="129" y="106" width="3" height="1" fill="#654848" />
<rect x="134" y="106" width="1" height="2" fill="#161C2E" />
<rect x="136" y="106" width="1" height="3" fill="#161C2E" />
<rect x="74" y="107" width="4" height="3" fill="#161C2E" />
<rect x="80" y="107" width="2" height="1" fill="#474144" />
<rect x="82" y="107" width="1" height="4" fill="#161C2E" />
<rect x="92" y="107" width="1" height="3" fill="#5E5455" />
<rect x="97" y="107" width="1" height="2" fill="#C8A876" />
<rect x="113" y="107" width="1" height="3" fill="#161C2E" />
<rect x="123" y="107" width="1" height="6" fill="#866353" />
<rect x="124" y="107" width="1" height="1" fill="#B48150" />
<rect x="129" y="107" width="1" height="4" fill="#B48150" />
<rect x="130" y="107" width="2" height="1" fill="#654848" />
<rect x="132" y="107" width="2" height="3" fill="#B48150" />
<rect x="137" y="107" width="1" height="4" fill="#161C2E" />
<rect x="80" y="108" width="2" height="10" fill="#161C2E" />
<rect x="98" y="108" width="1" height="2" fill="#C8A876" />
<rect x="99" y="108" width="4" height="1" fill="#EFE1AB" />
<rect x="111" y="108" width="2" height="3" fill="#161C2E" />
<rect x="117" y="108" width="1" height="5" fill="#161C2E" />
<rect x="124" y="108" width="1" height="6" fill="#866353" />
<rect x="130" y="108" width="2" height="3" fill="#B48150" />
<rect x="134" y="108" width="1" height="1" fill="#B48150" />
<rect x="135" y="108" width="1" height="2" fill="#654848" />
<rect x="138" y="108" width="1" height="8" fill="#161C2E" />
<rect x="95" y="109" width="3" height="3" fill="#161C2E" />
<rect x="99" y="109" width="1" height="1" fill="#C8A876" />
<rect x="100" y="109" width="3" height="1" fill="#EFE1AB" />
<rect x="104" y="109" width="1" height="1" fill="#EFE1AB" />
<rect x="105" y="109" width="6" height="2" fill="#161C2E" />
<rect x="114" y="109" width="1" height="4" fill="#485884" />
<rect x="118" y="109" width="2" height="3" fill="#161C2E" />
<rect x="125" y="109" width="1" height="6" fill="#866353" />
<rect x="134" y="109" width="1" height="1" fill="#654848" />
<rect x="136" y="109" width="1" height="1" fill="#654848" />
<rect x="72" y="110" width="1" height="8" fill="#161C2E" />
<rect x="74" y="110" width="1" height="1" fill="#161C2E" />
<rect x="75" y="110" width="4" height="4" fill="#C8A876" />
<rect x="86" y="110" width="1" height="3" fill="#161C2E" />
<rect x="92" y="110" width="1" height="4" fill="#161C2E" />
<rect x="98" y="110" width="7" height="2" fill="#161C2E" />
<rect x="113" y="110" width="1" height="5" fill="#485884" />
<rect x="120" y="110" width="1" height="6" fill="#161C2E" />
<rect x="126" y="110" width="2" height="3" fill="#866353" />
<rect x="132" y="110" width="5" height="2" fill="#DAB570" />
<rect x="139" y="110" width="1" height="4" fill="#161C2E" />
<rect x="74" y="111" width="1" height="6" fill="#C8A876" />
<rect x="79" y="111" width="1" height="2" fill="#C8A876" />
<rect x="82" y="111" width="2" height="5" fill="#485884" />
<rect x="87" y="111" width="2" height="3" fill="#161C2E" />
<rect x="89" y="111" width="1" height="1" fill="#5E5455" />
<rect x="91" y="111" width="1" height="3" fill="#161C2E" />
<rect x="105" y="111" width="5" height="1" fill="#161C2E" />
<rect x="110" y="111" width="3" height="2" fill="#485884" />
<rect x="121" y="111" width="1" height="4" fill="#161C2E" />
<rect x="128" y="111" width="2" height="1" fill="#866353" />
<rect x="130" y="111" width="2" height="2" fill="#DAB570" />
<rect x="137" y="111" width="1" height="2" fill="#DAB570" />
<rect x="71" y="112" width="1" height="5" fill="#161C2E" />
<rect x="84" y="112" width="2" height="6" fill="#485884" />
<rect x="89" y="112" width="2" height="2" fill="#161C2E" />
<rect x="94" y="112" width="16" height="1" fill="#485884" />
<rect x="118" y="112" width="2" height="2" fill="#C8A876" />
<rect x="122" y="112" width="1" height="3" fill="#161C2E" />
<rect x="128" y="112" width="1" height="1" fill="#866353" />
<rect x="129" y="112" width="1" height="3" fill="#DAB570" />
<rect x="132" y="112" width="1" height="2" fill="#DAB570" />
<rect x="133" y="112" width="3" height="3" fill="#B48150" />
<rect x="136" y="112" width="1" height="3" fill="#DAB570" />
<rect x="73" y="113" width="1" height="3" fill="#C8A876" />
<rect x="79" y="113" width="1" height="4" fill="#161C2E" />
<rect x="86" y="113" width="1" height="6" fill="#485884" />
<rect x="93" y="113" width="9" height="1" fill="#485884" />
<rect x="102" y="113" width="10" height="2" fill="#4697AC" />
<rect x="112" y="113" width="1" height="4" fill="#485884" />
<rect x="114" y="113" width="1" height="5" fill="#161C2E" />
<rect x="117" y="113" width="1" height="2" fill="#C8A876" />
<rect x="123" y="113" width="1" height="3" fill="#161C2E" />
<rect x="126" y="113" width="1" height="1" fill="#866353" />
<rect x="127" y="113" width="1" height="4" fill="#654848" />
<rect x="128" y="113" width="1" height="5" fill="#DAB570" />
<rect x="130" y="113" width="1" height="1" fill="#DAB570" />
<rect x="131" y="113" width="1" height="4" fill="#B48150" />
<rect x="137" y="113" width="1" height="4" fill="#161C2E" />
<rect x="75" y="114" width="3" height="2" fill="#C8A876" />
<rect x="78" y="114" width="1" height="5" fill="#161C2E" />
<rect x="87" y="114" width="8" height="6" fill="#485884" />
<rect x="95" y="114" width="7" height="2" fill="#4697AC" />
<rect x="118" y="114" width="1" height="1" fill="#C8A876" />
<rect x="119" y="114" width="1" height="10" fill="#161C2E" />
<rect x="124" y="114" width="1" height="3" fill="#161C2E" />
<rect x="126" y="114" width="1" height="2" fill="#654848" />
<rect x="130" y="114" width="1" height="3" fill="#B48150" />
<rect x="132" y="114" width="1" height="3" fill="#B48150" />
<rect x="102" y="115" width="9" height="1" fill="#4697AC" />
<rect x="111" y="115" width="1" height="3" fill="#485884" />
<rect x="113" y="115" width="1" height="8" fill="#161C2E" />
<rect x="117" y="115" width="2" height="2" fill="#161C2E" />
<rect x="121" y="115" width="2" height="4" fill="#C8A876" />
<rect x="125" y="115" width="1" height="5" fill="#161C2E" />
<rect x="129" y="115" width="1" height="2" fill="#B48150" />
<rect x="133" y="115" width="1" height="2" fill="#B48150" />
<rect x="134" y="115" width="2" height="1" fill="#DAB570" />
<rect x="136" y="115" width="1" height="3" fill="#161C2E" />
<rect x="73" y="116" width="1" height="3" fill="#161C2E" />
<rect x="75" y="116" width="2" height="2" fill="#C8A876" />
<rect x="77" y="116" width="1" height="4" fill="#161C2E" />
<rect x="82" y="116" width="1" height="4" fill="#161C2E" />
<rect x="83" y="116" width="1" height="1" fill="#485884" />
<rect x="95" y="116" width="1" height="5" fill="#485884" />
<rect x="96" y="116" width="13" height="1" fill="#4697AC" />
<rect x="109" y="116" width="2" height="2" fill="#485884" />
<rect x="120" y="116" width="1" height="2" fill="#C8A876" />
<rect x="123" y="116" width="1" height="3" fill="#C8A876" />
<rect x="126" y="116" width="1" height="4" fill="#161C2E" />
<rect x="134" y="116" width="1" height="1" fill="#B48150" />
<rect x="135" y="116" width="1" height="3" fill="#161C2E" />
<rect x="74" y="117" width="1" height="3" fill="#161C2E" />
<rect x="83" y="117" width="1" height="4" fill="#161C2E" />
<rect x="96" y="117" width="13" height="2" fill="#485884" />
<rect x="112" y="117" width="1" height="4" fill="#161C2E" />
<rect x="115" y="117" width="3" height="4" fill="#866353" />
<rect x="118" y="117" width="1" height="2" fill="#161C2E" />
<rect x="124" y="117" width="1" height="1" fill="#C8A876" />
<rect x="127" y="117" width="1" height="4" fill="#161C2E" />
<rect x="129" y="117" width="4" height="1" fill="#DAB570" />
<rect x="133" y="117" width="2" height="3" fill="#161C2E" />
<rect x="75" y="118" width="2" height="2" fill="#161C2E" />
<rect x="81" y="118" width="1" height="1" fill="#161C2E" />
<rect x="84" y="118" width="1" height="3" fill="#161C2E" />
<rect x="85" y="118" width="1" height="1" fill="#485884" />
<rect x="109" y="118" width="1" height="1" fill="#485884" />
<rect x="110" y="118" width="2" height="2" fill="#161C2E" />
<rect x="114" y="118" width="1" height="2" fill="#866353" />
<rect x="120" y="118" width="1" height="5" fill="#161C2E" />
<rect x="124" y="118" width="1" height="2" fill="#161C2E" />
<rect x="128" y="118" width="1" height="3" fill="#161C2E" />
<rect x="129" y="118" width="2" height="1" fill="#DAB570" />
<rect x="131" y="118" width="2" height="3" fill="#161C2E" />
<rect x="85" y="119" width="2" height="3" fill="#161C2E" />
<rect x="96" y="119" width="12" height="1" fill="#485884" />
<rect x="108" y="119" width="2" height="2" fill="#161C2E" />
<rect x="118" y="119" width="1" height="2" fill="#866353" />
<rect x="121" y="119" width="3" height="2" fill="#161C2E" />
<rect x="129" y="119" width="2" height="2" fill="#161C2E" />
<rect x="87" y="120" width="3" height="3" fill="#161C2E" />
<rect x="90" y="120" width="5" height="1" fill="#485884" />
<rect x="96" y="120" width="7" height="1" fill="#485884" />
<rect x="103" y="120" width="5" height="2" fill="#161C2E" />
<rect x="110" y="120" width="1" height="1" fill="#161C2E" />
<rect x="111" y="120" width="1" height="13" fill="#161C2E" opacity="0.270588" />
<rect x="114" y="120" width="1" height="4" fill="#161C2E" />
<rect x="81" y="121" width="4" height="11" fill="#161C2E" opacity="0.270588" />
<rect x="90" y="121" width="13" height="2" fill="#161C2E" />
<rect x="108" y="121" width="1" height="1" fill="#161C2E" />
<rect x="109" y="121" width="2" height="12" fill="#161C2E" opacity="0.270588" />
<rect x="112" y="121" width="1" height="11" fill="#161C2E" opacity="0.270588" />
<rect x="115" y="121" width="1" height="4" fill="#161C2E" />
<rect x="116" y="121" width="2" height="1" fill="#866353" />
<rect x="118" y="121" width="1" height="4" fill="#161C2E" />
<rect x="80" y="122" width="1" height="9" fill="#161C2E" opacity="0.270588" />
<rect x="85" y="122" width="2" height="11" fill="#161C2E" opacity="0.270588" />
<rect x="103" y="122" width="4" height="1" fill="#161C2E" />
<rect x="107" y="122" width="2" height="12" fill="#161C2E" opacity="0.270588" />
<rect x="116" y="122" width="2" height="3" fill="#161C2E" />
<rect x="79" y="123" width="1" height="7" fill="#161C2E" opacity="0.270588" />
<rect x="87" y="123" width="3" height="2" fill="#161C2E" opacity="0.270588" />
<rect x="90" y="123" width="2" height="5" fill="#161C2E" />
<rect x="92" y="123" width="10" height="1" fill="#161C2E" opacity="0.270588" />
<rect x="102" y="123" width="2" height="4" fill="#161C2E" />
<rect x="104" y="123" width="3" height="1" fill="#161C2E" opacity="0.270588" />
<rect x="113" y="123" width="1" height="9" fill="#161C2E" opacity="0.270588" />
<rect x="78" y="124" width="1" height="5" fill="#161C2E" opacity="0.270588" />
<rect x="92" y="124" width="1" height="4" fill="#161C2E" />
<rect x="93" y="124" width="8" height="2" fill="#161C2E" opacity="0.270588" />
<rect x="101" y="124" width="1" height="3" fill="#161C2E" />
<rect x="104" y="124" width="1" height="3" fill="#161C2E" />
<rect x="105" y="124" width="2" height="1" fill="#161C2E" opacity="0.270588" />
<rect x="114" y="124" width="1" height="7" fill="#161C2E" opacity="0.270588" />
<rect x="87" y="125" width="2" height="1" fill="#161C2E" opacity="0.270588" />
<rect x="89" y="125" width="1" height="3" fill="#161C2E" />
<rect x="105" y="125" width="1" height="2" fill="#161C2E" />
<rect x="106" y="125" width="1" height="1" fill="#161C2E" opacity="0.270588" />
<rect x="115" y="125" width="2" height="4" fill="#161C2E" opacity="0.270588" />
<rect x="87" y="126" width="1" height="1" fill="#161C2E" opacity="0.270588" />
<rect x="88" y="126" width="1" height="2" fill="#161C2E" />
<rect x="93" y="126" width="1" height="2" fill="#161C2E" />
<rect x="94" y="126" width="7" height="9" fill="#161C2E" opacity="0.270588" />
<rect x="106" y="126" width="1" height="1" fill="#161C2E" />
<rect x="87" y="127" width="1" height="1" fill="#161C2E" />
<rect x="101" y="127" width="6" height="7" fill="#161C2E" opacity="0.270588" />
<rect x="87" y="128" width="7" height="6" fill="#161C2E" opacity="0.270588" />
<rect x="115" y="129" width="1" height="1" fill="#161C2E" opacity="0.270588" />
<rect x="83" y="132" width="2" height="1" fill="#161C2E" opacity="0.270588" />
<rect x="86" y="133" width="1" height="1" fill="#161C2E" opacity="0.270588" />
<rect x="91" y="134" width="3" height="1" fill="#161C2E" opacity="0.270588" />
<rect x="101" y="134" width="3" height="1" fill="#161C2E" opacity="0.270588" />
</svg>