<?xml version="1.0" encoding="UTF-8" ?>
<svg version="1.1" width="192" height="192" xmlns="http://www.w3.org/2000/svg" shape-rendering="crispEdges">
<rect x="84" y="62" width="8" height="2" fill="#5E5455" />
<rect x="78" y="63" width="3" height="1" fill="#161C2E" />
<rect x="81" y="63" width="3" height="3" fill="#5E5455" />
<rect x="92" y="63" width="1" height="3" fill="#5E5455" />
<rect x="76" y="64" width="4" height="1" fill="#161C2E" />
<rect x="80" y="64" width="1" height="2" fill="#5E5455" />
<rect x="84" y="64" width="4" height="1" fill="#5E5455" />
<rect x="88" y="64" width="3" height="4" fill="#977B6B" />
<rect x="91" y="64" width="1" height="1" fill="#5E5455" />
<rect x="93" y="64" width="1" height="4" fill="#5E5455" />
<rect x="112" y="64" width="3" height="1" fill="#161C2E" />
<rect x="115" y="64" width="6" height="2" fill="#654848" />
<rect x="74" y="65" width="5" height="1" fill="#161C2E" />
<rect x="79" y="65" width="1" height="1" fill="#5E5455" />
<rect x="84" y="65" width="2" height="2" fill="#5E5455" />
<rect x="86" y="65" width="2" height="1" fill="#977B6B" />
<rect x="91" y="65" width="1" height="3" fill="#977B6B" />
<rect x="94" y="65" width="1" height="3" fill="#5E5455" />
<rect x="104" y="65" width="10" height="1" fill="#161C2E" />
<rect x="114" y="65" width="1" height="3" fill="#654848" />
<rect x="121" y="65" width="2" height="2" fill="#654848" />
<rect x="72" y="66" width="5" height="1" fill="#161C2E" />
<rect x="77" y="66" width="6" height="7" fill="#977B6B" />
<rect x="83" y="66" width="1" height="1" fill="#5E5455" />
<rect x="86" y="66" width="1" height="2" fill="#5E5455" />
<rect x="87" y="66" width="1" height="1" fill="#977B6B" />
<rect x="92" y="66" width="1" height="2" fill="#977B6B" />
<rect x="95" y="66" width="1" height="1" fill="#5E5455" />
<rect x="99" y="66" width="14" height="1" fill="#161C2E" />
<rect x="113" y="66" width="1" height="3" fill="#654848" />
<rect x="115" y="66" width="5" height="1" fill="#866353" />
<rect x="120" y="66" width="1" height="1" fill="#654848" />
<rect x="123" y="66" width="1" height="5" fill="#654848" />
<rect x="71" y="67" width="4" height="1" fill="#161C2E" />
<rect x="75" y="67" width="2" height="6" fill="#977B6B" />
<rect x="83" y="67" width="2" height="4" fill="#977B6B" />
<rect x="85" y="67" width="1" height="1" fill="#5E5455" />
<rect x="87" y="67" width="1" height="1" fill="#5E5455" />
<rect x="95" y="67" width="12" height="1" fill="#161C2E" />
<rect x="107" y="67" width="2" height="3" fill="#866353" />
<rect x="109" y="67" width="3" height="1" fill="#161C2E" />
<rect x="112" y="67" width="1" height="3" fill="#654848" />
<rect x="115" y="67" width="2" height="1" fill="#866353" />
<rect x="117" y="67" width="5" height="2" fill="#B48150" />
<rect x="122" y="67" width="1" height="1" fill="#654848" />
<rect x="124" y="67" width="1" height="4" fill="#654848" />
<rect x="71" y="68" width="3" height="1" fill="#161C2E" />
<rect x="74" y="68" width="1" height="7" fill="#5E5455" />
<rect x="85" y="68" width="5" height="1" fill="#977B6B" />
<rect x="90" y="68" width="13" height="1" fill="#161C2E" />
<rect x="103" y="68" width="4" height="1" fill="#866353" />
<rect x="109" y="68" width="2" height="1" fill="#161C2E" />
<rect x="111" y="68" width="1" height="2" fill="#654848" />
<rect x="114" y="68" width="1" height="1" fill="#866353" />
<rect x="115" y="68" width="2" height="5" fill="#B48150" />
<rect x="122" y="68" width="1" height="1" fill="#866353" />
<rect x="70" y="69" width="3" height="1" fill="#161C2E" />
<rect x="73" y="69" width="1" height="5" fill="#5E5455" />
<rect x="85" y="69" width="2" height="1" fill="#977B6B" />
<rect x="87" y="69" width="11" height="1" fill="#161C2E" />
<rect x="98" y="69" width="2" height="2" fill="#866353" />
<rect x="100" y="69" width="4" height="5" fill="#B48150" />
<rect x="104" y="69" width="3" height="1" fill="#866353" />
<rect x="109" y="69" width="1" height="1" fill="#161C2E" />
<rect x="110" y="69" width="1" height="2" fill="#654848" />
<rect x="113" y="69" width="1" height="1" fill="#866353" />
<rect x="114" y="69" width="1" height="6" fill="#B48150" />
<rect x="117" y="69" width="2" height="1" fill="#B48150" />
<rect x="119" y="69" width="3" height="1" fill="#866353" />
<rect x="122" y="69" width="1" height="2" fill="#654848" />
<rect x="125" y="69" width="1" height="3" fill="#654848" />
<rect x="70" y="70" width="2" height="4" fill="#161C2E" />
<rect x="72" y="70" width="1" height="3" fill="#5E5455" />
<rect x="85" y="70" width="8" height="1" fill="#161C2E" />
<rect x="93" y="70" width="5" height="1" fill="#866353" />
<rect x="104" y="70" width="1" height="3" fill="#B48150" />
<rect x="105" y="70" width="3" height="1" fill="#866353" />
<rect x="108" y="70" width="2" height="1" fill="#654848" />
<rect x="111" y="70" width="2" height="1" fill="#866353" />
<rect x="113" y="70" width="1" height="7" fill="#B48150" />
<rect x="117" y="70" width="1" height="9" fill="#B48150" />
<rect x="118" y="70" width="3" height="1" fill="#866353" />
<rect x="121" y="70" width="1" height="1" fill="#654848" />
<rect x="126" y="70" width="1" height="8" fill="#654848" />
<rect x="83" y="71" width="1" height="1" fill="#977B6B" />
<rect x="84" y="71" width="6" height="1" fill="#161C2E" />
<rect x="90" y="71" width="4" height="1" fill="#B48150" />
<rect x="94" y="71" width="5" height="1" fill="#866353" />
<rect x="99" y="71" width="1" height="5" fill="#B48150" />
<rect x="105" y="71" width="2" height="4" fill="#866353" />
<rect x="107" y="71" width="2" height="1" fill="#654848" />
<rect x="109" y="71" width="3" height="2" fill="#866353" />
<rect x="112" y="71" width="1" height="9" fill="#B48150" />
<rect x="118" y="71" width="1" height="1" fill="#866353" />
<rect x="119" y="71" width="6" height="1" fill="#B48150" />
<rect x="127" y="71" width="1" height="6" fill="#654848" />
<rect x="83" y="72" width="4" height="1" fill="#161C2E" />
<rect x="87" y="72" width="4" height="3" fill="#DAB570" />
<rect x="91" y="72" width="4" height="1" fill="#B48150" />
<rect x="95" y="72" width="3" height="1" fill="#866353" />
<rect x="98" y="72" width="1" height="4" fill="#B48150" />
<rect x="107" y="72" width="2" height="1" fill="#866353" />
<rect x="118" y="72" width="3" height="1" fill="#B48150" />
<rect x="121" y="72" width="2" height="3" fill="#866353" />
<rect x="123" y="72" width="3" height="5" fill="#B48150" />
<rect x="72" y="73" width="1" height="4" fill="#161C2E" />
<rect x="75" y="73" width="1" height="2" fill="#5E5455" />
<rect x="76" y="73" width="6" height="1" fill="#977B6B" />
<rect x="82" y="73" width="4" height="1" fill="#161C2E" />
<rect x="86" y="73" width="1" height="3" fill="#DAB570" />
<rect x="91" y="73" width="1" height="3" fill="#DAB570" />
<rect x="92" y="73" width="6" height="1" fill="#B48150" />
<rect x="104" y="73" width="1" height="3" fill="#866353" />
<rect x="107" y="73" width="1" height="1" fill="#866353" />
<rect x="108" y="73" width="1" height="5" fill="#B48150" />
<rect x="109" y="73" width="2" height="3" fill="#866353" />
<rect x="111" y="73" width="1" height="8" fill="#B48150" />
<rect x="115" y="73" width="1" height="1" fill="#B48150" />
<rect x="116" y="73" width="1" height="1" fill="#866353" />
<rect x="118" y="73" width="1" height="1" fill="#B48150" />
<rect x="119" y="73" width="2" height="4" fill="#866353" />
<rect x="71" y="74" width="1" height="2" fill="#161C2E" />
<rect x="73" y="74" width="1" height="4" fill="#161C2E" />
<rect x="76" y="74" width="2" height="2" fill="#5E5455" />
<rect x="78" y="74" width="4" height="1" fill="#977B6B" />
<rect x="82" y="74" width="3" height="1" fill="#161C2E" />
<rect x="85" y="74" width="1" height="3" fill="#DAB570" />
<rect x="92" y="74" width="1" height="2" fill="#DAB570" />
<rect x="93" y="74" width="5" height="1" fill="#B48150" />
<rect x="100" y="74" width="3" height="1" fill="#B48150" />
<rect x="103" y="74" width="1" height="2" fill="#866353" />
<rect x="107" y="74" width="1" height="5" fill="#B48150" />
<rect x="115" y="74" width="1" height="5" fill="#866353" />
<rect x="116" y="74" width="1" height="5" fill="#B48150" />
<rect x="118" y="74" width="1" height="3" fill="#866353" />
<rect x="74" y="75" width="2" height="6" fill="#161C2E" />
<rect x="78" y="75" width="3" height="8" fill="#5E5455" />
<rect x="81" y="75" width="3" height="2" fill="#161C2E" />
<rect x="84" y="75" width="1" height="3" fill="#DAB570" />
<rect x="87" y="75" width="4" height="1" fill="#B48150" />
<rect x="93" y="75" width="1" height="3" fill="#DAB570" />
<rect x="94" y="75" width="4" height="1" fill="#B48150" />
<rect x="100" y="75" width="3" height="2" fill="#866353" />
<rect x="105" y="75" width="1" height="1" fill="#866353" />
<rect x="106" y="75" width="1" height="4" fill="#B48150" />
<rect x="114" y="75" width="1" height="6" fill="#866353" />
<rect x="121" y="75" width="1" height="1" fill="#866353" />
<rect x="122" y="75" width="1" height="3" fill="#B48150" />
<rect x="76" y="76" width="1" height="9" fill="#161C2E" />
<rect x="77" y="76" width="1" height="2" fill="#5E5455" />
<rect x="86" y="76" width="3" height="2" fill="#B48150" />
<rect x="89" y="76" width="3" height="2" fill="#866353" />
<rect x="92" y="76" width="1" height="1" fill="#B48150" />
<rect x="94" y="76" width="1" height="11" fill="#DAB570" />
<rect x="95" y="76" width="1" height="1" fill="#B48150" />
<rect x="96" y="76" width="4" height="3" fill="#866353" />
<rect x="103" y="76" width="3" height="4" fill="#B48150" />
<rect x="109" y="76" width="1" height="2" fill="#866353" />
<rect x="110" y="76" width="1" height="5" fill="#B48150" />
<rect x="121" y="76" width="1" height="2" fill="#B48150" />
<rect x="81" y="77" width="2" height="8" fill="#161C2E" />
<rect x="83" y="77" width="1" height="7" fill="#DAB570" />
<rect x="85" y="77" width="1" height="5" fill="#B48150" />
<rect x="92" y="77" width="1" height="5" fill="#866353" />
<rect x="95" y="77" width="1" height="2" fill="#866353" />
<rect x="100" y="77" width="1" height="1" fill="#866353" />
<rect x="101" y="77" width="2" height="5" fill="#B48150" />
<rect x="113" y="77" width="1" height="5" fill="#866353" />
<rect x="118" y="77" width="3" height="1" fill="#B48150" />
<rect x="123" y="77" width="1" height="1" fill="#B48150" />
<rect x="124" y="77" width="2" height="2" fill="#866353" />
<rect x="127" y="77" width="1" height="3" fill="#161C2E" />
<rect x="77" y="78" width="1" height="5" fill="#161C2E" />
<rect x="84" y="78" width="1" height="3" fill="#B48150" />
<rect x="86" y="78" width="1" height="1" fill="#B48150" />
<rect x="87" y="78" width="3" height="2" fill="#DAB570" />
<rect x="90" y="78" width="2" height="1" fill="#866353" />
<rect x="93" y="78" width="1" height="4" fill="#866353" />
<rect x="100" y="78" width="1" height="6" fill="#B48150" />
<rect x="108" y="78" width="1" height="1" fill="#866353" />
<rect x="109" y="78" width="1" height="4" fill="#B48150" />
<rect x="118" y="78" width="2" height="1" fill="#B48150" />
<rect x="120" y="78" width="4" height="2" fill="#866353" />
<rect x="126" y="78" width="1" height="8" fill="#161C2E" />
<rect x="86" y="79" width="1" height="1" fill="#DAB570" />
<rect x="90" y="79" width="1" height="6" fill="#DAB570" />
<rect x="91" y="79" width="1" height="1" fill="#866353" />
<rect x="95" y="79" width="1" height="7" fill="#DAB570" />
<rect x="96" y="79" width="1" height="6" fill="#654848" />
<rect x="97" y="79" width="2" height="2" fill="#866353" />
<rect x="99" y="79" width="1" height="5" fill="#B48150" />
<rect x="106" y="79" width="2" height="2" fill="#866353" />
<rect x="108" y="79" width="1" height="3" fill="#B48150" />
<rect x="115" y="79" width="1" height="4" fill="#654848" />
<rect x="116" y="79" width="4" height="3" fill="#866353" />
<rect x="124" y="79" width="1" height="2" fill="#866353" />
<rect x="125" y="79" width="1" height="1" fill="#654848" />
<rect x="86" y="80" width="2" height="2" fill="#B48150" />
<rect x="88" y="80" width="2" height="1" fill="#DAB570" />
<rect x="91" y="80" width="1" height="4" fill="#DAB570" />
<rect x="103" y="80" width="1" height="1" fill="#B48150" />
<rect x="104" y="80" width="2" height="2" fill="#866353" />
<rect x="112" y="80" width="1" height="3" fill="#866353" />
<rect x="120" y="80" width="1" height="1" fill="#866353" />
<rect x="121" y="80" width="1" height="3" fill="#654848" />
<rect x="122" y="80" width="2" height="2" fill="#866353" />
<rect x="125" y="80" width="1" height="8" fill="#161C2E" />
<rect x="75" y="81" width="1" height="6" fill="#161C2E" />
<rect x="84" y="81" width="1" height="5" fill="#DAB570" />
<rect x="88" y="81" width="2" height="1" fill="#B48150" />
<rect x="97" y="81" width="1" height="4" fill="#654848" />
<rect x="98" y="81" width="1" height="3" fill="#B48150" />
<rect x="103" y="81" width="1" height="1" fill="#866353" />
<rect x="106" y="81" width="1" height="6" fill="#866353" />
<rect x="107" y="81" width="1" height="1" fill="#B48150" />
<rect x="110" y="81" width="2" height="3" fill="#866353" />
<rect x="114" y="81" width="1" height="4" fill="#654848" />
<rect x="120" y="81" width="1" height="2" fill="#654848" />
<rect x="124" y="81" width="1" height="3" fill="#161C2E" />
<rect x="85" y="82" width="5" height="1" fill="#DAB570" />
<rect x="92" y="82" width="2" height="3" fill="#B48150" />
<rect x="101" y="82" width="1" height="1" fill="#B48150" />
<rect x="102" y="82" width="1" height="1" fill="#866353" />
<rect x="103" y="82" width="3" height="2" fill="#654848" />
<rect x="107" y="82" width="3" height="3" fill="#866353" />
<rect x="113" y="82" width="1" height="3" fill="#654848" />
<rect x="116" y="82" width="3" height="2" fill="#866353" />
<rect x="119" y="82" width="1" height="1" fill="#654848" />
<rect x="122" y="82" width="2" height="2" fill="#161C2E" />
<rect x="77" y="83" width="2" height="1" fill="#5E5455" />
<rect x="79" y="83" width="2" height="2" fill="#161C2E" />
<rect x="85" y="83" width="1" height="4" fill="#DAB570" />
<rect x="86" y="83" width="1" height="2" fill="#B48150" />
<rect x="87" y="83" width="3" height="1" fill="#DAB570" />
<rect x="101" y="83" width="1" height="1" fill="#866353" />
<rect x="102" y="83" width="1" height="3" fill="#654848" />
<rect x="112" y="83" width="1" height="3" fill="#654848" />
<rect x="115" y="83" width="1" height="2" fill="#866353" />
<rect x="119" y="83" width="3" height="2" fill="#161C2E" />
<rect x="74" y="84" width="1" height="5" fill="#161C2E" />
<rect x="77" y="84" width="1" height="2" fill="#5E5455" />
<rect x="78" y="84" width="1" height="9" fill="#161C2E" />
<rect x="83" y="84" width="1" height="2" fill="#161C2E" />
<rect x="87" y="84" width="1" height="2" fill="#B48150" />
<rect x="88" y="84" width="2" height="1" fill="#DAB570" />
<rect x="91" y="84" width="1" height="2" fill="#B48150" />
<rect x="98" y="84" width="3" height="1" fill="#866353" />
<rect x="101" y="84" width="1" height="3" fill="#654848" />
<rect x="103" y="84" width="2" height="1" fill="#654848" />
<rect x="105" y="84" width="1" height="3" fill="#866353" />
<rect x="110" y="84" width="1" height="1" fill="#866353" />
<rect x="111" y="84" width="1" height="2" fill="#654848" />
<rect x="116" y="84" width="3" height="2" fill="#161C2E" />
<rect x="122" y="84" width="1" height="1" fill="#161C2E" />
<rect x="123" y="84" width="2" height="1" fill="#C8A876" />
<rect x="76" y="85" width="1" height="11" fill="#5E5455" />
<rect x="79" y="85" width="1" height="1" fill="#161C2E" />
<rect x="80" y="85" width="2" height="7" fill="#C8A876" />
<rect x="82" y="85" width="1" height="1" fill="#161C2E" />
<rect x="86" y="85" width="1" height="3" fill="#DAB570" />
<rect x="88" y="85" width="3" height="2" fill="#B48150" />
<rect x="92" y="85" width="1" height="1" fill="#B48150" />
<rect x="93" y="85" width="1" height="3" fill="#DAB570" />
<rect x="96" y="85" width="1" height="3" fill="#161C2E" />
<rect x="97" y="85" width="3" height="4" fill="#866353" />
<rect x="100" y="85" width="1" height="3" fill="#654848" />
<rect x="103" y="85" width="1" height="3" fill="#654848" />
<rect x="104" y="85" width="1" height="2" fill="#866353" />
<rect x="107" y="85" width="2" height="1" fill="#866353" />
<rect x="109" y="85" width="2" height="1" fill="#654848" />
<rect x="113" y="85" width="3" height="3" fill="#161C2E" />
<rect x="119" y="85" width="1" height="1" fill="#161C2E" />
<rect x="120" y="85" width="4" height="2" fill="#C8A876" />
<rect x="124" y="85" width="1" height="4" fill="#161C2E" />
<rect x="73" y="86" width="1" height="5" fill="#161C2E" />
<rect x="77" y="86" width="1" height="6" fill="#161C2E" />
<rect x="79" y="86" width="1" height="5" fill="#C8A876" />
<rect x="82" y="86" width="3" height="7" fill="#C8A876" />
<rect x="87" y="86" width="1" height="2" fill="#DAB570" />
<rect x="91" y="86" width="2" height="3" fill="#DAB570" />
<rect x="95" y="86" width="1" height="6" fill="#161C2E" />
<rect x="102" y="86" width="1" height="4" fill="#161C2E" />
<rect x="107" y="86" width="1" height="1" fill="#866353" />
<rect x="108" y="86" width="1" height="1" fill="#654848" />
<rect x="109" y="86" width="4" height="2" fill="#161C2E" />
<rect x="116" y="86" width="1" height="1" fill="#161C2E" />
<rect x="117" y="86" width="3" height="3" fill="#C8A876" />
<rect x="75" y="87" width="1" height="2" fill="#977B6B" />
<rect x="85" y="87" width="1" height="6" fill="#C8A876" />
<rect x="88" y="87" width="3" height="1" fill="#DAB570" />
<rect x="94" y="87" width="1" height="5" fill="#161C2E" />
<rect x="101" y="87" width="1" height="4" fill="#161C2E" />
<rect x="104" y="87" width="5" height="2" fill="#161C2E" />
<rect x="116" y="87" width="1" height="1" fill="#C8A876" />
<rect x="120" y="87" width="3" height="1" fill="#C8A876" />
<rect x="123" y="87" width="1" height="3" fill="#161C2E" />
<rect x="72" y="88" width="1" height="11" fill="#161C2E" />
<rect x="86" y="88" width="1" height="5" fill="#C8A876" />
<rect x="87" y="88" width="3" height="1" fill="#161C2E" />
<rect x="90" y="88" width="1" height="1" fill="#DAB570" />
<rect x="93" y="88" width="1" height="4" fill="#161C2E" />
<rect x="96" y="88" width="1" height="1" fill="#866353" />
<rect x="100" y="88" width="1" height="3" fill="#161C2E" />
<rect x="103" y="88" width="1" height="2" fill="#161C2E" />
<rect x="109" y="88" width="5" height="3" fill="#977B6B" />
<rect x="114" y="88" width="3" height="1" fill="#161C2E" />
<rect x="120" y="88" width="1" height="1" fill="#C8A876" />
<rect x="121" y="88" width="2" height="2" fill="#161C2E" />
<rect x="71" y="89" width="1" height="6" fill="#161C2E" />
<rect x="74" y="89" width="1" height="8" fill="#977B6B" />
<rect x="75" y="89" width="1" height="6" fill="#5E5455" />
<rect x="87" y="89" width="1" height="4" fill="#C8A876" />
<rect x="88" y="89" width="5" height="1" fill="#161C2E" />
<rect x="96" y="89" width="4" height="2" fill="#161C2E" />
<rect x="104" y="89" width="2" height="1" fill="#161C2E" />
<rect x="106" y="89" width="3" height="2" fill="#977B6B" />
<rect x="114" y="89" width="1" height="4" fill="#977B6B" />
<rect x="115" y="89" width="6" height="1" fill="#161C2E" />
<rect x="88" y="90" width="1" height="2" fill="#C8A876" />
<rect x="89" y="90" width="4" height="2" fill="#161C2E" />
<rect x="102" y="90" width="2" height="3" fill="#977B6B" />
<rect x="104" y="90" width="2" height="1" fill="#5E5455" />
<rect x="115" y="90" width="1" height="3" fill="#977B6B" />
<rect x="116" y="90" width="6" height="1" fill="#161C2E" />
<rect x="73" y="91" width="1" height="4" fill="#977B6B" />
<rect x="79" y="91" width="1" height="3" fill="#161C2E" />
<rect x="96" y="91" width="2" height="1" fill="#161C2E" />
<rect x="98" y="91" width="4" height="2" fill="#977B6B" />
<rect x="104" y="91" width="4" height="1" fill="#977B6B" />
<rect x="108" y="91" width="3" height="2" fill="#5E5455" />
<rect x="111" y="91" width="2" height="2" fill="#161C2E" />
<rect x="113" y="91" width="1" height="1" fill="#977B6B" />
<rect x="116" y="91" width="3" height="4" fill="#161C2E" />
<rect x="77" y="92" width="1" height="5" fill="#5E5455" />
<rect x="80" y="92" width="2" height="3" fill="#161C2E" />
<rect x="88" y="92" width="4" height="1" fill="#161C2E" />
<rect x="92" y="92" width="6" height="2" fill="#977B6B" />
<rect x="104" y="92" width="1" height="1" fill="#977B6B" />
<rect x="105" y="92" width="3" height="2" fill="#5E5455" />
<rect x="113" y="92" width="1" height="3" fill="#161C2E" />
<rect x="78" y="93" width="1" height="4" fill="#5E5455" />
<rect x="82" y="93" width="9" height="1" fill="#161C2E" />
<rect x="91" y="93" width="1" height="1" fill="#977B6B" />
<rect x="98" y="93" width="3" height="1" fill="#977B6B" />
<rect x="101" y="93" width="4" height="2" fill="#5E5455" />
<rect x="108" y="93" width="2" height="1" fill="#5E5455" />
<rect x="110" y="93" width="2" height="4" fill="#C8A876" />
<rect x="112" y="93" width="1" height="1" fill="#161C2E" />
<rect x="114" y="93" width="2" height="6" fill="#161C2E" />
<rect x="79" y="94" width="1" height="4" fill="#5E5455" />
<rect x="82" y="94" width="8" height="1" fill="#161C2E" />
<rect x="90" y="94" width="2" height="1" fill="#5E5455" />
<rect x="92" y="94" width="4" height="3" fill="#161C2E" />
<rect x="96" y="94" width="5" height="1" fill="#5E5455" />
<rect x="105" y="94" width="1" height="1" fill="#5E5455" />
<rect x="106" y="94" width="4" height="5" fill="#C8A876" />
<rect x="112" y="94" width="1" height="3" fill="#C8A876" />
<rect x="73" y="95" width="1" height="5" fill="#161C2E" />
<rect x="75" y="95" width="1" height="3" fill="#977B6B" />
<rect x="80" y="95" width="2" height="3" fill="#5E5455" />
<rect x="82" y="95" width="6" height="1" fill="#161C2E" />
<rect x="88" y="95" width="3" height="2" fill="#5E5455" />
<rect x="91" y="95" width="1" height="16" fill="#161C2E" />
<rect x="96" y="95" width="2" height="1" fill="#161C2E" />
<rect x="98" y="95" width="4" height="1" fill="#5E5455" />
<rect x="102" y="95" width="4" height="5" fill="#C8A876" />
<rect x="113" y="95" width="1" height="2" fill="#C8A876" />
<rect x="116" y="95" width="2" height="1" fill="#161C2E" />
<rect x="76" y="96" width="1" height="2" fill="#977B6B" />
<rect x="82" y="96" width="6" height="2" fill="#5E5455" />
<rect x="96" y="96" width="6" height="4" fill="#C8A876" />
<rect x="116" y="96" width="1" height="1" fill="#161C2E" />
<rect x="70" y="97" width="2" height="3" fill="#161C2E" />
<rect x="74" y="97" width="1" height="3" fill="#161C2E" />
<rect x="77" y="97" width="2" height="2" fill="#977B6B" />
<rect x="88" y="97" width="2" height="12" fill="#5E5455" />
<rect x="90" y="97" width="1" height="4" fill="#161C2E" />
<rect x="92" y="97" width="2" height="2" fill="#161C2E" />
<rect x="94" y="97" width="2" height="12" fill="#C8A876" />
<rect x="110" y="97" width="1" height="1" fill="#C8A876" />
<rect x="111" y="97" width="2" height="2" fill="#161C2E" />
<rect x="113" y="97" width="1" height="9" fill="#EFE1AB" />
<rect x="69" y="98" width="1" height="8" fill="#161C2E" />
<rect x="75" y="98" width="2" height="3" fill="#161C2E" />
<rect x="79" y="98" width="1" height="1" fill="#977B6B" />
<rect x="80" y="98" width="4" height="3" fill="#161C2E" />
<rect x="84" y="98" width="4" height="1" fill="#5E5455" />
<rect x="110" y="98" width="1" height="10" fill="#EFE1AB" />
<rect x="68" y="99" width="1" height="7" fill="#161C2E" />
<rect x="72" y="99" width="1" height="7" fill="#474144" />
<rect x="77" y="99" width="3" height="2" fill="#161C2E" />
<rect x="84" y="99" width="1" height="5" fill="#161C2E" />
<rect x="85" y="99" width="3" height="1" fill="#5E5455" />
<rect x="92" y="99" width="1" height="12" fill="#161C2E" />
<rect x="93" y="99" width="1" height="9" fill="#C8A876" />
<rect x="106" y="99" width="2" height="3" fill="#161C2E" />
<rect x="108" y="99" width="2" height="9" fill="#EFE1AB" />
<rect x="111" y="99" width="2" height="8" fill="#EFE1AB" />
<rect x="114" y="99" width="1" height="6" fill="#EFE1AB" />
<rect x="115" y="99" width="2" height="7" fill="#161C2E" />
<rect x="70" y="100" width="1" height="1" fill="#161C2E" />
<rect x="71" y="100" width="1" height="5" fill="#474144" />
<rect x="73" y="100" width="2" height="6" fill="#474144" />
<rect x="85" y="100" width="1" height="3" fill="#161C2E" />
<rect x="86" y="100" width="2" height="10" fill="#5E5455" />
<rect x="96" y="100" width="2" height="2" fill="#161C2E" />
<rect x="98" y="100" width="5" height="1" fill="#C8A876" />
<rect x="103" y="100" width="2" height="2" fill="#161C2E" />
<rect x="105" y="100" width="1" height="1" fill="#C8A876" />
<rect x="67" y="101" width="1" height="4" fill="#161C2E" />
<rect x="70" y="101" width="1" height="3" fill="#474144" />
<rect x="75" y="101" width="7" height="3" fill="#474144" />
<rect x="82" y="101" width="2" height="9" fill="#161C2E" />
<rect x="90" y="101" width="1" height="6" fill="#5E5455" />
<rect x="98" y="101" width="5" height="8" fill="#EFE1AB" />
<rect x="105" y="101" width="1" height="2" fill="#161C2E" />
<rect x="96" y="102" width="1" height="1" fill="#C8A876" />
<rect x="97" y="102" width="1" height="6" fill="#EFE1AB" />
<rect x="103" y="102" width="1" height="8" fill="#EFE1AB" />
<rect x="104" y="102" width="1" height="1" fill="#161C2E" />
<rect x="106" y="102" width="1" height="1" fill="#161C2E" />
<rect x="107" y="102" width="1" height="7" fill="#EFE1AB" />
<rect x="85" y="103" width="1" height="7" fill="#5E5455" />
<rect x="96" y="103" width="1" height="4" fill="#EFE1AB" />
<rect x="104" y="103" width="3" height="6" fill="#EFE1AB" />
<rect x="70" y="104" width="1" height="3" fill="#161C2E" />
<rect x="75" y="104" width="1" height="1" fill="#474144" />
<rect x="76" y="104" width="2" height="5" fill="#161C2E" />
<rect x="78" y="104" width="3" height="3" fill="#474144" />
<rect x="81" y="104" width="1" height="6" fill="#161C2E" />
<rect x="84" y="104" width="1" height="5" fill="#5E5455" />
<rect x="71" y="105" width="1" height="3" fill="#161C2E" />
<rect x="75" y="105" width="1" height="3" fill="#161C2E" />
<rect x="114" y="105" width="1" height="10" fill="#161C2E" />
<rect x="72" y="106" width="3" height="2" fill="#161C2E" />
<rect x="113" y="106" width="1" height="3" fill="#161C2E" />
<rect x="115" y="106" width="1" height="7" fill="#161C2E" />
<rect x="78" y="107" width="1" height="4" fill="#161C2E" />
<rect x="79" y="107" width="2" height="1" fill="#474144" />
<rect x="90" y="107" width="1" height="5" fill="#161C2E" />
<rect x="96" y="107" width="1" height="2" fill="#C8A876" />
<rect x="111" y="107" width="2" height="3" fill="#161C2E" />
<rect x="79" y="108" width="2" height="6" fill="#161C2E" />
<rect x="93" y="108" width="1" height="3" fill="#161C2E" />
<rect x="97" y="108" width="1" height="1" fill="#C8A876" />
<rect x="108" y="108" width="1" height="1" fill="#EFE1AB" />
<rect x="109" y="108" width="2" height="3" fill="#161C2E" />
<rect x="84" y="109" width="1" height="2" fill="#161C2E" />
<rect x="88" y="109" width="1" height="1" fill="#5E5455" />
<rect x="89" y="109" width="1" height="3" fill="#161C2E" />
<rect x="94" y="109" width="4" height="3" fill="#161C2E" />
<rect x="98" y="109" width="2" height="1" fill="#C8A876" />
<rect x="100" y="109" width="3" height="1" fill="#EFE1AB" />
<rect x="104" y="109" width="1" height="1" fill="#EFE1AB" />
<rect x="105" y="109" width="4" height="2" fill="#161C2E" />
<rect x="113" y="109" width="1" height="3" fill="#485884" />
<rect x="81" y="110" width="2" height="1" fill="#485884" />
<rect x="83" y="110" width="1" height="1" fill="#161C2E" />
<rect x="85" y="110" width="4" height="2" fill="#161C2E" />
<rect x="98" y="110" width="7" height="2" fill="#161C2E" />
<rect x="111" y="110" width="2" height="4" fill="#485884" />
<rect x="81" y="111" width="1" height="6" fill="#161C2E" />
<rect x="82" y="111" width="3" height="3" fill="#485884" />
<rect x="91" y="111" width="3" height="9" fill="#485884" />
<rect x="105" y="111" width="3" height="1" fill="#161C2E" />
<rect x="108" y="111" width="3" height="1" fill="#485884" />
<rect x="85" y="112" width="6" height="5" fill="#485884" />
<rect x="94" y="112" width="8" height="1" fill="#485884" />
<rect x="102" y="112" width="9" height="2" fill="#4697AC" />
<rect x="113" y="112" width="1" height="5" fill="#161C2E" />
<rect x="94" y="113" width="1" height="7" fill="#485884" />
<rect x="95" y="113" width="7" height="2" fill="#4697AC" />
<rect x="80" y="114" width="1" height="2" fill="#161C2E" />
<rect x="82" y="114" width="1" height="4" fill="#161C2E" />
<rect x="83" y="114" width="2" height="1" fill="#485884" />
<rect x="102" y="114" width="8" height="1" fill="#4697AC" />
<rect x="110" y="114" width="2" height="2" fill="#485884" />
<rect x="112" y="114" width="1" height="4" fill="#161C2E" />
<rect x="83" y="115" width="1" height="4" fill="#161C2E" />
<rect x="84" y="115" width="1" height="1" fill="#485884" />
<rect x="95" y="115" width="1" height="5" fill="#485884" />
<rect x="96" y="115" width="12" height="1" fill="#4697AC" />
<rect x="108" y="115" width="2" height="2" fill="#485884" />
<rect x="84" y="116" width="1" height="4" fill="#161C2E" />
<rect x="96" y="116" width="12" height="2" fill="#485884" />
<rect x="110" y="116" width="1" height="1" fill="#485884" />
<rect x="111" y="116" width="1" height="3" fill="#161C2E" />
<rect x="85" y="117" width="1" height="3" fill="#161C2E" />
<rect x="86" y="117" width="5" height="1" fill="#485884" />
<rect x="108" y="117" width="1" height="1" fill="#485884" />
<rect x="109" y="117" width="2" height="2" fill="#161C2E" />
<rect x="86" y="118" width="2" height="3" fill="#161C2E" />
<rect x="88" y="118" width="3" height="1" fill="#485884" />
<rect x="96" y="118" width="11" height="1" fill="#485884" />
<rect x="107" y="118" width="2" height="2" fill="#161C2E" />
<rect x="88" y="119" width="3" height="3" fill="#161C2E" />
<rect x="96" y="119" width="7" height="1" fill="#485884" />
<rect x="103" y="119" width="4" height="2" fill="#161C2E" />
<rect x="109" y="119" width="1" height="1" fill="#161C2E" />
<rect x="83" y="120" width="3" height="13" fill="#161C2E" opacity="0.270588" />
<rect x="91" y="120" width="12" height="2" fill="#161C2E" />
<rect x="107" y="120" width="1" height="1" fill="#161C2E" />
<rect x="108" y="120" width="4" height="13" fill="#161C2E" opacity="0.270588" />
<rect x="81" y="121" width="2" height="11" fill="#161C2E" opacity="0.270588" />
<rect x="86" y="121" width="2" height="6" fill="#161C2E" opacity="0.270588" />
<rect x="103" y="121" width="3" height="1" fill="#161C2E" />
<rect x="106" y="121" width="2" height="5" fill="#161C2E" opacity="0.270588" />
<rect x="112" y="121" width="2" height="11" fill="#161C2E" opacity="0.270588" />
<rect x="80" y="122" width="1" height="9" fill="#161C2E" opacity="0.270588" />
<rect x="88" y="122" width="1" height="4" fill="#161C2E" opacity="0.270588" />
<rect x="89" y="122" width="3" height="1" fill="#161C2E" />
<rect x="92" y="122" width="10" height="2" fill="#161C2E" opacity="0.270588" />
<rect x="102" y="122" width="3" height="1" fill="#161C2E" />
<rect x="105" y="122" width="1" height="3" fill="#161C2E" opacity="0.270588" />
<rect x="114" y="122" width="1" height="9" fill="#161C2E" opacity="0.270588" />
<rect x="79" y="123" width="1" height="7" fill="#161C2E" opacity="0.270588" />
<rect x="89" y="123" width="1" height="2" fill="#161C2E" opacity="0.270588" />
<rect x="90" y="123" width="2" height="5" fill="#161C2E" />
<rect x="102" y="123" width="2" height="4" fill="#161C2E" />
<rect x="104" y="123" width="1" height="1" fill="#161C2E" opacity="0.270588" />
<rect x="115" y="123" width="1" height="7" fill="#161C2E" opacity="0.270588" />
<rect x="78" y="124" width="1" height="5" fill="#161C2E" opacity="0.270588" />
<rect x="92" y="124" width="1" height="4" fill="#161C2E" />
<rect x="93" y="124" width="8" height="2" fill="#161C2E" opacity="0.270588" />
<rect x="101" y="124" width="1" height="3" fill="#161C2E" />
<rect x="104" y="124" width="1" height="3" fill="#161C2E" />
<rect x="116" y="124" width="1" height="5" fill="#161C2E" opacity="0.270588" />
<rect x="89" y="125" width="1" height="3" fill="#161C2E" />
<rect x="105" y="125" width="1" height="2" fill="#161C2E" />
<rect x="88" y="126" width="1" height="2" fill="#161C2E" />
<rect x="93" y="126" width="1" height="2" fill="#161C2E" />
<rect x="94" y="126" width="7" height="9" fill="#161C2E" opacity="0.270588" />
<rect x="106" y="126" width="1" height="1" fill="#161C2E" />
<rect x="107" y="126" width="1" height="8" fill="#161C2E" opacity="0.270588" />
<rect x="86" y="127" width="1" height="7" fill="#161C2E" opacity="0.270588" />
<rect x="87" y="127" width="1" height="1" fill="#161C2E" />
<rect x="101" y="127" width="6" height="7" fill="#161C2E" opacity="0.270588" />
<rect x="87" y="128" width="7" height="6" fill="#161C2E" opacity="0.270588" />
<rect x="108" y="133" width="1" height="1" fill="#161C2E" opacity="0.270588" />
<rect x="91" y="134" width="3" height="1" fill="#161C2E" opacity="0.270588" />
<rect x="101" y="134" width="3" height="1" fill="#161C2E" opacity="0.270588" />
</svg>