<?xml version="1.0" encoding="UTF-8" ?>
<svg version="1.1" width="192" height="192" xmlns="http://www.w3.org/2000/svg" shape-rendering="crispEdges">
<rect x="89" y="58" width="7" height="2" fill="#5E5455" />
<rect x="85" y="59" width="4" height="3" fill="#5E5455" />
<rect x="96" y="59" width="1" height="3" fill="#5E5455" />
<rect x="82" y="60" width="2" height="1" fill="#161C2E" />
<rect x="84" y="60" width="1" height="2" fill="#5E5455" />
<rect x="89" y="60" width="3" height="1" fill="#5E5455" />
<rect x="92" y="60" width="3" height="5" fill="#977B6B" />
<rect x="95" y="60" width="1" height="1" fill="#5E5455" />
<rect x="97" y="60" width="1" height="4" fill="#5E5455" />
<rect x="80" y="61" width="3" height="1" fill="#161C2E" />
<rect x="83" y="61" width="1" height="2" fill="#5E5455" />
<rect x="89" y="61" width="1" height="3" fill="#5E5455" />
<rect x="90" y="61" width="2" height="1" fill="#977B6B" />
<rect x="95" y="61" width="1" height="8" fill="#977B6B" />
<rect x="98" y="61" width="1" height="4" fill="#5E5455" />
<rect x="78" y="62" width="4" height="1" fill="#161C2E" />
<rect x="82" y="62" width="1" height="1" fill="#5E5455" />
<rect x="84" y="62" width="3" height="9" fill="#977B6B" />
<rect x="87" y="62" width="2" height="1" fill="#5E5455" />
<rect x="90" y="62" width="1" height="2" fill="#5E5455" />
<rect x="91" y="62" width="1" height="1" fill="#977B6B" />
<rect x="96" y="62" width="1" height="7" fill="#977B6B" />
<rect x="99" y="62" width="1" height="4" fill="#5E5455" />
<rect x="77" y="63" width="4" height="1" fill="#161C2E" />
<rect x="81" y="63" width="3" height="7" fill="#977B6B" />
<rect x="87" y="63" width="2" height="9" fill="#977B6B" />
<rect x="91" y="63" width="1" height="1" fill="#5E5455" />
<rect x="100" y="63" width="2" height="3" fill="#5E5455" />
<rect x="76" y="64" width="4" height="1" fill="#161C2E" />
<rect x="80" y="64" width="1" height="6" fill="#977B6B" />
<rect x="89" y="64" width="3" height="8" fill="#977B6B" />
<rect x="97" y="64" width="1" height="5" fill="#977B6B" />
<rect x="102" y="64" width="2" height="3" fill="#5E5455" />
<rect x="76" y="65" width="3" height="1" fill="#161C2E" />
<rect x="79" y="65" width="1" height="4" fill="#977B6B" />
<rect x="92" y="65" width="2" height="2" fill="#5E5455" />
<rect x="94" y="65" width="1" height="1" fill="#977B6B" />
<rect x="98" y="65" width="1" height="4" fill="#977B6B" />
<rect x="104" y="65" width="6" height="2" fill="#5E5455" />
<rect x="75" y="66" width="3" height="1" fill="#161C2E" />
<rect x="78" y="66" width="1" height="5" fill="#5E5455" />
<rect x="94" y="66" width="1" height="2" fill="#5E5455" />
<rect x="99" y="66" width="3" height="4" fill="#977B6B" />
<rect x="110" y="66" width="2" height="3" fill="#5E5455" />
<rect x="75" y="67" width="2" height="5" fill="#161C2E" />
<rect x="77" y="67" width="1" height="3" fill="#5E5455" />
<rect x="92" y="67" width="1" height="5" fill="#977B6B" />
<rect x="93" y="67" width="1" height="1" fill="#5E5455" />
<rect x="102" y="67" width="6" height="4" fill="#977B6B" />
<rect x="108" y="67" width="2" height="1" fill="#5E5455" />
<rect x="112" y="67" width="1" height="4" fill="#5E5455" />
<rect x="93" y="68" width="2" height="4" fill="#977B6B" />
<rect x="108" y="68" width="2" height="5" fill="#977B6B" />
<rect x="113" y="68" width="1" height="5" fill="#5E5455" />
<rect x="79" y="69" width="1" height="2" fill="#5E5455" />
<rect x="95" y="69" width="4" height="1" fill="#5E5455" />
<rect x="110" y="69" width="1" height="4" fill="#977B6B" />
<rect x="111" y="69" width="1" height="1" fill="#5E5455" />
<rect x="114" y="69" width="1" height="1" fill="#5E5455" />
<rect x="77" y="70" width="1" height="4" fill="#161C2E" />
<rect x="80" y="70" width="2" height="2" fill="#5E5455" />
<rect x="82" y="70" width="2" height="1" fill="#977B6B" />
<rect x="95" y="70" width="1" height="7" fill="#977B6B" />
<rect x="96" y="70" width="3" height="1" fill="#5E5455" />
<rect x="99" y="70" width="1" height="7" fill="#977B6B" />
<rect x="100" y="70" width="2" height="2" fill="#5E5455" />
<rect x="111" y="70" width="1" height="4" fill="#977B6B" />
<rect x="114" y="70" width="1" height="5" fill="#161C2E" />
<rect x="78" y="71" width="2" height="6" fill="#161C2E" />
<rect x="82" y="71" width="3" height="22" fill="#5E5455" />
<rect x="85" y="71" width="2" height="1" fill="#977B6B" />
<rect x="96" y="71" width="3" height="5" fill="#977B6B" />
<rect x="102" y="71" width="1" height="2" fill="#5E5455" />
<rect x="103" y="71" width="5" height="1" fill="#977B6B" />
<rect x="112" y="71" width="1" height="4" fill="#977B6B" />
<rect x="115" y="71" width="1" height="7" fill="#161C2E" />
<rect x="76" y="72" width="1" height="1" fill="#161C2E" />
<rect x="80" y="72" width="1" height="9" fill="#161C2E" />
<rect x="81" y="72" width="1" height="2" fill="#5E5455" />
<rect x="85" y="72" width="9" height="1" fill="#5E5455" />
<rect x="94" y="72" width="1" height="18" fill="#977B6B" />
<rect x="100" y="72" width="1" height="6" fill="#977B6B" />
<rect x="101" y="72" width="1" height="1" fill="#5E5455" />
<rect x="103" y="72" width="1" height="4" fill="#977B6B" />
<rect x="104" y="72" width="1" height="3" fill="#5E5455" />
<rect x="105" y="72" width="3" height="1" fill="#977B6B" />
<rect x="85" y="73" width="8" height="1" fill="#5E5455" />
<rect x="93" y="73" width="1" height="16" fill="#977B6B" />
<rect x="101" y="73" width="2" height="3" fill="#977B6B" />
<rect x="105" y="73" width="1" height="3" fill="#5E5455" />
<rect x="106" y="73" width="2" height="1" fill="#977B6B" />
<rect x="108" y="73" width="3" height="3" fill="#ADA081" />
<rect x="113" y="73" width="1" height="15" fill="#977B6B" />
<rect x="116" y="73" width="1" height="8" fill="#161C2E" />
<rect x="81" y="74" width="1" height="5" fill="#161C2E" />
<rect x="85" y="74" width="7" height="1" fill="#5E5455" />
<rect x="92" y="74" width="1" height="15" fill="#977B6B" />
<rect x="106" y="74" width="1" height="2" fill="#5E5455" />
<rect x="107" y="74" width="1" height="4" fill="#977B6B" />
<rect x="111" y="74" width="1" height="4" fill="#ADA081" />
<rect x="85" y="75" width="5" height="1" fill="#5E5455" />
<rect x="90" y="75" width="2" height="13" fill="#977B6B" />
<rect x="104" y="75" width="1" height="2" fill="#977B6B" />
<rect x="112" y="75" width="1" height="3" fill="#ADA081" />
<rect x="114" y="75" width="1" height="12" fill="#977B6B" />
<rect x="117" y="75" width="1" height="7" fill="#161C2E" />
<rect x="85" y="76" width="4" height="2" fill="#5E5455" />
<rect x="89" y="76" width="1" height="10" fill="#977B6B" />
<rect x="96" y="76" width="3" height="4" fill="#ADA081" />
<rect x="101" y="76" width="3" height="3" fill="#ADA081" />
<rect x="105" y="76" width="2" height="2" fill="#977B6B" />
<rect x="108" y="76" width="1" height="3" fill="#977B6B" />
<rect x="109" y="76" width="2" height="1" fill="#ADA081" />
<rect x="79" y="77" width="1" height="6" fill="#161C2E" />
<rect x="95" y="77" width="1" height="2" fill="#ADA081" />
<rect x="99" y="77" width="1" height="4" fill="#ADA081" />
<rect x="104" y="77" width="1" height="3" fill="#ADA081" />
<rect x="109" y="77" width="1" height="6" fill="#977B6B" />
<rect x="110" y="77" width="1" height="1" fill="#ADA081" />
<rect x="85" y="78" width="3" height="8" fill="#5E5455" />
<rect x="88" y="78" width="1" height="5" fill="#977B6B" />
<rect x="100" y="78" width="1" height="3" fill="#ADA081" />
<rect x="105" y="78" width="1" height="2" fill="#ADA081" />
<rect x="106" y="78" width="1" height="12" fill="#977B6B" />
<rect x="107" y="78" width="1" height="4" fill="#5E5455" />
<rect x="110" y="78" width="3" height="10" fill="#977B6B" />
<rect x="115" y="78" width="1" height="9" fill="#977B6B" />
<rect x="81" y="79" width="1" height="14" fill="#5E5455" />
<rect x="95" y="79" width="1" height="2" fill="#977B6B" />
<rect x="101" y="79" width="1" height="12" fill="#977B6B" />
<rect x="102" y="79" width="2" height="1" fill="#ADA081" />
<rect x="108" y="79" width="1" height="3" fill="#5E5455" />
<rect x="118" y="79" width="1" height="4" fill="#161C2E" />
<rect x="78" y="80" width="1" height="5" fill="#161C2E" />
<rect x="96" y="80" width="1" height="1" fill="#977B6B" />
<rect x="97" y="80" width="2" height="1" fill="#ADA081" />
<rect x="102" y="80" width="4" height="10" fill="#977B6B" />
<rect x="80" y="81" width="1" height="11" fill="#5E5455" />
<rect x="95" y="81" width="2" height="2" fill="#ADA081" />
<rect x="97" y="81" width="4" height="1" fill="#977B6B" />
<rect x="116" y="81" width="1" height="6" fill="#977B6B" />
<rect x="119" y="81" width="1" height="4" fill="#161C2E" />
<rect x="77" y="82" width="1" height="5" fill="#161C2E" />
<rect x="97" y="82" width="1" height="2" fill="#ADA081" />
<rect x="98" y="82" width="3" height="9" fill="#977B6B" />
<rect x="107" y="82" width="2" height="1" fill="#977B6B" />
<rect x="117" y="82" width="1" height="5" fill="#977B6B" />
<rect x="120" y="82" width="1" height="11" fill="#161C2E" />
<rect x="79" y="83" width="1" height="2" fill="#977B6B" />
<rect x="88" y="83" width="1" height="3" fill="#5E5455" />
<rect x="95" y="83" width="1" height="7" fill="#977B6B" />
<rect x="96" y="83" width="1" height="1" fill="#ADA081" />
<rect x="107" y="83" width="1" height="7" fill="#977B6B" />
<rect x="108" y="83" width="2" height="4" fill="#5E5455" />
<rect x="118" y="83" width="1" height="5" fill="#977B6B" />
<rect x="76" y="84" width="1" height="17" fill="#161C2E" />
<rect x="96" y="84" width="2" height="6" fill="#977B6B" />
<rect x="121" y="84" width="1" height="8" fill="#161C2E" />
<rect x="75" y="85" width="1" height="6" fill="#161C2E" />
<rect x="78" y="85" width="1" height="8" fill="#977B6B" />
<rect x="79" y="85" width="1" height="6" fill="#5E5455" />
<rect x="119" y="85" width="1" height="4" fill="#977B6B" />
<rect x="85" y="86" width="1" height="8" fill="#5E5455" />
<rect x="86" y="86" width="3" height="2" fill="#977B6B" />
<rect x="89" y="86" width="1" height="1" fill="#5E5455" />
<rect x="77" y="87" width="1" height="4" fill="#977B6B" />
<rect x="89" y="87" width="1" height="4" fill="#977B6B" />
<rect x="108" y="87" width="2" height="2" fill="#977B6B" />
<rect x="114" y="87" width="1" height="3" fill="#5E5455" />
<rect x="115" y="87" width="3" height="2" fill="#161C2E" />
<rect x="122" y="87" width="1" height="4" fill="#161C2E" />
<rect x="86" y="88" width="1" height="6" fill="#5E5455" />
<rect x="87" y="88" width="2" height="1" fill="#977B6B" />
<rect x="90" y="88" width="1" height="17" fill="#5E5455" />
<rect x="91" y="88" width="1" height="1" fill="#977B6B" />
<rect x="110" y="88" width="2" height="1" fill="#977B6B" />
<rect x="112" y="88" width="2" height="2" fill="#5E5455" />
<rect x="118" y="88" width="1" height="7" fill="#161C2E" />
<rect x="87" y="89" width="1" height="5" fill="#5E5455" />
<rect x="88" y="89" width="1" height="1" fill="#977B6B" />
<rect x="91" y="89" width="3" height="16" fill="#5E5455" />
<rect x="108" y="89" width="4" height="2" fill="#5E5455" />
<rect x="115" y="89" width="1" height="4" fill="#C8A876" />
<rect x="116" y="89" width="2" height="1" fill="#161C2E" />
<rect x="119" y="89" width="1" height="21" fill="#161C2E" />
<rect x="88" y="90" width="1" height="5" fill="#5E5455" />
<rect x="94" y="90" width="4" height="1" fill="#5E5455" />
<rect x="102" y="90" width="2" height="1" fill="#977B6B" />
<rect x="104" y="90" width="4" height="2" fill="#5E5455" />
<rect x="112" y="90" width="1" height="1" fill="#5E5455" />
<rect x="113" y="90" width="2" height="4" fill="#C8A876" />
<rect x="116" y="90" width="1" height="3" fill="#C8A876" />
<rect x="117" y="90" width="1" height="1" fill="#161C2E" />
<rect x="77" y="91" width="1" height="17" fill="#161C2E" />
<rect x="79" y="91" width="1" height="3" fill="#977B6B" />
<rect x="89" y="91" width="1" height="5" fill="#5E5455" />
<rect x="94" y="91" width="3" height="1" fill="#5E5455" />
<rect x="97" y="91" width="5" height="2" fill="#161C2E" />
<rect x="102" y="91" width="2" height="1" fill="#5E5455" />
<rect x="108" y="91" width="1" height="1" fill="#5E5455" />
<rect x="109" y="91" width="4" height="4" fill="#C8A876" />
<rect x="117" y="91" width="1" height="2" fill="#C8A876" />
<rect x="80" y="92" width="1" height="2" fill="#977B6B" />
<rect x="94" y="92" width="2" height="1" fill="#5E5455" />
<rect x="96" y="92" width="1" height="15" fill="#161C2E" />
<rect x="102" y="92" width="2" height="1" fill="#161C2E" />
<rect x="104" y="92" width="5" height="4" fill="#C8A876" />
<rect x="78" y="93" width="1" height="14" fill="#161C2E" />
<rect x="81" y="93" width="2" height="2" fill="#977B6B" />
<rect x="83" y="93" width="2" height="1" fill="#5E5455" />
<rect x="94" y="93" width="1" height="11" fill="#5E5455" />
<rect x="95" y="93" width="1" height="6" fill="#161C2E" />
<rect x="97" y="93" width="2" height="1" fill="#161C2E" />
<rect x="99" y="93" width="5" height="3" fill="#C8A876" />
<rect x="115" y="93" width="2" height="2" fill="#161C2E" />
<rect x="117" y="93" width="1" height="9" fill="#EFE1AB" />
<rect x="79" y="94" width="2" height="3" fill="#161C2E" />
<rect x="83" y="94" width="1" height="1" fill="#977B6B" />
<rect x="84" y="94" width="4" height="3" fill="#161C2E" />
<rect x="97" y="94" width="1" height="1" fill="#161C2E" />
<rect x="98" y="94" width="1" height="11" fill="#C8A876" />
<rect x="113" y="94" width="1" height="1" fill="#C8A876" />
<rect x="114" y="94" width="1" height="10" fill="#EFE1AB" />
<rect x="81" y="95" width="3" height="2" fill="#161C2E" />
<rect x="88" y="95" width="1" height="5" fill="#161C2E" />
<rect x="97" y="95" width="1" height="3" fill="#C8A876" />
<rect x="109" y="95" width="1" height="2" fill="#C8A876" />
<rect x="110" y="95" width="2" height="3" fill="#161C2E" />
<rect x="112" y="95" width="2" height="9" fill="#EFE1AB" />
<rect x="115" y="95" width="2" height="8" fill="#EFE1AB" />
<rect x="118" y="95" width="1" height="6" fill="#EFE1AB" />
<rect x="120" y="95" width="1" height="10" fill="#161C2E" />
<rect x="89" y="96" width="1" height="3" fill="#161C2E" />
<rect x="99" y="96" width="1" height="9" fill="#C8A876" />
<rect x="100" y="96" width="2" height="2" fill="#161C2E" />
<rect x="102" y="96" width="5" height="1" fill="#C8A876" />
<rect x="107" y="96" width="2" height="2" fill="#161C2E" />
<rect x="79" y="97" width="7" height="3" fill="#474144" />
<rect x="86" y="97" width="2" height="8" fill="#161C2E" />
<rect x="102" y="97" width="5" height="8" fill="#EFE1AB" />
<rect x="109" y="97" width="1" height="2" fill="#161C2E" />
<rect x="97" y="98" width="1" height="5" fill="#161C2E" />
<rect x="100" y="98" width="1" height="7" fill="#C8A876" />
<rect x="101" y="98" width="1" height="5" fill="#EFE1AB" />
<rect x="107" y="98" width="1" height="8" fill="#EFE1AB" />
<rect x="108" y="98" width="1" height="1" fill="#161C2E" />
<rect x="110" y="98" width="1" height="1" fill="#161C2E" />
<rect x="111" y="98" width="1" height="7" fill="#EFE1AB" />
<rect x="89" y="99" width="1" height="5" fill="#5E5455" />
<rect x="95" y="99" width="1" height="4" fill="#5E5455" />
<rect x="108" y="99" width="3" height="6" fill="#EFE1AB" />
<rect x="79" y="100" width="1" height="10" fill="#161C2E" />
<rect x="80" y="100" width="4" height="1" fill="#474144" />
<rect x="84" y="100" width="1" height="5" fill="#161C2E" />
<rect x="85" y="100" width="1" height="3" fill="#474144" />
<rect x="88" y="100" width="1" height="3" fill="#5E5455" />
<rect x="123" y="100" width="6" height="2" fill="#161C2E" />
<rect x="80" y="101" width="1" height="11" fill="#161C2E" />
<rect x="81" y="101" width="2" height="1" fill="#474144" />
<rect x="83" y="101" width="1" height="4" fill="#161C2E" />
<rect x="118" y="101" width="1" height="8" fill="#161C2E" />
<rect x="121" y="101" width="2" height="2" fill="#161C2E" />
<rect x="129" y="101" width="1" height="8" fill="#161C2E" />
<rect x="70" y="102" width="7" height="2" fill="#161C2E" />
<rect x="81" y="102" width="2" height="2" fill="#161C2E" />
<rect x="117" y="102" width="1" height="3" fill="#161C2E" />
<rect x="123" y="102" width="2" height="1" fill="#161C2E" />
<rect x="125" y="102" width="3" height="5" fill="#C8A876" />
<rect x="128" y="102" width="1" height="1" fill="#161C2E" />
<rect x="130" y="102" width="1" height="6" fill="#161C2E" />
<rect x="67" y="103" width="3" height="2" fill="#161C2E" />
<rect x="85" y="103" width="1" height="2" fill="#161C2E" />
<rect x="88" y="103" width="1" height="4" fill="#161C2E" />
<rect x="95" y="103" width="1" height="4" fill="#161C2E" />
<rect x="97" y="103" width="1" height="1" fill="#C8A876" />
<rect x="101" y="103" width="1" height="2" fill="#C8A876" />
<rect x="115" y="103" width="2" height="3" fill="#161C2E" />
<rect x="121" y="103" width="1" height="1" fill="#161C2E" />
<rect x="122" y="103" width="3" height="5" fill="#C8A876" />
<rect x="128" y="103" width="1" height="3" fill="#C8A876" />
<rect x="66" y="104" width="1" height="10" fill="#161C2E" />
<rect x="70" y="104" width="1" height="1" fill="#161C2E" />
<rect x="71" y="104" width="3" height="4" fill="#C8A876" />
<rect x="74" y="104" width="3" height="1" fill="#161C2E" />
<rect x="81" y="104" width="2" height="3" fill="#485884" />
<rect x="89" y="104" width="1" height="3" fill="#161C2E" />
<rect x="94" y="104" width="1" height="4" fill="#161C2E" />
<rect x="97" y="104" width="1" height="3" fill="#161C2E" />
<rect x="112" y="104" width="1" height="1" fill="#EFE1AB" />
<rect x="113" y="104" width="2" height="3" fill="#161C2E" />
<rect x="121" y="104" width="1" height="5" fill="#C8A876" />
<rect x="65" y="105" width="1" height="7" fill="#161C2E" />
<rect x="67" y="105" width="2" height="1" fill="#161C2E" />
<rect x="69" y="105" width="2" height="7" fill="#C8A876" />
<rect x="74" y="105" width="1" height="2" fill="#C8A876" />
<rect x="75" y="105" width="2" height="4" fill="#161C2E" />
<rect x="83" y="105" width="4" height="6" fill="#485884" />
<rect x="87" y="105" width="1" height="1" fill="#161C2E" />
<rect x="90" y="105" width="1" height="3" fill="#161C2E" />
<rect x="91" y="105" width="2" height="1" fill="#5E5455" />
<rect x="93" y="105" width="1" height="3" fill="#161C2E" />
<rect x="98" y="105" width="4" height="3" fill="#161C2E" />
<rect x="102" y="105" width="2" height="1" fill="#C8A876" />
<rect x="104" y="105" width="3" height="1" fill="#EFE1AB" />
<rect x="108" y="105" width="1" height="1" fill="#EFE1AB" />
<rect x="109" y="105" width="4" height="2" fill="#161C2E" />
<rect x="120" y="105" width="1" height="3" fill="#C8A876" />
<rect x="67" y="106" width="1" height="1" fill="#161C2E" />
<rect x="68" y="106" width="1" height="6" fill="#C8A876" />
<rect x="87" y="106" width="1" height="8" fill="#485884" />
<rect x="91" y="106" width="2" height="2" fill="#161C2E" />
<rect x="102" y="106" width="7" height="2" fill="#161C2E" />
<rect x="115" y="106" width="1" height="3" fill="#161C2E" />
<rect x="128" y="106" width="1" height="3" fill="#161C2E" />
<rect x="67" y="107" width="1" height="4" fill="#C8A876" />
<rect x="74" y="107" width="1" height="5" fill="#161C2E" />
<rect x="81" y="107" width="1" height="6" fill="#161C2E" />
<rect x="82" y="107" width="1" height="3" fill="#485884" />
<rect x="88" y="107" width="2" height="8" fill="#485884" />
<rect x="95" y="107" width="3" height="2" fill="#485884" />
<rect x="109" y="107" width="3" height="1" fill="#161C2E" />
<rect x="112" y="107" width="2" height="1" fill="#485884" />
<rect x="114" y="107" width="1" height="4" fill="#161C2E" />
<rect x="125" y="107" width="1" height="1" fill="#C8A876" />
<rect x="126" y="107" width="2" height="3" fill="#161C2E" />
<rect x="71" y="108" width="2" height="2" fill="#C8A876" />
<rect x="73" y="108" width="1" height="4" fill="#161C2E" />
<rect x="90" y="108" width="5" height="7" fill="#485884" />
<rect x="98" y="108" width="4" height="1" fill="#485884" />
<rect x="102" y="108" width="9" height="2" fill="#4697AC" />
<rect x="111" y="108" width="2" height="2" fill="#485884" />
<rect x="113" y="108" width="1" height="5" fill="#161C2E" />
<rect x="120" y="108" width="1" height="3" fill="#161C2E" />
<rect x="122" y="108" width="2" height="1" fill="#C8A876" />
<rect x="124" y="108" width="2" height="3" fill="#161C2E" />
<rect x="75" y="109" width="1" height="2" fill="#161C2E" />
<rect x="95" y="109" width="7" height="2" fill="#4697AC" />
<rect x="121" y="109" width="3" height="2" fill="#161C2E" />
<rect x="71" y="110" width="1" height="1" fill="#C8A876" />
<rect x="72" y="110" width="1" height="4" fill="#161C2E" />
<rect x="82" y="110" width="1" height="4" fill="#161C2E" />
<rect x="102" y="110" width="8" height="1" fill="#4697AC" />
<rect x="110" y="110" width="2" height="2" fill="#485884" />
<rect x="112" y="110" width="1" height="4" fill="#161C2E" />
<rect x="126" y="110" width="1" height="1" fill="#161C2E" />
<rect x="67" y="111" width="1" height="3" fill="#161C2E" />
<rect x="71" y="111" width="1" height="4" fill="#161C2E" />
<rect x="83" y="111" width="1" height="4" fill="#161C2E" />
<rect x="84" y="111" width="3" height="1" fill="#485884" />
<rect x="95" y="111" width="1" height="5" fill="#485884" />
<rect x="96" y="111" width="12" height="1" fill="#4697AC" />
<rect x="108" y="111" width="2" height="2" fill="#485884" />
<rect x="68" y="112" width="3" height="3" fill="#161C2E" />
<rect x="84" y="112" width="1" height="4" fill="#161C2E" />
<rect x="85" y="112" width="2" height="1" fill="#485884" />
<rect x="96" y="112" width="3" height="4" fill="#485884" />
<rect x="99" y="112" width="4" height="1" fill="#4697AC" />
<rect x="103" y="112" width="5" height="2" fill="#485884" />
<rect x="110" y="112" width="1" height="1" fill="#485884" />
<rect x="111" y="112" width="1" height="3" fill="#161C2E" />
<rect x="85" y="113" width="1" height="3" fill="#161C2E" />
<rect x="86" y="113" width="1" height="1" fill="#485884" />
<rect x="99" y="113" width="4" height="3" fill="#485884" />
<rect x="108" y="113" width="1" height="1" fill="#485884" />
<rect x="109" y="113" width="2" height="2" fill="#161C2E" />
<rect x="86" y="114" width="2" height="3" fill="#161C2E" />
<rect x="103" y="114" width="4" height="1" fill="#485884" />
<rect x="107" y="114" width="2" height="2" fill="#161C2E" />
<rect x="88" y="115" width="3" height="3" fill="#161C2E" />
<rect x="91" y="115" width="4" height="1" fill="#485884" />
<rect x="103" y="115" width="4" height="2" fill="#161C2E" />
<rect x="109" y="115" width="1" height="1" fill="#161C2E" />
<rect x="91" y="116" width="12" height="2" fill="#161C2E" />
<rect x="107" y="116" width="1" height="1" fill="#161C2E" />
<rect x="103" y="117" width="3" height="1" fill="#161C2E" />
<rect x="91" y="118" width="10" height="3" fill="#161C2E" />
<rect x="101" y="118" width="2" height="1" fill="#161C2E" opacity="0.270588" />
<rect x="89" y="119" width="2" height="1" fill="#161C2E" opacity="0.270588" />
<rect x="101" y="119" width="1" height="5" fill="#161C2E" />
<rect x="102" y="119" width="5" height="1" fill="#161C2E" opacity="0.270588" />
<rect x="86" y="120" width="4" height="1" fill="#161C2E" opacity="0.270588" />
<rect x="90" y="120" width="1" height="3" fill="#161C2E" />
<rect x="102" y="120" width="1" height="6" fill="#161C2E" />
<rect x="103" y="120" width="7" height="1" fill="#161C2E" opacity="0.270588" />
<rect x="85" y="121" width="4" height="1" fill="#161C2E" opacity="0.270588" />
<rect x="89" y="121" width="1" height="2" fill="#161C2E" />
<rect x="91" y="121" width="2" height="1" fill="#161C2E" />
<rect x="93" y="121" width="1" height="14" fill="#161C2E" opacity="0.270588" />
<rect x="94" y="121" width="4" height="1" fill="#161C2E" />
<rect x="98" y="121" width="1" height="14" fill="#161C2E" opacity="0.270588" />
<rect x="99" y="121" width="2" height="1" fill="#161C2E" />
<rect x="103" y="121" width="2" height="4" fill="#161C2E" />
<rect x="105" y="121" width="1" height="1" fill="#161C2E" opacity="0.270588" />
<rect x="106" y="121" width="2" height="2" fill="#161C2E" />
<rect x="108" y="121" width="3" height="11" fill="#161C2E" opacity="0.270588" />
<rect x="84" y="122" width="4" height="9" fill="#161C2E" opacity="0.270588" />
<rect x="88" y="122" width="1" height="1" fill="#161C2E" />
<rect x="91" y="122" width="1" height="1" fill="#161C2E" />
<rect x="92" y="122" width="1" height="12" fill="#161C2E" opacity="0.270588" />
<rect x="94" y="122" width="1" height="13" fill="#161C2E" opacity="0.270588" />
<rect x="95" y="122" width="2" height="1" fill="#161C2E" />
<rect x="97" y="122" width="1" height="13" fill="#161C2E" opacity="0.270588" />
<rect x="99" y="122" width="1" height="13" fill="#161C2E" opacity="0.270588" />
<rect x="100" y="122" width="1" height="1" fill="#161C2E" />
<rect x="105" y="122" width="1" height="3" fill="#161C2E" />
<rect x="111" y="122" width="1" height="9" fill="#161C2E" opacity="0.270588" />
<rect x="83" y="123" width="1" height="7" fill="#161C2E" opacity="0.270588" />
<rect x="88" y="123" width="4" height="10" fill="#161C2E" opacity="0.270588" />
<rect x="95" y="123" width="2" height="12" fill="#161C2E" opacity="0.270588" />
<rect x="100" y="123" width="1" height="12" fill="#161C2E" opacity="0.270588" />
<rect x="106" y="123" width="1" height="1" fill="#161C2E" />
<rect x="107" y="123" width="1" height="10" fill="#161C2E" opacity="0.270588" />
<rect x="112" y="123" width="1" height="7" fill="#161C2E" opacity="0.270588" />
<rect x="82" y="124" width="1" height="5" fill="#161C2E" opacity="0.270588" />
<rect x="101" y="124" width="1" height="11" fill="#161C2E" opacity="0.270588" />
<rect x="106" y="124" width="1" height="10" fill="#161C2E" opacity="0.270588" />
<rect x="113" y="124" width="1" height="5" fill="#161C2E" opacity="0.270588" />
<rect x="103" y="125" width="1" height="1" fill="#161C2E" />
<rect x="104" y="125" width="2" height="9" fill="#161C2E" opacity="0.270588" />
<rect x="102" y="126" width="2" height="8" fill="#161C2E" opacity="0.270588" />
<rect x="85" y="131" width="3" height="1" fill="#161C2E" opacity="0.270588" />
<rect x="86" y="132" width="2" height="1" fill="#161C2E" opacity="0.270588" />
<rect x="108" y="132" width="2" height="1" fill="#161C2E" opacity="0.270588" />
<rect x="89" y="133" width="3" height="1" fill="#161C2E" opacity="0.270588" />
<rect x="102" y="134" width="1" height="1" fill="#161C2E" opacity="0.270588" />
</svg>