<?xml version="1.0" encoding="UTF-8" ?>
<svg version="1.1" width="192" height="192" xmlns="http://www.w3.org/2000/svg" shape-rendering="crispEdges">
<rect x="91" y="64" width="6" height="2" fill="#5E5455" />
<rect x="86" y="65" width="5" height="3" fill="#5E5455" />
<rect x="97" y="65" width="1" height="3" fill="#5E5455" />
<rect x="83" y="66" width="2" height="1" fill="#161C2E" />
<rect x="85" y="66" width="1" height="2" fill="#5E5455" />
<rect x="91" y="66" width="2" height="1" fill="#5E5455" />
<rect x="93" y="66" width="2" height="4" fill="#977B6B" />
<rect x="95" y="66" width="2" height="1" fill="#5E5455" />
<rect x="98" y="66" width="1" height="3" fill="#5E5455" />
<rect x="81" y="67" width="3" height="1" fill="#161C2E" />
<rect x="84" y="67" width="1" height="2" fill="#5E5455" />
<rect x="91" y="67" width="2" height="1" fill="#977B6B" />
<rect x="95" y="67" width="2" height="7" fill="#977B6B" />
<rect x="99" y="67" width="1" height="4" fill="#5E5455" />
<rect x="79" y="68" width="4" height="1" fill="#161C2E" />
<rect x="83" y="68" width="1" height="1" fill="#5E5455" />
<rect x="85" y="68" width="3" height="10" fill="#977B6B" />
<rect x="88" y="68" width="4" height="1" fill="#5E5455" />
<rect x="92" y="68" width="1" height="2" fill="#977B6B" />
<rect x="97" y="68" width="1" height="6" fill="#977B6B" />
<rect x="100" y="68" width="1" height="3" fill="#5E5455" />
<rect x="77" y="69" width="4" height="1" fill="#161C2E" />
<rect x="81" y="69" width="4" height="8" fill="#977B6B" />
<rect x="88" y="69" width="4" height="8" fill="#977B6B" />
<rect x="98" y="69" width="1" height="5" fill="#977B6B" />
<rect x="101" y="69" width="4" height="2" fill="#5E5455" />
<rect x="76" y="70" width="4" height="1" fill="#161C2E" />
<rect x="80" y="70" width="1" height="6" fill="#977B6B" />
<rect x="92" y="70" width="2" height="2" fill="#5E5455" />
<rect x="94" y="70" width="1" height="1" fill="#977B6B" />
<rect x="105" y="70" width="5" height="2" fill="#5E5455" />
<rect x="75" y="71" width="4" height="1" fill="#161C2E" />
<rect x="79" y="71" width="1" height="3" fill="#977B6B" />
<rect x="94" y="71" width="1" height="2" fill="#5E5455" />
<rect x="99" y="71" width="3" height="4" fill="#977B6B" />
<rect x="102" y="71" width="3" height="1" fill="#5E5455" />
<rect x="110" y="71" width="2" height="3" fill="#5E5455" />
<rect x="75" y="72" width="3" height="1" fill="#161C2E" />
<rect x="78" y="72" width="1" height="6" fill="#5E5455" />
<rect x="92" y="72" width="1" height="5" fill="#977B6B" />
<rect x="93" y="72" width="1" height="1" fill="#5E5455" />
<rect x="102" y="72" width="6" height="5" fill="#977B6B" />
<rect x="108" y="72" width="2" height="1" fill="#5E5455" />
<rect x="112" y="72" width="2" height="4" fill="#5E5455" />
<rect x="74" y="73" width="3" height="2" fill="#161C2E" />
<rect x="77" y="73" width="1" height="5" fill="#5E5455" />
<rect x="93" y="73" width="2" height="8" fill="#977B6B" />
<rect x="108" y="73" width="2" height="5" fill="#977B6B" />
<rect x="114" y="73" width="1" height="4" fill="#5E5455" />
<rect x="79" y="74" width="1" height="5" fill="#5E5455" />
<rect x="95" y="74" width="4" height="1" fill="#5E5455" />
<rect x="110" y="74" width="1" height="4" fill="#977B6B" />
<rect x="111" y="74" width="1" height="1" fill="#5E5455" />
<rect x="74" y="75" width="2" height="5" fill="#161C2E" />
<rect x="76" y="75" width="1" height="2" fill="#5E5455" />
<rect x="95" y="75" width="1" height="6" fill="#977B6B" />
<rect x="96" y="75" width="2" height="1" fill="#5E5455" />
<rect x="98" y="75" width="1" height="7" fill="#977B6B" />
<rect x="99" y="75" width="2" height="2" fill="#5E5455" />
<rect x="101" y="75" width="1" height="1" fill="#977B6B" />
<rect x="111" y="75" width="1" height="5" fill="#977B6B" />
<rect x="80" y="76" width="1" height="3" fill="#5E5455" />
<rect x="96" y="76" width="2" height="5" fill="#977B6B" />
<rect x="101" y="76" width="1" height="2" fill="#5E5455" />
<rect x="112" y="76" width="1" height="17" fill="#977B6B" />
<rect x="113" y="76" width="1" height="4" fill="#161C2E" />
<rect x="76" y="77" width="1" height="5" fill="#161C2E" />
<rect x="81" y="77" width="2" height="21" fill="#5E5455" />
<rect x="83" y="77" width="2" height="1" fill="#977B6B" />
<rect x="88" y="77" width="5" height="1" fill="#5E5455" />
<rect x="99" y="77" width="1" height="4" fill="#977B6B" />
<rect x="100" y="77" width="1" height="1" fill="#5E5455" />
<rect x="102" y="77" width="1" height="4" fill="#977B6B" />
<rect x="103" y="77" width="1" height="3" fill="#5E5455" />
<rect x="104" y="77" width="4" height="1" fill="#977B6B" />
<rect x="114" y="77" width="1" height="8" fill="#161C2E" />
<rect x="77" y="78" width="2" height="7" fill="#161C2E" />
<rect x="83" y="78" width="9" height="1" fill="#5E5455" />
<rect x="92" y="78" width="1" height="7" fill="#977B6B" />
<rect x="100" y="78" width="2" height="3" fill="#977B6B" />
<rect x="104" y="78" width="1" height="3" fill="#5E5455" />
<rect x="105" y="78" width="3" height="1" fill="#977B6B" />
<rect x="108" y="78" width="3" height="4" fill="#ADA081" />
<rect x="115" y="78" width="1" height="9" fill="#161C2E" />
<rect x="79" y="79" width="2" height="1" fill="#161C2E" />
<rect x="83" y="79" width="8" height="1" fill="#5E5455" />
<rect x="91" y="79" width="1" height="14" fill="#977B6B" />
<rect x="105" y="79" width="1" height="2" fill="#5E5455" />
<rect x="106" y="79" width="1" height="4" fill="#977B6B" />
<rect x="107" y="79" width="1" height="2" fill="#ADA081" />
<rect x="75" y="80" width="1" height="1" fill="#161C2E" />
<rect x="79" y="80" width="1" height="3" fill="#161C2E" />
<rect x="80" y="80" width="1" height="17" fill="#5E5455" />
<rect x="83" y="80" width="5" height="1" fill="#5E5455" />
<rect x="88" y="80" width="3" height="12" fill="#977B6B" />
<rect x="103" y="80" width="1" height="2" fill="#977B6B" />
<rect x="111" y="80" width="1" height="3" fill="#ADA081" />
<rect x="113" y="80" width="1" height="13" fill="#977B6B" />
<rect x="83" y="81" width="4" height="1" fill="#5E5455" />
<rect x="87" y="81" width="1" height="9" fill="#977B6B" />
<rect x="93" y="81" width="5" height="2" fill="#ADA081" />
<rect x="99" y="81" width="4" height="2" fill="#ADA081" />
<rect x="104" y="81" width="2" height="1" fill="#977B6B" />
<rect x="107" y="81" width="1" height="6" fill="#977B6B" />
<rect x="83" y="82" width="3" height="3" fill="#5E5455" />
<rect x="86" y="82" width="1" height="5" fill="#977B6B" />
<rect x="98" y="82" width="1" height="3" fill="#ADA081" />
<rect x="103" y="82" width="1" height="2" fill="#ADA081" />
<rect x="104" y="82" width="1" height="2" fill="#977B6B" />
<rect x="105" y="82" width="1" height="4" fill="#5E5455" />
<rect x="108" y="82" width="2" height="12" fill="#977B6B" />
<rect x="110" y="82" width="1" height="1" fill="#ADA081" />
<rect x="79" y="83" width="1" height="14" fill="#5E5455" />
<rect x="93" y="83" width="1" height="2" fill="#977B6B" />
<rect x="94" y="83" width="4" height="1" fill="#ADA081" />
<rect x="99" y="83" width="1" height="12" fill="#977B6B" />
<rect x="100" y="83" width="3" height="1" fill="#ADA081" />
<rect x="106" y="83" width="1" height="2" fill="#5E5455" />
<rect x="110" y="83" width="2" height="10" fill="#977B6B" />
<rect x="116" y="83" width="1" height="5" fill="#161C2E" />
<rect x="76" y="84" width="1" height="4" fill="#161C2E" />
<rect x="94" y="84" width="1" height="2" fill="#977B6B" />
<rect x="95" y="84" width="3" height="1" fill="#ADA081" />
<rect x="100" y="84" width="4" height="11" fill="#977B6B" />
<rect x="104" y="84" width="1" height="2" fill="#5E5455" />
<rect x="75" y="85" width="1" height="4" fill="#161C2E" />
<rect x="77" y="85" width="1" height="1" fill="#161C2E" />
<rect x="78" y="85" width="1" height="11" fill="#5E5455" />
<rect x="83" y="85" width="2" height="5" fill="#5E5455" />
<rect x="85" y="85" width="1" height="2" fill="#977B6B" />
<rect x="92" y="85" width="2" height="3" fill="#ADA081" />
<rect x="95" y="85" width="4" height="2" fill="#977B6B" />
<rect x="106" y="85" width="1" height="2" fill="#977B6B" />
<rect x="114" y="85" width="1" height="7" fill="#977B6B" />
<rect x="74" y="86" width="1" height="18" fill="#161C2E" />
<rect x="77" y="86" width="1" height="1" fill="#5E5455" />
<rect x="94" y="86" width="1" height="2" fill="#ADA081" />
<rect x="104" y="86" width="2" height="8" fill="#977B6B" />
<rect x="117" y="86" width="1" height="3" fill="#161C2E" />
<rect x="77" y="87" width="1" height="2" fill="#977B6B" />
<rect x="85" y="87" width="2" height="3" fill="#5E5455" />
<rect x="95" y="87" width="1" height="1" fill="#ADA081" />
<rect x="96" y="87" width="3" height="8" fill="#977B6B" />
<rect x="106" y="87" width="2" height="4" fill="#5E5455" />
<rect x="115" y="87" width="1" height="5" fill="#977B6B" />
<rect x="118" y="87" width="1" height="5" fill="#161C2E" />
<rect x="73" y="88" width="1" height="7" fill="#161C2E" />
<rect x="76" y="88" width="1" height="9" fill="#977B6B" />
<rect x="92" y="88" width="4" height="6" fill="#977B6B" />
<rect x="116" y="88" width="1" height="4" fill="#977B6B" />
<rect x="119" y="88" width="1" height="5" fill="#161C2E" />
<rect x="75" y="89" width="1" height="6" fill="#977B6B" />
<rect x="77" y="89" width="1" height="6" fill="#5E5455" />
<rect x="117" y="89" width="1" height="5" fill="#977B6B" />
<rect x="83" y="90" width="1" height="8" fill="#5E5455" />
<rect x="84" y="90" width="3" height="2" fill="#977B6B" />
<rect x="87" y="90" width="1" height="1" fill="#5E5455" />
<rect x="87" y="91" width="1" height="4" fill="#977B6B" />
<rect x="106" y="91" width="2" height="3" fill="#977B6B" />
<rect x="120" y="91" width="1" height="7" fill="#161C2E" />
<rect x="84" y="92" width="1" height="6" fill="#5E5455" />
<rect x="85" y="92" width="2" height="1" fill="#977B6B" />
<rect x="88" y="92" width="1" height="14" fill="#5E5455" />
<rect x="89" y="92" width="2" height="1" fill="#977B6B" />
<rect x="114" y="92" width="3" height="2" fill="#161C2E" />
<rect x="118" y="92" width="1" height="5" fill="#977B6B" />
<rect x="121" y="92" width="1" height="5" fill="#161C2E" />
<rect x="85" y="93" width="1" height="5" fill="#5E5455" />
<rect x="86" y="93" width="1" height="1" fill="#977B6B" />
<rect x="89" y="93" width="3" height="16" fill="#5E5455" />
<rect x="110" y="93" width="4" height="2" fill="#5E5455" />
<rect x="119" y="93" width="1" height="3" fill="#977B6B" />
<rect x="86" y="94" width="1" height="5" fill="#5E5455" />
<rect x="92" y="94" width="4" height="1" fill="#5E5455" />
<rect x="104" y="94" width="6" height="2" fill="#5E5455" />
<rect x="114" y="94" width="1" height="3" fill="#C8A876" />
<rect x="115" y="94" width="3" height="1" fill="#161C2E" />
<rect x="75" y="95" width="1" height="5" fill="#161C2E" />
<rect x="77" y="95" width="1" height="3" fill="#977B6B" />
<rect x="87" y="95" width="1" height="5" fill="#5E5455" />
<rect x="92" y="95" width="3" height="1" fill="#5E5455" />
<rect x="95" y="95" width="5" height="2" fill="#161C2E" />
<rect x="100" y="95" width="4" height="1" fill="#5E5455" />
<rect x="110" y="95" width="1" height="1" fill="#5E5455" />
<rect x="111" y="95" width="3" height="2" fill="#C8A876" />
<rect x="115" y="95" width="1" height="2" fill="#C8A876" />
<rect x="116" y="95" width="2" height="4" fill="#161C2E" />
<rect x="78" y="96" width="1" height="2" fill="#977B6B" />
<rect x="92" y="96" width="2" height="1" fill="#5E5455" />
<rect x="94" y="96" width="1" height="10" fill="#161C2E" />
<rect x="100" y="96" width="2" height="1" fill="#161C2E" />
<rect x="102" y="96" width="5" height="1" fill="#5E5455" />
<rect x="107" y="96" width="4" height="3" fill="#C8A876" />
<rect x="119" y="96" width="1" height="3" fill="#161C2E" />
<rect x="66" y="97" width="5" height="3" fill="#161C2E" />
<rect x="76" y="97" width="1" height="3" fill="#161C2E" />
<rect x="79" y="97" width="2" height="2" fill="#977B6B" />
<rect x="92" y="97" width="1" height="14" fill="#5E5455" />
<rect x="93" y="97" width="1" height="7" fill="#161C2E" />
<rect x="95" y="97" width="2" height="1" fill="#161C2E" />
<rect x="97" y="97" width="10" height="3" fill="#C8A876" />
<rect x="111" y="97" width="2" height="1" fill="#C8A876" />
<rect x="113" y="97" width="2" height="2" fill="#161C2E" />
<rect x="115" y="97" width="1" height="9" fill="#EFE1AB" />
<rect x="118" y="97" width="1" height="9" fill="#161C2E" />
<rect x="64" y="98" width="2" height="4" fill="#161C2E" />
<rect x="71" y="98" width="1" height="5" fill="#161C2E" />
<rect x="73" y="98" width="1" height="6" fill="#161C2E" />
<rect x="77" y="98" width="2" height="3" fill="#161C2E" />
<rect x="81" y="98" width="1" height="1" fill="#977B6B" />
<rect x="82" y="98" width="4" height="3" fill="#161C2E" />
<rect x="95" y="98" width="1" height="1" fill="#161C2E" />
<rect x="96" y="98" width="1" height="7" fill="#C8A876" />
<rect x="111" y="98" width="1" height="2" fill="#C8A876" />
<rect x="112" y="98" width="1" height="2" fill="#161C2E" />
<rect x="72" y="99" width="1" height="4" fill="#161C2E" />
<rect x="79" y="99" width="3" height="2" fill="#161C2E" />
<rect x="86" y="99" width="1" height="6" fill="#161C2E" />
<rect x="95" y="99" width="1" height="5" fill="#C8A876" />
<rect x="107" y="99" width="1" height="1" fill="#C8A876" />
<rect x="108" y="99" width="2" height="1" fill="#161C2E" />
<rect x="110" y="99" width="1" height="1" fill="#C8A876" />
<rect x="113" y="99" width="1" height="2" fill="#161C2E" />
<rect x="114" y="99" width="1" height="1" fill="#C8A876" />
<rect x="116" y="99" width="1" height="6" fill="#EFE1AB" />
<rect x="117" y="99" width="1" height="8" fill="#161C2E" />
<rect x="138" y="99" width="1" height="10" fill="#DAF3EE" />
<rect x="63" y="100" width="1" height="7" fill="#161C2E" />
<rect x="66" y="100" width="3" height="6" fill="#C8A876" />
<rect x="69" y="100" width="2" height="1" fill="#161C2E" />
<rect x="75" y="100" width="2" height="2" fill="#474144" />
<rect x="87" y="100" width="1" height="11" fill="#161C2E" />
<rect x="97" y="100" width="1" height="6" fill="#C8A876" />
<rect x="98" y="100" width="2" height="2" fill="#161C2E" />
<rect x="100" y="100" width="7" height="1" fill="#C8A876" />
<rect x="107" y="100" width="2" height="2" fill="#FFFFFF" />
<rect x="109" y="100" width="2" height="3" fill="#161C2E" />
<rect x="111" y="100" width="2" height="1" fill="#EFE1AB" />
<rect x="114" y="100" width="1" height="1" fill="#161C2E" />
<rect x="69" y="101" width="1" height="6" fill="#C8A876" />
<rect x="70" y="101" width="1" height="1" fill="#161C2E" />
<rect x="77" y="101" width="7" height="2" fill="#474144" />
<rect x="84" y="101" width="2" height="1" fill="#161C2E" />
<rect x="100" y="101" width="1" height="2" fill="#161C2E" />
<rect x="101" y="101" width="2" height="1" fill="#C8A876" />
<rect x="103" y="101" width="2" height="3" fill="#161C2E" />
<rect x="105" y="101" width="2" height="1" fill="#FFFFFF" />
<rect x="111" y="101" width="1" height="2" fill="#161C2E" />
<rect x="112" y="101" width="3" height="6" fill="#EFE1AB" />
<rect x="139" y="101" width="1" height="5" fill="#DAF3EE" />
<rect x="64" y="102" width="1" height="6" fill="#161C2E" />
<rect x="65" y="102" width="1" height="3" fill="#C8A876" />
<rect x="70" y="102" width="1" height="5" fill="#C8A876" />
<rect x="75" y="102" width="2" height="2" fill="#161C2E" />
<rect x="84" y="102" width="1" height="6" fill="#474144" />
<rect x="85" y="102" width="1" height="1" fill="#161C2E" />
<rect x="98" y="102" width="1" height="1" fill="#C8A876" />
<rect x="99" y="102" width="1" height="2" fill="#161C2E" />
<rect x="101" y="102" width="2" height="7" fill="#EFE1AB" />
<rect x="105" y="102" width="4" height="1" fill="#161C2E" />
<rect x="71" y="103" width="2" height="4" fill="#C8A876" />
<rect x="77" y="103" width="1" height="6" fill="#161C2E" />
<rect x="78" y="103" width="6" height="1" fill="#474144" />
<rect x="85" y="103" width="1" height="5" fill="#474144" />
<rect x="98" y="103" width="1" height="1" fill="#161C2E" />
<rect x="100" y="103" width="1" height="6" fill="#EFE1AB" />
<rect x="105" y="103" width="2" height="2" fill="#161C2E" />
<rect x="107" y="103" width="3" height="1" fill="#FFFFFF" />
<rect x="110" y="103" width="1" height="1" fill="#161C2E" />
<rect x="111" y="103" width="1" height="5" fill="#EFE1AB" />
<rect x="73" y="104" width="3" height="2" fill="#C8A876" />
<rect x="76" y="104" width="1" height="4" fill="#161C2E" />
<rect x="78" y="104" width="2" height="3" fill="#474144" />
<rect x="80" y="104" width="1" height="12" fill="#161C2E" />
<rect x="81" y="104" width="3" height="1" fill="#474144" />
<rect x="93" y="104" width="1" height="7" fill="#5E5455" />
<rect x="95" y="104" width="1" height="3" fill="#161C2E" />
<rect x="98" y="104" width="1" height="5" fill="#C8A876" />
<rect x="99" y="104" width="1" height="3" fill="#EFE1AB" />
<rect x="103" y="104" width="1" height="6" fill="#EFE1AB" />
<rect x="104" y="104" width="1" height="1" fill="#161C2E" />
<rect x="107" y="104" width="2" height="1" fill="#161C2E" />
<rect x="109" y="104" width="2" height="5" fill="#EFE1AB" />
<rect x="65" y="105" width="1" height="4" fill="#161C2E" />
<rect x="81" y="105" width="1" height="4" fill="#161C2E" />
<rect x="82" y="105" width="2" height="2" fill="#474144" />
<rect x="86" y="105" width="1" height="2" fill="#474144" />
<rect x="96" y="105" width="1" height="7" fill="#161C2E" />
<rect x="104" y="105" width="5" height="4" fill="#EFE1AB" />
<rect x="116" y="105" width="1" height="3" fill="#161C2E" />
<rect x="66" y="106" width="1" height="4" fill="#161C2E" />
<rect x="67" y="106" width="2" height="1" fill="#C8A876" />
<rect x="73" y="106" width="2" height="1" fill="#C8A876" />
<rect x="75" y="106" width="1" height="3" fill="#161C2E" />
<rect x="88" y="106" width="1" height="6" fill="#161C2E" />
<rect x="94" y="106" width="1" height="5" fill="#5E5455" />
<rect x="97" y="106" width="1" height="6" fill="#161C2E" />
<rect x="115" y="106" width="1" height="8" fill="#161C2E" />
<rect x="67" y="107" width="8" height="2" fill="#161C2E" />
<rect x="78" y="107" width="2" height="4" fill="#161C2E" />
<rect x="82" y="107" width="1" height="3" fill="#161C2E" />
<rect x="83" y="107" width="1" height="1" fill="#474144" />
<rect x="86" y="107" width="1" height="4" fill="#161C2E" />
<rect x="95" y="107" width="1" height="3" fill="#5E5455" />
<rect x="99" y="107" width="1" height="2" fill="#C8A876" />
<rect x="112" y="107" width="1" height="1" fill="#EFE1AB" />
<rect x="113" y="107" width="2" height="3" fill="#161C2E" />
<rect x="83" y="108" width="3" height="2" fill="#161C2E" />
<rect x="111" y="108" width="2" height="3" fill="#161C2E" />
<rect x="67" y="109" width="5" height="1" fill="#161C2E" />
<rect x="81" y="109" width="1" height="2" fill="#485884" />
<rect x="89" y="109" width="1" height="3" fill="#161C2E" />
<rect x="90" y="109" width="2" height="1" fill="#5E5455" />
<rect x="98" y="109" width="2" height="3" fill="#161C2E" />
<rect x="100" y="109" width="2" height="1" fill="#C8A876" />
<rect x="102" y="109" width="1" height="1" fill="#EFE1AB" />
<rect x="104" y="109" width="3" height="1" fill="#EFE1AB" />
<rect x="107" y="109" width="4" height="2" fill="#161C2E" />
<rect x="82" y="110" width="2" height="4" fill="#485884" />
<rect x="84" y="110" width="2" height="1" fill="#161C2E" />
<rect x="90" y="110" width="2" height="2" fill="#161C2E" />
<rect x="95" y="110" width="1" height="2" fill="#161C2E" />
<rect x="100" y="110" width="7" height="2" fill="#161C2E" />
<rect x="113" y="110" width="1" height="2" fill="#485884" />
<rect x="114" y="110" width="1" height="6" fill="#161C2E" />
<rect x="79" y="111" width="1" height="3" fill="#161C2E" />
<rect x="81" y="111" width="1" height="6" fill="#161C2E" />
<rect x="84" y="111" width="4" height="5" fill="#485884" />
<rect x="92" y="111" width="3" height="1" fill="#161C2E" />
<rect x="107" y="111" width="3" height="1" fill="#161C2E" />
<rect x="110" y="111" width="3" height="1" fill="#485884" />
<rect x="116" y="111" width="5" height="2" fill="#161C2E" />
<rect x="88" y="112" width="14" height="1" fill="#485884" />
<rect x="102" y="112" width="9" height="2" fill="#4697AC" />
<rect x="111" y="112" width="2" height="2" fill="#485884" />
<rect x="113" y="112" width="1" height="7" fill="#161C2E" />
<rect x="121" y="112" width="1" height="4" fill="#161C2E" />
<rect x="88" y="113" width="7" height="6" fill="#485884" />
<rect x="95" y="113" width="7" height="2" fill="#4697AC" />
<rect x="116" y="113" width="4" height="1" fill="#69777F" />
<rect x="120" y="113" width="1" height="3" fill="#161C2E" />
<rect x="138" y="113" width="1" height="9" fill="#DAF3EE" />
<rect x="82" y="114" width="1" height="4" fill="#161C2E" />
<rect x="83" y="114" width="1" height="1" fill="#485884" />
<rect x="102" y="114" width="8" height="1" fill="#4697AC" />
<rect x="110" y="114" width="2" height="2" fill="#485884" />
<rect x="112" y="114" width="1" height="6" fill="#161C2E" />
<rect x="115" y="114" width="4" height="1" fill="#69777F" />
<rect x="119" y="114" width="1" height="5" fill="#161C2E" />
<rect x="122" y="114" width="1" height="5" fill="#161C2E" />
<rect x="83" y="115" width="1" height="4" fill="#161C2E" />
<rect x="95" y="115" width="1" height="5" fill="#485884" />
<rect x="96" y="115" width="12" height="1" fill="#4697AC" />
<rect x="108" y="115" width="2" height="2" fill="#485884" />
<rect x="115" y="115" width="4" height="1" fill="#161C2E" />
<rect x="123" y="115" width="1" height="4" fill="#161C2E" />
<rect x="84" y="116" width="1" height="4" fill="#161C2E" />
<rect x="85" y="116" width="3" height="1" fill="#485884" />
<rect x="96" y="116" width="12" height="2" fill="#485884" />
<rect x="110" y="116" width="1" height="1" fill="#485884" />
<rect x="111" y="116" width="1" height="11" fill="#161C2E" />
<rect x="114" y="116" width="5" height="1" fill="#C8A876" />
<rect x="120" y="116" width="2" height="1" fill="#C8A876" />
<rect x="137" y="116" width="1" height="10" fill="#DAF3EE" />
<rect x="85" y="117" width="1" height="3" fill="#161C2E" />
<rect x="86" y="117" width="2" height="1" fill="#485884" />
<rect x="108" y="117" width="1" height="1" fill="#485884" />
<rect x="109" y="117" width="2" height="6" fill="#161C2E" />
<rect x="114" y="117" width="2" height="2" fill="#161C2E" />
<rect x="116" y="117" width="2" height="1" fill="#C8A876" />
<rect x="118" y="117" width="1" height="2" fill="#161C2E" />
<rect x="120" y="117" width="2" height="2" fill="#161C2E" />
<rect x="124" y="117" width="1" height="2" fill="#161C2E" />
<rect x="86" y="118" width="2" height="3" fill="#161C2E" />
<rect x="96" y="118" width="11" height="1" fill="#485884" />
<rect x="107" y="118" width="2" height="6" fill="#161C2E" />
<rect x="116" y="118" width="2" height="1" fill="#161C2E" />
<rect x="125" y="118" width="2" height="3" fill="#161C2E" />
<rect x="88" y="119" width="3" height="3" fill="#161C2E" />
<rect x="91" y="119" width="4" height="1" fill="#485884" />
<rect x="96" y="119" width="7" height="1" fill="#485884" />
<rect x="103" y="119" width="4" height="2" fill="#161C2E" />
<rect x="113" y="119" width="12" height="1" fill="#A0B3B6" />
<rect x="127" y="119" width="1" height="4" fill="#161C2E" />
<rect x="84" y="120" width="2" height="13" fill="#161C2E" opacity="0.270588" />
<rect x="91" y="120" width="12" height="2" fill="#161C2E" />
<rect x="112" y="120" width="11" height="1" fill="#A0B3B6" />
<rect x="123" y="120" width="2" height="2" fill="#69777F" />
<rect x="82" y="121" width="2" height="11" fill="#161C2E" opacity="0.270588" />
<rect x="86" y="121" width="2" height="12" fill="#161C2E" opacity="0.270588" />
<rect x="103" y="121" width="1" height="4" fill="#161C2E" opacity="0.270588" />
<rect x="104" y="121" width="3" height="1" fill="#161C2E" />
<rect x="112" y="121" width="3" height="1" fill="#A0B3B6" />
<rect x="115" y="121" width="8" height="1" fill="#69777F" />
<rect x="125" y="121" width="1" height="2" fill="#69777F" />
<rect x="126" y="121" width="1" height="3" fill="#161C2E" />
<rect x="136" y="121" width="1" height="7" fill="#DAF3EE" />
<rect x="81" y="122" width="1" height="9" fill="#161C2E" opacity="0.270588" />
<rect x="88" y="122" width="1" height="12" fill="#161C2E" opacity="0.270588" />
<rect x="89" y="122" width="9" height="1" fill="#161C2E" />
<rect x="98" y="122" width="5" height="13" fill="#161C2E" opacity="0.270588" />
<rect x="104" y="122" width="1" height="1" fill="#161C2E" opacity="0.270588" />
<rect x="105" y="122" width="2" height="6" fill="#161C2E" />
<rect x="112" y="122" width="6" height="1" fill="#69777F" />
<rect x="118" y="122" width="1" height="4" fill="#A0B3B6" />
<rect x="119" y="122" width="1" height="11" fill="#DAF3EE" />
<rect x="120" y="122" width="1" height="1" fill="#69777F" />
<rect x="121" y="122" width="3" height="1" fill="#161C2E" />
<rect x="124" y="122" width="1" height="1" fill="#69777F" />
<rect x="80" y="123" width="1" height="7" fill="#161C2E" opacity="0.270588" />
<rect x="89" y="123" width="3" height="1" fill="#161C2E" opacity="0.270588" />
<rect x="92" y="123" width="6" height="1" fill="#161C2E" />
<rect x="104" y="123" width="1" height="4" fill="#161C2E" />
<rect x="109" y="123" width="1" height="11" fill="#161C2E" opacity="0.270588" />
<rect x="110" y="123" width="1" height="3" fill="#161C2E" />
<rect x="112" y="123" width="3" height="1" fill="#69777F" />
<rect x="115" y="123" width="1" height="3" fill="#161C2E" />
<rect x="116" y="123" width="2" height="6" fill="#A0B3B6" />
<rect x="120" y="123" width="2" height="7" fill="#DAF3EE" />
<rect x="122" y="123" width="4" height="2" fill="#161C2E" />
<rect x="79" y="124" width="1" height="5" fill="#161C2E" opacity="0.270588" />
<rect x="89" y="124" width="1" height="10" fill="#161C2E" opacity="0.270588" />
<rect x="90" y="124" width="7" height="1" fill="#161C2E" />
<rect x="97" y="124" width="1" height="11" fill="#161C2E" opacity="0.270588" />
<rect x="107" y="124" width="2" height="2" fill="#161C2E" opacity="0.270588" />
<rect x="112" y="124" width="2" height="1" fill="#69777F" />
<rect x="114" y="124" width="1" height="4" fill="#161C2E" />
<rect x="135" y="124" width="1" height="6" fill="#DAF3EE" />
<rect x="90" y="125" width="4" height="1" fill="#161C2E" />
<rect x="94" y="125" width="3" height="1" fill="#161C2E" opacity="0.270588" />
<rect x="103" y="125" width="1" height="2" fill="#161C2E" />
<rect x="112" y="125" width="2" height="2" fill="#161C2E" />
<rect x="122" y="125" width="3" height="1" fill="#161C2E" />
<rect x="90" y="126" width="1" height="8" fill="#161C2E" opacity="0.270588" />
<rect x="91" y="126" width="4" height="1" fill="#161C2E" />
<rect x="95" y="126" width="2" height="9" fill="#161C2E" opacity="0.270588" />
<rect x="107" y="126" width="1" height="2" fill="#161C2E" />
<rect x="108" y="126" width="1" height="1" fill="#161C2E" opacity="0.270588" />
<rect x="110" y="126" width="1" height="7" fill="#161C2E" opacity="0.270588" />
<rect x="115" y="126" width="1" height="1" fill="#A0B3B6" />
<rect x="118" y="126" width="1" height="2" fill="#DAF3EE" />
<rect x="122" y="126" width="1" height="6" fill="#A0B3B6" />
<rect x="123" y="126" width="1" height="2" fill="#161C2E" />
<rect x="134" y="126" width="1" height="6" fill="#DAF3EE" />
<rect x="91" y="127" width="1" height="7" fill="#161C2E" opacity="0.270588" />
<rect x="92" y="127" width="3" height="1" fill="#161C2E" />
<rect x="103" y="127" width="2" height="8" fill="#161C2E" opacity="0.270588" />
<rect x="108" y="127" width="1" height="1" fill="#161C2E" />
<rect x="111" y="127" width="2" height="6" fill="#161C2E" opacity="0.270588" />
<rect x="113" y="127" width="1" height="1" fill="#161C2E" />
<rect x="115" y="127" width="1" height="5" fill="#69777F" />
<rect x="92" y="128" width="3" height="7" fill="#161C2E" opacity="0.270588" />
<rect x="105" y="128" width="4" height="6" fill="#161C2E" opacity="0.270588" />
<rect x="113" y="128" width="1" height="4" fill="#161C2E" opacity="0.270588" />
<rect x="114" y="128" width="1" height="2" fill="#69777F" />
<rect x="118" y="128" width="1" height="5" fill="#A0B3B6" />
<rect x="123" y="128" width="1" height="3" fill="#A0B3B6" />
<rect x="133" y="128" width="1" height="6" fill="#DAF3EE" />
<rect x="116" y="129" width="1" height="4" fill="#69777F" />
<rect x="117" y="129" width="1" height="2" fill="#A0B3B6" />
<rect x="114" y="130" width="1" height="2" fill="#161C2E" opacity="0.270588" />
<rect x="120" y="130" width="1" height="1" fill="#DAF3EE" />
<rect x="121" y="130" width="1" height="4" fill="#A0B3B6" />
<rect x="132" y="130" width="1" height="5" fill="#DAF3EE" />
<rect x="117" y="131" width="1" height="3" fill="#69777F" />
<rect x="120" y="131" width="1" height="4" fill="#A0B3B6" />
<rect x="131" y="132" width="1" height="4" fill="#DAF3EE" />
<rect x="87" y="133" width="1" height="1" fill="#161C2E" opacity="0.270588" />
<rect x="118" y="133" width="1" height="2" fill="#69777F" />
<rect x="119" y="133" width="1" height="2" fill="#A0B3B6" />
<rect x="130" y="134" width="1" height="3" fill="#DAF3EE" />
<rect x="129" y="135" width="1" height="3" fill="#DAF3EE" />
<rect x="128" y="137" width="1" height="2" fill="#DAF3EE" />
<rect x="127" y="138" width="1" height="2" fill="#DAF3EE" />
</svg>