<?xml version="1.0" encoding="UTF-8" ?>
<svg version="1.1" width="192" height="192" xmlns="http://www.w3.org/2000/svg" shape-rendering="crispEdges">
<rect x="93" y="63" width="5" height="3" fill="#5E5455" />
<rect x="89" y="64" width="4" height="3" fill="#5E5455" />
<rect x="98" y="64" width="1" height="3" fill="#5E5455" />
<rect x="83" y="65" width="6" height="3" fill="#5E5455" />
<rect x="99" y="65" width="1" height="3" fill="#5E5455" />
<rect x="82" y="66" width="1" height="1" fill="#5E5455" />
<rect x="93" y="66" width="5" height="8" fill="#977B6B" />
<rect x="100" y="66" width="1" height="8" fill="#5E5455" />
<rect x="80" y="67" width="3" height="1" fill="#161C2E" />
<rect x="89" y="67" width="3" height="1" fill="#5E5455" />
<rect x="92" y="67" width="1" height="6" fill="#977B6B" />
<rect x="98" y="67" width="1" height="17" fill="#977B6B" />
<rect x="101" y="67" width="1" height="8" fill="#5E5455" />
<rect x="79" y="68" width="3" height="1" fill="#161C2E" />
<rect x="82" y="68" width="3" height="1" fill="#5E5455" />
<rect x="85" y="68" width="5" height="11" fill="#977B6B" />
<rect x="90" y="68" width="2" height="2" fill="#5E5455" />
<rect x="99" y="68" width="1" height="9" fill="#977B6B" />
<rect x="78" y="69" width="3" height="2" fill="#161C2E" />
<rect x="81" y="69" width="3" height="1" fill="#5E5455" />
<rect x="84" y="69" width="1" height="10" fill="#977B6B" />
<rect x="77" y="70" width="1" height="12" fill="#161C2E" />
<rect x="81" y="70" width="3" height="8" fill="#977B6B" />
<rect x="90" y="70" width="2" height="2" fill="#977B6B" />
<rect x="76" y="71" width="1" height="10" fill="#161C2E" />
<rect x="78" y="71" width="1" height="2" fill="#161C2E" />
<rect x="79" y="71" width="2" height="1" fill="#5E5455" />
<rect x="79" y="72" width="1" height="9" fill="#5E5455" />
<rect x="80" y="72" width="1" height="5" fill="#977B6B" />
<rect x="90" y="72" width="1" height="7" fill="#977B6B" />
<rect x="91" y="72" width="1" height="3" fill="#5E5455" />
<rect x="102" y="72" width="1" height="3" fill="#5E5455" />
<rect x="105" y="72" width="7" height="2" fill="#5E5455" />
<rect x="78" y="73" width="1" height="6" fill="#5E5455" />
<rect x="92" y="73" width="1" height="3" fill="#5E5455" />
<rect x="103" y="73" width="2" height="2" fill="#5E5455" />
<rect x="112" y="73" width="1" height="4" fill="#5E5455" />
<rect x="75" y="74" width="1" height="5" fill="#161C2E" />
<rect x="93" y="74" width="1" height="2" fill="#5E5455" />
<rect x="94" y="74" width="4" height="2" fill="#977B6B" />
<rect x="100" y="74" width="1" height="3" fill="#977B6B" />
<rect x="105" y="74" width="5" height="6" fill="#977B6B" />
<rect x="110" y="74" width="2" height="1" fill="#5E5455" />
<rect x="113" y="74" width="1" height="6" fill="#5E5455" />
<rect x="91" y="75" width="1" height="4" fill="#977B6B" />
<rect x="101" y="75" width="4" height="3" fill="#977B6B" />
<rect x="110" y="75" width="1" height="5" fill="#977B6B" />
<rect x="111" y="75" width="1" height="1" fill="#5E5455" />
<rect x="92" y="76" width="2" height="3" fill="#977B6B" />
<rect x="94" y="76" width="4" height="1" fill="#5E5455" />
<rect x="111" y="76" width="1" height="5" fill="#977B6B" />
<rect x="114" y="76" width="1" height="1" fill="#5E5455" />
<rect x="80" y="77" width="1" height="6" fill="#5E5455" />
<rect x="94" y="77" width="1" height="7" fill="#977B6B" />
<rect x="95" y="77" width="3" height="1" fill="#5E5455" />
<rect x="99" y="77" width="2" height="2" fill="#5E5455" />
<rect x="112" y="77" width="1" height="5" fill="#977B6B" />
<rect x="114" y="77" width="1" height="5" fill="#161C2E" />
<rect x="81" y="78" width="2" height="5" fill="#5E5455" />
<rect x="83" y="78" width="1" height="1" fill="#977B6B" />
<rect x="95" y="78" width="3" height="5" fill="#977B6B" />
<rect x="101" y="78" width="1" height="2" fill="#5E5455" />
<rect x="102" y="78" width="3" height="1" fill="#977B6B" />
<rect x="115" y="78" width="1" height="7" fill="#161C2E" />
<rect x="78" y="79" width="1" height="9" fill="#161C2E" />
<rect x="83" y="79" width="10" height="1" fill="#5E5455" />
<rect x="93" y="79" width="1" height="18" fill="#977B6B" />
<rect x="99" y="79" width="1" height="6" fill="#977B6B" />
<rect x="100" y="79" width="1" height="1" fill="#5E5455" />
<rect x="102" y="79" width="1" height="4" fill="#977B6B" />
<rect x="103" y="79" width="1" height="3" fill="#5E5455" />
<rect x="104" y="79" width="1" height="1" fill="#977B6B" />
<rect x="83" y="80" width="9" height="1" fill="#5E5455" />
<rect x="92" y="80" width="1" height="16" fill="#977B6B" />
<rect x="100" y="80" width="2" height="3" fill="#977B6B" />
<rect x="104" y="80" width="1" height="3" fill="#5E5455" />
<rect x="105" y="80" width="3" height="1" fill="#977B6B" />
<rect x="108" y="80" width="3" height="3" fill="#ADA081" />
<rect x="113" y="80" width="1" height="15" fill="#977B6B" />
<rect x="116" y="80" width="1" height="8" fill="#161C2E" />
<rect x="79" y="81" width="1" height="6" fill="#161C2E" />
<rect x="83" y="81" width="8" height="1" fill="#5E5455" />
<rect x="91" y="81" width="1" height="15" fill="#977B6B" />
<rect x="105" y="81" width="2" height="2" fill="#5E5455" />
<rect x="107" y="81" width="1" height="4" fill="#977B6B" />
<rect x="111" y="81" width="1" height="4" fill="#ADA081" />
<rect x="83" y="82" width="6" height="1" fill="#5E5455" />
<rect x="89" y="82" width="2" height="13" fill="#977B6B" />
<rect x="103" y="82" width="1" height="2" fill="#977B6B" />
<rect x="112" y="82" width="1" height="3" fill="#ADA081" />
<rect x="114" y="82" width="1" height="12" fill="#977B6B" />
<rect x="117" y="82" width="1" height="7" fill="#161C2E" />
<rect x="80" y="83" width="2" height="2" fill="#161C2E" />
<rect x="82" y="83" width="6" height="2" fill="#5E5455" />
<rect x="88" y="83" width="1" height="10" fill="#977B6B" />
<rect x="95" y="83" width="3" height="4" fill="#ADA081" />
<rect x="100" y="83" width="3" height="3" fill="#ADA081" />
<rect x="104" y="83" width="3" height="2" fill="#977B6B" />
<rect x="108" y="83" width="1" height="3" fill="#977B6B" />
<rect x="109" y="83" width="2" height="1" fill="#ADA081" />
<rect x="77" y="84" width="1" height="6" fill="#161C2E" />
<rect x="94" y="84" width="1" height="2" fill="#ADA081" />
<rect x="98" y="84" width="1" height="4" fill="#ADA081" />
<rect x="103" y="84" width="1" height="3" fill="#ADA081" />
<rect x="109" y="84" width="1" height="6" fill="#977B6B" />
<rect x="110" y="84" width="1" height="1" fill="#ADA081" />
<rect x="80" y="85" width="1" height="1" fill="#161C2E" />
<rect x="81" y="85" width="5" height="8" fill="#5E5455" />
<rect x="86" y="85" width="2" height="5" fill="#977B6B" />
<rect x="99" y="85" width="1" height="3" fill="#ADA081" />
<rect x="104" y="85" width="1" height="2" fill="#ADA081" />
<rect x="105" y="85" width="2" height="12" fill="#977B6B" />
<rect x="107" y="85" width="1" height="4" fill="#5E5455" />
<rect x="110" y="85" width="3" height="10" fill="#977B6B" />
<rect x="115" y="85" width="1" height="8" fill="#977B6B" />
<rect x="80" y="86" width="1" height="14" fill="#5E5455" />
<rect x="94" y="86" width="1" height="2" fill="#977B6B" />
<rect x="100" y="86" width="1" height="12" fill="#977B6B" />
<rect x="101" y="86" width="2" height="1" fill="#ADA081" />
<rect x="108" y="86" width="1" height="3" fill="#5E5455" />
<rect x="118" y="86" width="2" height="3" fill="#161C2E" />
<rect x="76" y="87" width="1" height="4" fill="#161C2E" />
<rect x="79" y="87" width="1" height="13" fill="#5E5455" />
<rect x="95" y="87" width="1" height="1" fill="#977B6B" />
<rect x="96" y="87" width="2" height="1" fill="#ADA081" />
<rect x="101" y="87" width="4" height="10" fill="#977B6B" />
<rect x="120" y="87" width="1" height="4" fill="#161C2E" />
<rect x="75" y="88" width="1" height="36" fill="#161C2E" />
<rect x="78" y="88" width="1" height="11" fill="#5E5455" />
<rect x="94" y="88" width="2" height="2" fill="#ADA081" />
<rect x="96" y="88" width="4" height="1" fill="#977B6B" />
<rect x="116" y="88" width="1" height="5" fill="#977B6B" />
<rect x="121" y="88" width="1" height="11" fill="#161C2E" />
<rect x="96" y="89" width="1" height="2" fill="#ADA081" />
<rect x="97" y="89" width="3" height="9" fill="#977B6B" />
<rect x="107" y="89" width="2" height="1" fill="#977B6B" />
<rect x="117" y="89" width="2" height="4" fill="#977B6B" />
<rect x="119" y="89" width="1" height="1" fill="#161C2E" />
<rect x="74" y="90" width="1" height="20" fill="#161C2E" />
<rect x="77" y="90" width="1" height="3" fill="#977B6B" />
<rect x="86" y="90" width="2" height="3" fill="#5E5455" />
<rect x="94" y="90" width="1" height="7" fill="#977B6B" />
<rect x="95" y="90" width="1" height="1" fill="#ADA081" />
<rect x="107" y="90" width="1" height="7" fill="#977B6B" />
<rect x="108" y="90" width="2" height="4" fill="#5E5455" />
<rect x="119" y="90" width="1" height="4" fill="#977B6B" />
<rect x="76" y="91" width="1" height="9" fill="#977B6B" />
<rect x="95" y="91" width="2" height="6" fill="#977B6B" />
<rect x="120" y="91" width="1" height="4" fill="#977B6B" />
<rect x="122" y="91" width="1" height="7" fill="#161C2E" />
<rect x="77" y="93" width="1" height="5" fill="#5E5455" />
<rect x="81" y="93" width="3" height="8" fill="#5E5455" />
<rect x="84" y="93" width="4" height="2" fill="#977B6B" />
<rect x="88" y="93" width="1" height="1" fill="#5E5455" />
<rect x="115" y="93" width="4" height="3" fill="#161C2E" />
<rect x="88" y="94" width="1" height="4" fill="#977B6B" />
<rect x="108" y="94" width="2" height="2" fill="#977B6B" />
<rect x="114" y="94" width="1" height="3" fill="#5E5455" />
<rect x="119" y="94" width="1" height="15" fill="#161C2E" />
<rect x="84" y="95" width="1" height="6" fill="#5E5455" />
<rect x="85" y="95" width="3" height="1" fill="#977B6B" />
<rect x="89" y="95" width="1" height="10" fill="#5E5455" />
<rect x="90" y="95" width="1" height="1" fill="#977B6B" />
<rect x="110" y="95" width="2" height="1" fill="#977B6B" />
<rect x="112" y="95" width="2" height="2" fill="#5E5455" />
<rect x="120" y="95" width="1" height="5" fill="#161C2E" />
<rect x="85" y="96" width="1" height="5" fill="#5E5455" />
<rect x="86" y="96" width="2" height="1" fill="#977B6B" />
<rect x="90" y="96" width="3" height="10" fill="#5E5455" />
<rect x="108" y="96" width="4" height="2" fill="#5E5455" />
<rect x="115" y="96" width="1" height="4" fill="#C8A876" />
<rect x="116" y="96" width="3" height="1" fill="#161C2E" />
<rect x="86" y="97" width="2" height="5" fill="#5E5455" />
<rect x="93" y="97" width="4" height="1" fill="#5E5455" />
<rect x="101" y="97" width="2" height="1" fill="#977B6B" />
<rect x="103" y="97" width="5" height="2" fill="#5E5455" />
<rect x="112" y="97" width="1" height="1" fill="#5E5455" />
<rect x="113" y="97" width="2" height="4" fill="#C8A876" />
<rect x="116" y="97" width="1" height="3" fill="#C8A876" />
<rect x="117" y="97" width="2" height="1" fill="#161C2E" />
<rect x="77" y="98" width="1" height="3" fill="#977B6B" />
<rect x="88" y="98" width="1" height="6" fill="#5E5455" />
<rect x="93" y="98" width="3" height="1" fill="#5E5455" />
<rect x="96" y="98" width="5" height="2" fill="#161C2E" />
<rect x="101" y="98" width="2" height="1" fill="#5E5455" />
<rect x="108" y="98" width="1" height="1" fill="#5E5455" />
<rect x="109" y="98" width="4" height="4" fill="#C8A876" />
<rect x="117" y="98" width="1" height="2" fill="#C8A876" />
<rect x="118" y="98" width="1" height="4" fill="#161C2E" />
<rect x="78" y="99" width="1" height="2" fill="#977B6B" />
<rect x="93" y="99" width="2" height="1" fill="#5E5455" />
<rect x="95" y="99" width="1" height="6" fill="#161C2E" />
<rect x="101" y="99" width="2" height="1" fill="#161C2E" />
<rect x="103" y="99" width="6" height="4" fill="#C8A876" />
<rect x="76" y="100" width="1" height="4" fill="#161C2E" />
<rect x="79" y="100" width="2" height="2" fill="#977B6B" />
<rect x="93" y="100" width="1" height="11" fill="#5E5455" />
<rect x="94" y="100" width="1" height="4" fill="#161C2E" />
<rect x="96" y="100" width="2" height="1" fill="#161C2E" />
<rect x="98" y="100" width="5" height="3" fill="#C8A876" />
<rect x="115" y="100" width="2" height="2" fill="#161C2E" />
<rect x="117" y="100" width="1" height="8" fill="#EFE1AB" />
<rect x="73" y="101" width="1" height="7" fill="#161C2E" />
<rect x="77" y="101" width="2" height="2" fill="#161C2E" />
<rect x="81" y="101" width="1" height="1" fill="#977B6B" />
<rect x="82" y="101" width="4" height="3" fill="#161C2E" />
<rect x="96" y="101" width="1" height="1" fill="#161C2E" />
<rect x="97" y="101" width="1" height="3" fill="#C8A876" />
<rect x="113" y="101" width="1" height="1" fill="#C8A876" />
<rect x="114" y="101" width="1" height="9" fill="#EFE1AB" />
<rect x="62" y="102" width="2" height="2" fill="#69777F" />
<rect x="64" y="102" width="1" height="6" fill="#161C2E" />
<rect x="79" y="102" width="3" height="2" fill="#161C2E" />
<rect x="86" y="102" width="2" height="3" fill="#161C2E" />
<rect x="96" y="102" width="1" height="1" fill="#C8A876" />
<rect x="109" y="102" width="1" height="2" fill="#C8A876" />
<rect x="110" y="102" width="2" height="3" fill="#161C2E" />
<rect x="112" y="102" width="2" height="8" fill="#EFE1AB" />
<rect x="115" y="102" width="2" height="7" fill="#EFE1AB" />
<rect x="118" y="102" width="1" height="4" fill="#EFE1AB" />
<rect x="120" y="102" width="1" height="7" fill="#161C2E" />
<rect x="61" y="103" width="1" height="3" fill="#69777F" />
<rect x="67" y="103" width="3" height="2" fill="#654848" />
<rect x="77" y="103" width="2" height="5" fill="#474144" />
<rect x="96" y="103" width="1" height="3" fill="#161C2E" />
<rect x="98" y="103" width="2" height="2" fill="#C8A876" />
<rect x="100" y="103" width="2" height="2" fill="#161C2E" />
<rect x="102" y="103" width="5" height="1" fill="#C8A876" />
<rect x="107" y="103" width="2" height="2" fill="#161C2E" />
<rect x="60" y="104" width="1" height="4" fill="#69777F" />
<rect x="62" y="104" width="1" height="1" fill="#69777F" />
<rect x="63" y="104" width="1" height="2" fill="#DAF3EE" />
<rect x="65" y="104" width="1" height="5" fill="#161C2E" />
<rect x="66" y="104" width="1" height="2" fill="#654848" />
<rect x="70" y="104" width="1" height="6" fill="#654848" />
<rect x="76" y="104" width="1" height="3" fill="#474144" />
<rect x="79" y="104" width="5" height="2" fill="#474144" />
<rect x="84" y="104" width="2" height="1" fill="#161C2E" />
<rect x="88" y="104" width="1" height="8" fill="#161C2E" />
<rect x="94" y="104" width="1" height="7" fill="#5E5455" />
<rect x="97" y="104" width="1" height="9" fill="#161C2E" />
<rect x="102" y="104" width="5" height="7" fill="#EFE1AB" />
<rect x="109" y="104" width="1" height="2" fill="#161C2E" />
<rect x="59" y="105" width="1" height="5" fill="#69777F" />
<rect x="62" y="105" width="1" height="3" fill="#DAF3EE" />
<rect x="67" y="105" width="2" height="3" fill="#DAB570" />
<rect x="69" y="105" width="1" height="1" fill="#654848" />
<rect x="71" y="105" width="1" height="4" fill="#654848" />
<rect x="84" y="105" width="3" height="5" fill="#474144" />
<rect x="87" y="105" width="1" height="2" fill="#161C2E" />
<rect x="89" y="105" width="1" height="7" fill="#161C2E" />
<rect x="95" y="105" width="1" height="6" fill="#5E5455" />
<rect x="98" y="105" width="1" height="5" fill="#161C2E" />
<rect x="99" y="105" width="1" height="6" fill="#C8A876" />
<rect x="100" y="105" width="2" height="4" fill="#EFE1AB" />
<rect x="107" y="105" width="1" height="7" fill="#EFE1AB" />
<rect x="108" y="105" width="1" height="1" fill="#161C2E" />
<rect x="110" y="105" width="1" height="1" fill="#161C2E" />
<rect x="111" y="105" width="1" height="6" fill="#EFE1AB" />
<rect x="61" y="106" width="1" height="5" fill="#DAF3EE" />
<rect x="63" y="106" width="1" height="12" fill="#A0B3B6" />
<rect x="66" y="106" width="1" height="4" fill="#161C2E" />
<rect x="69" y="106" width="1" height="1" fill="#DAB570" />
<rect x="72" y="106" width="1" height="1" fill="#161C2E" />
<rect x="79" y="106" width="2" height="2" fill="#474144" />
<rect x="81" y="106" width="1" height="6" fill="#161C2E" />
<rect x="82" y="106" width="2" height="1" fill="#474144" />
<rect x="90" y="106" width="1" height="7" fill="#161C2E" />
<rect x="91" y="106" width="2" height="3" fill="#5E5455" />
<rect x="96" y="106" width="1" height="4" fill="#5E5455" />
<rect x="108" y="106" width="3" height="5" fill="#EFE1AB" />
<rect x="118" y="106" width="1" height="5" fill="#161C2E" />
<rect x="58" y="107" width="1" height="9" fill="#69777F" />
<rect x="69" y="107" width="1" height="2" fill="#B48150" />
<rect x="72" y="107" width="1" height="4" fill="#69777F" />
<rect x="76" y="107" width="1" height="6" fill="#161C2E" />
<rect x="82" y="107" width="1" height="5" fill="#161C2E" />
<rect x="83" y="107" width="1" height="2" fill="#474144" />
<rect x="87" y="107" width="1" height="3" fill="#474144" />
<rect x="121" y="107" width="2" height="3" fill="#161C2E" />
<rect x="60" y="108" width="1" height="7" fill="#DAF3EE" />
<rect x="62" y="108" width="1" height="8" fill="#A0B3B6" />
<rect x="64" y="108" width="1" height="3" fill="#A0B3B6" />
<rect x="67" y="108" width="2" height="1" fill="#B48150" />
<rect x="73" y="108" width="1" height="2" fill="#69777F" />
<rect x="77" y="108" width="1" height="8" fill="#161C2E" />
<rect x="78" y="108" width="2" height="1" fill="#474144" />
<rect x="80" y="108" width="1" height="4" fill="#161C2E" />
<rect x="117" y="108" width="1" height="8" fill="#161C2E" />
<rect x="123" y="108" width="2" height="3" fill="#161C2E" />
<rect x="65" y="109" width="1" height="2" fill="#A0B3B6" />
<rect x="67" y="109" width="3" height="2" fill="#161C2E" />
<rect x="71" y="109" width="1" height="2" fill="#69777F" />
<rect x="78" y="109" width="2" height="3" fill="#161C2E" />
<rect x="83" y="109" width="1" height="4" fill="#161C2E" />
<rect x="91" y="109" width="1" height="5" fill="#161C2E" />
<rect x="92" y="109" width="1" height="1" fill="#5E5455" />
<rect x="100" y="109" width="1" height="2" fill="#C8A876" />
<rect x="101" y="109" width="1" height="2" fill="#EFE1AB" />
<rect x="115" y="109" width="2" height="3" fill="#161C2E" />
<rect x="119" y="109" width="2" height="5" fill="#C8A876" />
<rect x="125" y="109" width="2" height="2" fill="#161C2E" />
<rect x="57" y="110" width="1" height="6" fill="#69777F" />
<rect x="59" y="110" width="1" height="4" fill="#DAF3EE" />
<rect x="66" y="110" width="1" height="2" fill="#A0B3B6" />
<rect x="70" y="110" width="1" height="2" fill="#69777F" />
<rect x="73" y="110" width="2" height="3" fill="#A0B3B6" />
<rect x="84" y="110" width="1" height="3" fill="#161C2E" />
<rect x="85" y="110" width="2" height="1" fill="#474144" />
<rect x="87" y="110" width="1" height="3" fill="#161C2E" />
<rect x="92" y="110" width="1" height="4" fill="#161C2E" />
<rect x="96" y="110" width="1" height="4" fill="#161C2E" />
<rect x="98" y="110" width="1" height="1" fill="#C8A876" />
<rect x="112" y="110" width="1" height="1" fill="#EFE1AB" />
<rect x="113" y="110" width="2" height="3" fill="#161C2E" />
<rect x="121" y="110" width="2" height="6" fill="#C8A876" />
<rect x="127" y="110" width="1" height="6" fill="#161C2E" />
<rect x="61" y="111" width="1" height="5" fill="#A0B3B6" />
<rect x="64" y="111" width="2" height="3" fill="#69777F" />
<rect x="67" y="111" width="1" height="1" fill="#A0B3B6" />
<rect x="68" y="111" width="2" height="1" fill="#69777F" />
<rect x="71" y="111" width="2" height="2" fill="#A0B3B6" />
<rect x="85" y="111" width="2" height="2" fill="#161C2E" />
<rect x="93" y="111" width="3" height="3" fill="#161C2E" />
<rect x="98" y="111" width="3" height="2" fill="#161C2E" />
<rect x="101" y="111" width="2" height="1" fill="#C8A876" />
<rect x="103" y="111" width="4" height="1" fill="#EFE1AB" />
<rect x="108" y="111" width="1" height="1" fill="#EFE1AB" />
<rect x="109" y="111" width="4" height="2" fill="#161C2E" />
<rect x="118" y="111" width="1" height="2" fill="#C8A876" />
<rect x="123" y="111" width="3" height="4" fill="#C8A876" />
<rect x="126" y="111" width="1" height="1" fill="#161C2E" />
<rect x="128" y="111" width="1" height="4" fill="#161C2E" />
<rect x="66" y="112" width="2" height="2" fill="#69777F" />
<rect x="68" y="112" width="3" height="2" fill="#A0B3B6" />
<rect x="78" y="112" width="1" height="6" fill="#161C2E" />
<rect x="79" y="112" width="4" height="1" fill="#485884" />
<rect x="88" y="112" width="2" height="8" fill="#485884" />
<rect x="101" y="112" width="8" height="2" fill="#161C2E" />
<rect x="115" y="112" width="1" height="2" fill="#485884" />
<rect x="116" y="112" width="1" height="5" fill="#161C2E" />
<rect x="126" y="112" width="1" height="2" fill="#C8A876" />
<rect x="71" y="113" width="1" height="1" fill="#A0B3B6" />
<rect x="72" y="113" width="3" height="2" fill="#161C2E" />
<rect x="79" y="113" width="1" height="6" fill="#161C2E" />
<rect x="80" y="113" width="8" height="3" fill="#485884" />
<rect x="90" y="113" width="1" height="8" fill="#485884" />
<rect x="97" y="113" width="2" height="2" fill="#485884" />
<rect x="99" y="113" width="2" height="1" fill="#161C2E" />
<rect x="109" y="113" width="3" height="1" fill="#161C2E" />
<rect x="112" y="113" width="1" height="3" fill="#4697AC" />
<rect x="113" y="113" width="2" height="3" fill="#485884" />
<rect x="118" y="113" width="1" height="4" fill="#161C2E" />
<rect x="59" y="114" width="1" height="7" fill="#69777F" />
<rect x="64" y="114" width="1" height="5" fill="#A0B3B6" />
<rect x="65" y="114" width="2" height="1" fill="#69777F" />
<rect x="67" y="114" width="3" height="1" fill="#A0B3B6" />
<rect x="70" y="114" width="2" height="3" fill="#161C2E" />
<rect x="91" y="114" width="6" height="1" fill="#485884" />
<rect x="99" y="114" width="4" height="1" fill="#485884" />
<rect x="103" y="114" width="9" height="3" fill="#4697AC" />
<rect x="115" y="114" width="1" height="5" fill="#161C2E" />
<rect x="119" y="114" width="1" height="4" fill="#161C2E" />
<rect x="120" y="114" width="1" height="1" fill="#C8A876" />
<rect x="126" y="114" width="1" height="3" fill="#161C2E" />
<rect x="60" y="115" width="1" height="7" fill="#69777F" />
<rect x="65" y="115" width="3" height="1" fill="#A0B3B6" />
<rect x="68" y="115" width="2" height="2" fill="#161C2E" />
<rect x="72" y="115" width="1" height="7" fill="#161C2E" />
<rect x="73" y="115" width="1" height="3" fill="#C8A876" />
<rect x="74" y="115" width="1" height="1" fill="#161C2E" />
<rect x="76" y="115" width="1" height="4" fill="#161C2E" />
<rect x="91" y="115" width="4" height="6" fill="#485884" />
<rect x="95" y="115" width="8" height="2" fill="#4697AC" />
<rect x="120" y="115" width="1" height="3" fill="#161C2E" />
<rect x="123" y="115" width="2" height="1" fill="#C8A876" />
<rect x="125" y="115" width="1" height="3" fill="#161C2E" />
<rect x="61" y="116" width="1" height="1" fill="#69777F" />
<rect x="62" y="116" width="1" height="4" fill="#DAF3EE" />
<rect x="65" y="116" width="2" height="4" fill="#A0B3B6" />
<rect x="67" y="116" width="1" height="5" fill="#161C2E" />
<rect x="74" y="116" width="1" height="2" fill="#C8A876" />
<rect x="80" y="116" width="1" height="4" fill="#161C2E" />
<rect x="81" y="116" width="7" height="1" fill="#485884" />
<rect x="112" y="116" width="2" height="2" fill="#485884" />
<rect x="114" y="116" width="1" height="4" fill="#161C2E" />
<rect x="121" y="116" width="4" height="2" fill="#161C2E" />
<rect x="61" y="117" width="1" height="2" fill="#DAF3EE" />
<rect x="68" y="117" width="1" height="6" fill="#161C2E" />
<rect x="69" y="117" width="2" height="3" fill="#C8A876" />
<rect x="71" y="117" width="1" height="1" fill="#161C2E" />
<rect x="81" y="117" width="1" height="3" fill="#161C2E" />
<rect x="82" y="117" width="6" height="1" fill="#485884" />
<rect x="95" y="117" width="1" height="4" fill="#485884" />
<rect x="96" y="117" width="13" height="1" fill="#4697AC" />
<rect x="109" y="117" width="3" height="2" fill="#485884" />
<rect x="63" y="118" width="1" height="3" fill="#DAF3EE" />
<rect x="71" y="118" width="1" height="3" fill="#C8A876" />
<rect x="73" y="118" width="2" height="3" fill="#161C2E" />
<rect x="82" y="118" width="2" height="3" fill="#161C2E" />
<rect x="84" y="118" width="4" height="1" fill="#485884" />
<rect x="96" y="118" width="13" height="1" fill="#485884" />
<rect x="112" y="118" width="2" height="2" fill="#161C2E" />
<rect x="61" y="119" width="1" height="4" fill="#69777F" />
<rect x="64" y="119" width="1" height="3" fill="#DAF3EE" />
<rect x="84" y="119" width="3" height="2" fill="#161C2E" />
<rect x="87" y="119" width="1" height="1" fill="#485884" />
<rect x="96" y="119" width="12" height="1" fill="#485884" />
<rect x="108" y="119" width="4" height="2" fill="#161C2E" />
<rect x="62" y="120" width="1" height="3" fill="#69777F" />
<rect x="65" y="120" width="2" height="2" fill="#DAF3EE" />
<rect x="69" y="120" width="1" height="6" fill="#161C2E" />
<rect x="70" y="120" width="1" height="1" fill="#C8A876" />
<rect x="81" y="120" width="1" height="13" fill="#161C2E" opacity="0.270588" />
<rect x="87" y="120" width="3" height="3" fill="#161C2E" />
<rect x="96" y="120" width="8" height="1" fill="#485884" />
<rect x="104" y="120" width="4" height="6" fill="#161C2E" />
<rect x="112" y="120" width="1" height="1" fill="#161C2E" />
<rect x="113" y="120" width="1" height="13" fill="#161C2E" opacity="0.270588" />
<rect x="63" y="121" width="1" height="3" fill="#69777F" />
<rect x="67" y="121" width="1" height="1" fill="#DAF3EE" />
<rect x="70" y="121" width="2" height="1" fill="#161C2E" />
<rect x="73" y="121" width="1" height="6" fill="#866353" />
<rect x="74" y="121" width="1" height="2" fill="#161C2E" />
<rect x="79" y="121" width="2" height="11" fill="#161C2E" opacity="0.270588" />
<rect x="82" y="121" width="3" height="12" fill="#161C2E" opacity="0.270588" />
<rect x="85" y="121" width="2" height="1" fill="#161C2E" />
<rect x="90" y="121" width="14" height="2" fill="#161C2E" />
<rect x="108" y="121" width="2" height="3" fill="#161C2E" />
<rect x="110" y="121" width="3" height="12" fill="#161C2E" opacity="0.270588" />
<rect x="114" y="121" width="2" height="11" fill="#161C2E" opacity="0.270588" />
<rect x="64" y="122" width="1" height="2" fill="#69777F" />
<rect x="65" y="122" width="3" height="1" fill="#161C2E" />
<rect x="70" y="122" width="1" height="6" fill="#161C2E" />
<rect x="71" y="122" width="2" height="3" fill="#866353" />
<rect x="76" y="122" width="1" height="7" fill="#161C2E" />
<rect x="78" y="122" width="1" height="9" fill="#161C2E" opacity="0.270588" />
<rect x="85" y="122" width="2" height="12" fill="#161C2E" opacity="0.270588" />
<rect x="116" y="122" width="1" height="9" fill="#161C2E" opacity="0.270588" />
<rect x="65" y="123" width="1" height="1" fill="#69777F" />
<rect x="66" y="123" width="2" height="1" fill="#161C2E" />
<rect x="74" y="123" width="1" height="4" fill="#866353" />
<rect x="77" y="123" width="1" height="5" fill="#161C2E" />
<rect x="87" y="123" width="4" height="11" fill="#161C2E" opacity="0.270588" />
<rect x="91" y="123" width="6" height="1" fill="#161C2E" />
<rect x="97" y="123" width="3" height="1" fill="#161C2E" opacity="0.270588" />
<rect x="100" y="123" width="4" height="2" fill="#161C2E" />
<rect x="117" y="123" width="1" height="7" fill="#161C2E" opacity="0.270588" />
<rect x="75" y="124" width="1" height="3" fill="#866353" />
<rect x="91" y="124" width="1" height="2" fill="#161C2E" opacity="0.270588" />
<rect x="92" y="124" width="5" height="1" fill="#161C2E" />
<rect x="97" y="124" width="2" height="3" fill="#161C2E" opacity="0.270588" />
<rect x="99" y="124" width="1" height="2" fill="#161C2E" />
<rect x="108" y="124" width="1" height="1" fill="#161C2E" />
<rect x="109" y="124" width="1" height="10" fill="#161C2E" opacity="0.270588" />
<rect x="118" y="124" width="1" height="5" fill="#161C2E" opacity="0.270588" />
<rect x="71" y="125" width="1" height="4" fill="#161C2E" />
<rect x="72" y="125" width="1" height="1" fill="#866353" />
<rect x="92" y="125" width="4" height="3" fill="#161C2E" />
<rect x="96" y="125" width="1" height="1" fill="#161C2E" opacity="0.270588" />
<rect x="100" y="125" width="1" height="1" fill="#161C2E" />
<rect x="101" y="125" width="3" height="10" fill="#161C2E" opacity="0.270588" />
<rect x="108" y="125" width="1" height="9" fill="#161C2E" opacity="0.270588" />
<rect x="72" y="126" width="1" height="4" fill="#161C2E" />
<rect x="91" y="126" width="1" height="2" fill="#161C2E" />
<rect x="96" y="126" width="1" height="2" fill="#161C2E" />
<rect x="99" y="126" width="2" height="9" fill="#161C2E" opacity="0.270588" />
<rect x="104" y="126" width="4" height="8" fill="#161C2E" opacity="0.270588" />
<rect x="73" y="127" width="3" height="3" fill="#161C2E" />
<rect x="97" y="127" width="1" height="1" fill="#161C2E" />
<rect x="98" y="127" width="1" height="8" fill="#161C2E" opacity="0.270588" />
<rect x="77" y="128" width="1" height="2" fill="#161C2E" opacity="0.270588" />
<rect x="91" y="128" width="7" height="7" fill="#161C2E" opacity="0.270588" />
<rect x="90" y="134" width="1" height="1" fill="#161C2E" opacity="0.270588" />
<rect x="104" y="134" width="1" height="1" fill="#161C2E" opacity="0.270588" />
</svg>